<svg width="35" height="35" viewBox="0 0 35 35" fill="none" xmlns="http://www.w3.org/2000/svg">
  <path d="M17.7091 29.0856C17.6842 29.1173 17.6525 29.143 17.6162 29.1607C17.58 29.1783 17.5402 29.1875 17.4999 29.1875C17.4596 29.1875 17.4198 29.1783 17.3836 29.1607C17.3473 29.143 17.3156 29.1173 17.2907 29.0856L13.572 24.3807C13.5413 24.3416 13.5223 24.2946 13.5171 24.2451C13.5119 24.1957 13.5207 24.1457 13.5425 24.1011C13.5643 24.0564 13.5983 24.0187 13.6405 23.9925C13.6827 23.9662 13.7314 23.9523 13.7812 23.9524H16.2349V15.9039C16.2349 15.7578 16.3544 15.6383 16.5005 15.6383H18.4927C18.6388 15.6383 18.7583 15.7578 18.7583 15.9039V23.9491H21.2187C21.4411 23.9491 21.564 24.2047 21.4278 24.3774L17.7091 29.0856Z" fill="black"/>
  <path d="M27.441 12.6756C25.9203 8.66465 22.0455 5.8125 17.5066 5.8125C12.9678 5.8125 9.09297 8.66133 7.57227 12.6723C4.72676 13.4193 2.625 16.0125 2.625 19.0938C2.625 22.7627 5.59668 25.7344 9.2623 25.7344H10.5938C10.7398 25.7344 10.8594 25.6148 10.8594 25.4688V23.4766C10.8594 23.3305 10.7398 23.2109 10.5938 23.2109H9.2623C8.14336 23.2109 7.09082 22.766 6.30723 21.9592C5.52695 21.1557 5.11191 20.0732 5.14844 18.951C5.17832 18.0744 5.47715 17.251 6.01836 16.557C6.57285 15.8498 7.3498 15.3352 8.21309 15.1061L9.47148 14.7773L9.93301 13.5621C10.2186 12.8051 10.617 12.0979 11.1184 11.457C11.6133 10.8219 12.1996 10.2635 12.8582 9.8002C14.2229 8.84063 15.8299 8.33262 17.5066 8.33262C19.1834 8.33262 20.7904 8.84063 22.1551 9.8002C22.8158 10.265 23.4002 10.8229 23.8949 11.457C24.3963 12.0979 24.7947 12.8084 25.0803 13.5621L25.5385 14.774L26.7936 15.1061C28.5932 15.5908 29.8516 17.2277 29.8516 19.0938C29.8516 20.1928 29.4232 21.2287 28.6463 22.0057C28.2653 22.3889 27.812 22.6928 27.3127 22.8997C26.8135 23.1066 26.2781 23.2124 25.7377 23.2109H24.4062C24.2602 23.2109 24.1406 23.3305 24.1406 23.4766V25.4688C24.1406 25.6148 24.2602 25.7344 24.4062 25.7344H25.7377C29.4033 25.7344 32.375 22.7627 32.375 19.0938C32.375 16.0158 30.2799 13.426 27.441 12.6756Z" fill="black"/>
</svg>
