<svg width="80" height="80" viewBox="0 0 80 80" fill="none" xmlns="http://www.w3.org/2000/svg">
<rect width="80" height="80" rx="4" fill="white"/>
<path d="M51.1841 16.0835H27.7507C27.1063 16.0835 26.584 16.6058 26.584 17.2502V62.7502C26.584 63.3945 27.1063 63.9168 27.7507 63.9168H61.584C62.2283 63.9168 62.7506 63.3945 62.7506 62.7502V27.6501C62.7506 27.3407 62.6277 27.0439 62.4089 26.8251L52.009 16.4252C51.7902 16.2064 51.4935 16.0835 51.1841 16.0835Z" fill="white" stroke="#979593" stroke-width="2" stroke-miterlimit="10"/>
<path d="M51.084 16.0835V26.5835C51.084 27.2278 51.6063 27.7502 52.2507 27.7502H62.7507" stroke="#979593" stroke-width="2" stroke-miterlimit="10"/>
<path d="M41.7493 47.5832H35.916V46.4165H41.7493C42.0715 46.4165 42.3327 46.6777 42.3327 46.9998C42.3327 47.322 42.0715 47.5832 41.7493 47.5832ZM41.7493 44.0832H35.916V42.9165H41.7493C42.0715 42.9165 42.3327 43.1777 42.3327 43.4998C42.3327 43.822 42.0715 44.0832 41.7493 44.0832ZM41.7493 40.5832H35.916V39.4165H41.7493C42.0715 39.4165 42.3327 39.6777 42.3327 39.9998C42.3327 40.322 42.0715 40.5832 41.7493 40.5832ZM41.7493 37.0832H35.916V35.9165H41.7493C42.0715 35.9165 42.3327 36.1777 42.3327 36.4998C42.3327 36.822 42.0715 37.0832 41.7493 37.0832ZM41.7493 51.0832H35.916V49.9165H41.7493C42.0715 49.9165 42.3327 50.1777 42.3327 50.4998C42.3327 50.822 42.0715 51.0832 41.7493 51.0832ZM58.0827 47.5832H52.2493C51.9272 47.5832 51.666 47.322 51.666 46.9998C51.666 46.6777 51.9272 46.4165 52.2493 46.4165H58.0827C58.4049 46.4165 58.666 46.6777 58.666 46.9998C58.666 47.322 58.4049 47.5832 58.0827 47.5832ZM58.0827 51.0832H52.2493C51.9272 51.0832 51.666 50.822 51.666 50.4998C51.666 50.1777 51.9272 49.9165 52.2493 49.9165H58.0827C58.4049 49.9165 58.666 50.1777 58.666 50.4998C58.666 50.822 58.4049 51.0832 58.0827 51.0832ZM58.0827 44.0832H52.2493C51.9272 44.0832 51.666 43.822 51.666 43.4998C51.666 43.1777 51.9272 42.9165 52.2493 42.9165H58.0827C58.4049 42.9165 58.666 43.1777 58.666 43.4998C58.666 43.822 58.4049 44.0832 58.0827 44.0832ZM58.0827 40.5832H52.2493C51.9272 40.5832 51.666 40.322 51.666 39.9998C51.666 39.6777 51.9272 39.4165 52.2493 39.4165H58.0827C58.4049 39.4165 58.666 39.6777 58.666 39.9998C58.666 40.322 58.4049 40.5832 58.0827 40.5832ZM58.0827 37.0832H52.2493C51.9272 37.0832 51.666 36.822 51.666 36.4998C51.666 36.1777 51.9272 35.9165 52.2493 35.9165H58.0827C58.4049 35.9165 58.666 36.1777 58.666 36.4998C58.666 36.822 58.4049 37.0832 58.0827 37.0832ZM49.916 47.5832H44.0827C43.7605 47.5832 43.4993 47.322 43.4993 46.9998C43.4993 46.6777 43.7605 46.4165 44.0827 46.4165H49.916C50.2382 46.4165 50.4993 46.6777 50.4993 46.9998C50.4993 47.322 50.2382 47.5832 49.916 47.5832ZM49.916 51.0832H44.0827C43.7605 51.0832 43.4993 50.822 43.4993 50.4998C43.4993 50.1777 43.7605 49.9165 44.0827 49.9165H49.916C50.2382 49.9165 50.4993 50.1777 50.4993 50.4998C50.4993 50.822 50.2382 51.0832 49.916 51.0832ZM49.916 44.0832H44.0827C43.7605 44.0832 43.4993 43.822 43.4993 43.4998C43.4993 43.1777 43.7605 42.9165 44.0827 42.9165H49.916C50.2382 42.9165 50.4993 43.1777 50.4993 43.4998C50.4993 43.822 50.2382 44.0832 49.916 44.0832ZM49.916 40.5832H44.0827C43.7605 40.5832 43.4993 40.322 43.4993 39.9998C43.4993 39.6777 43.7605 39.4165 44.0827 39.4165H49.916C50.2382 39.4165 50.4993 39.6777 50.4993 39.9998C50.4993 40.322 50.2382 40.5832 49.916 40.5832ZM49.916 37.0832H44.0827C43.7605 37.0832 43.4993 36.822 43.4993 36.4998C43.4993 36.1777 43.7605 35.9165 44.0827 35.9165H49.916C50.2382 35.9165 50.4993 36.1777 50.4993 36.4998C50.4993 36.822 50.2382 37.0832 49.916 37.0832Z" fill="#C8C6C4"/>
<path d="M18.9993 55.1668H37.666C38.9547 55.1668 39.9993 54.1221 39.9993 52.8335V34.1668C39.9993 32.8782 38.9547 31.8335 37.666 31.8335H18.9993C17.7107 31.8335 16.666 32.8782 16.666 34.1668V52.8335C16.666 54.1221 17.7107 55.1668 18.9993 55.1668Z" fill="#107C41"/>
<path d="M21.8867 50.5L26.4862 43.4803L22.2735 36.5H25.6636L27.9633 40.9617C28.1746 41.3847 28.3199 41.7007 28.3991 41.9088H28.4287C28.5814 41.5705 28.7398 41.2417 28.905 40.9229L31.363 36.5H34.4751L30.1537 43.4417L34.5845 50.5H31.2736L28.6173 45.599C28.505 45.4172 28.3991 45.199 28.3 44.9448H28.2607C28.2145 45.1014 28.112 45.3129 27.9536 45.5794L25.2176 50.5H21.8867Z" fill="white"/>
</svg>
