<svg width="11" height="11" viewBox="0 0 11 11" fill="none" xmlns="http://www.w3.org/2000/svg">
   <path d="M10.1434 0.209209C9.95207 0.102753 9.74165 0.0350531 9.52415 0.00998182C9.30666 -0.0150894 9.08635 0.00295926 8.87583 0.0630959C8.66531 0.123233 8.46872 0.224278 8.29728 0.360452C8.12584 0.496627 7.98293 0.66526 7.87672 0.856709L4.78255 6.42504L3.01172 4.65421C2.85798 4.49503 2.67407 4.36805 2.47073 4.28071C2.26739 4.19336 2.04869 4.14738 1.82739 4.14546C1.60609 4.14354 1.38662 4.18571 1.1818 4.26951C0.97697 4.35331 0.790883 4.47706 0.634396 4.63355C0.477908 4.79004 0.354153 4.97612 0.270351 5.18095C0.18655 5.38578 0.14438 5.60525 0.146303 5.82654C0.148226 6.04784 0.194203 6.26654 0.281552 6.46988C0.3689 6.67322 0.49587 6.85713 0.655054 7.01088L3.98839 10.3442C4.30339 10.66 4.72839 10.8334 5.16672 10.8334L5.39755 10.8167C5.65301 10.781 5.89669 10.6864 6.1094 10.5405C6.32212 10.3946 6.49806 10.2013 6.62339 9.97588L10.7901 2.47588C10.8964 2.28458 10.9641 2.07421 10.9892 1.85678C11.0142 1.63934 10.9962 1.41909 10.9362 1.20861C10.8761 0.998125 10.7752 0.801532 10.6392 0.630055C10.5032 0.458578 10.3347 0.315574 10.1434 0.209209Z" fill="#5C3783"/>
</svg>
