<svg width="16" height="16" viewBox="0 0 16 16" fill="none" xmlns="http://www.w3.org/2000/svg">
  <g clip-path="url(#clip0_2899_8090)">
  <path d="M15.2048 10.5034C15.3503 10.6197 15.4486 10.7849 15.4814 10.9682C15.5143 11.1515 15.4795 11.3405 15.3835 11.5001L14.0975 14.1041L11.4935 15.3901C11.3336 15.487 11.1438 15.5224 10.9597 15.4895C10.7757 15.4566 10.6099 15.3577 10.4935 15.2114L8.46745 12.0974C8.07092 11.6017 7.87113 10.9772 7.90631 10.3433C7.94149 9.70949 8.20917 9.11089 8.65812 8.66209C9.10697 8.21342 9.70548 7.94598 10.3392 7.91092C10.9728 7.87587 11.5972 8.07567 12.0928 8.47209L15.2048 10.5034Z" stroke="#E70000" stroke-linecap="round" stroke-linejoin="round"/>
  <path d="M6.99315 7L0.507812 0.5" stroke="#E70000" stroke-linecap="round" stroke-linejoin="round"/>
  <path d="M8.02755 9.6859L6.99355 8.66657C6.77258 8.44553 6.64844 8.14578 6.64844 7.83323C6.64844 7.52068 6.77258 7.22093 6.99355 6.9999C7.21459 6.77892 7.51434 6.65479 7.82688 6.65479C8.13943 6.65479 8.43918 6.77892 8.66022 6.9999L9.70155 8.02657" stroke="#E70000" stroke-linecap="round" stroke-linejoin="round"/>
  <path d="M13.0922 14.6L10.9922 12.5" stroke="#E70000" stroke-linecap="round" stroke-linejoin="round"/>
  <path d="M14.7815 12.7167L12.4922 11" stroke="#E70000" stroke-linecap="round" stroke-linejoin="round"/>
  <path d="M10.5078 4.5H13.5078" stroke="#E70000" stroke-linecap="round" stroke-linejoin="round"/>
  <path d="M12.0078 3V6" stroke="#E70000" stroke-linecap="round" stroke-linejoin="round"/>
  <path d="M6.00781 1.5H8.00781" stroke="#E70000" stroke-linecap="round" stroke-linejoin="round"/>
  <path d="M7.00781 0.5V2.5" stroke="#E70000" stroke-linecap="round" stroke-linejoin="round"/>
  <path d="M0.507812 8H2.50781" stroke="#E70000" stroke-linecap="round" stroke-linejoin="round"/>
  <path d="M1.50781 7V9" stroke="#E70000" stroke-linecap="round" stroke-linejoin="round"/>
  <path d="M5.00781 14.5H7.00781" stroke="#E70000" stroke-linecap="round" stroke-linejoin="round"/>
  <path d="M6.00781 13.5V15.5" stroke="#E70000" stroke-linecap="round" stroke-linejoin="round"/>
  <path d="M4.89453 10.8479C4.96084 10.8479 5.02442 10.8742 5.07131 10.9211C5.11819 10.968 5.14453 11.0316 5.14453 11.0979" stroke="#E70000" stroke-linecap="round" stroke-linejoin="round"/>
  <path d="M4.64453 11.0979C4.64453 11.0316 4.67087 10.968 4.71775 10.9211C4.76464 10.8742 4.82823 10.8479 4.89453 10.8479" stroke="#E70000" stroke-linecap="round" stroke-linejoin="round"/>
  <path d="M4.89453 11.3479C4.82823 11.3479 4.76464 11.3216 4.71775 11.2747C4.67087 11.2278 4.64453 11.1642 4.64453 11.0979" stroke="#E70000" stroke-linecap="round" stroke-linejoin="round"/>
  <path d="M5.14453 11.0979C5.14453 11.1642 5.11819 11.2278 5.07131 11.2747C5.02442 11.3216 4.96084 11.3479 4.89453 11.3479" stroke="#E70000" stroke-linecap="round" stroke-linejoin="round"/>
  <path d="M1.96094 13.4568C2.02724 13.4568 2.09083 13.4831 2.13771 13.53C2.1846 13.5769 2.21094 13.6405 2.21094 13.7068" stroke="#E70000" stroke-linecap="round" stroke-linejoin="round"/>
  <path d="M1.71094 13.7068C1.71094 13.6405 1.73728 13.5769 1.78416 13.53C1.83104 13.4831 1.89463 13.4568 1.96094 13.4568" stroke="#E70000" stroke-linecap="round" stroke-linejoin="round"/>
  <path d="M1.96094 13.9568C1.89463 13.9568 1.83104 13.9304 1.78416 13.8836C1.73728 13.8367 1.71094 13.7731 1.71094 13.7068" stroke="#E70000" stroke-linecap="round" stroke-linejoin="round"/>
  <path d="M2.21094 13.7068C2.21094 13.7731 2.1846 13.8367 2.13771 13.8836C2.09083 13.9304 2.02724 13.9568 1.96094 13.9568" stroke="#E70000" stroke-linecap="round" stroke-linejoin="round"/>
  <path d="M14.0254 1C14.0917 1 14.1553 1.02634 14.2022 1.07322C14.2491 1.12011 14.2754 1.1837 14.2754 1.25" stroke="#E70000" stroke-linecap="round" stroke-linejoin="round"/>
  <path d="M13.7754 1.25C13.7754 1.1837 13.8017 1.12011 13.8486 1.07322C13.8955 1.02634 13.9591 1 14.0254 1" stroke="#E70000" stroke-linecap="round" stroke-linejoin="round"/>
  <path d="M14.0254 1.5C13.9591 1.5 13.8955 1.47366 13.8486 1.42678C13.8017 1.37989 13.7754 1.3163 13.7754 1.25" stroke="#E70000" stroke-linecap="round" stroke-linejoin="round"/>
  <path d="M14.2754 1.25C14.2754 1.3163 14.2491 1.37989 14.2022 1.42678C14.1553 1.47366 14.0917 1.5 14.0254 1.5" stroke="#E70000" stroke-linecap="round" stroke-linejoin="round"/>
  </g>
  <defs>
  <clipPath id="clip0_2899_8090">
  <rect width="16" height="16" fill="white"/>
  </clipPath>
  </defs>
</svg>
