<svg width="185" height="185" viewBox="0 0 185 185" fill="none" xmlns="http://www.w3.org/2000/svg">
   <path fill-rule="evenodd" clip-rule="evenodd" d="M70.1244 71.7615C70.1244 71.7615 71.7894 74.7678 71.9744 75.0915C72.2303 75.5366 72.4291 76.0121 72.5664 76.5068C72.7051 77.3485 70.0966 77.552 70.2446 77.552C70.2267 77.5469 70.2079 77.546 70.1896 77.5494C70.1713 77.5528 70.154 77.5604 70.1392 77.5716C70.1243 77.5828 70.1123 77.5973 70.104 77.614C70.0957 77.6307 70.0913 77.649 70.0913 77.6676C70.0913 77.6862 70.0957 77.7046 70.104 77.7213C70.1123 77.7379 70.1243 77.7524 70.1392 77.7636C70.154 77.7748 70.1713 77.7824 70.1896 77.7859C70.2079 77.7893 70.2267 77.7884 70.2446 77.7833C71.4656 77.885 73.2879 77.6538 73.1306 76.4235C72.637 74.9736 71.8986 73.6189 70.9476 72.4183C70.5961 71.9373 70.3371 71.632 70.3371 71.632C70.32 71.6038 70.2923 71.5836 70.2602 71.5758C70.2281 71.568 70.1942 71.5732 70.166 71.5904C70.1378 71.6076 70.1175 71.6352 70.1097 71.6673C70.1019 71.6994 70.1072 71.7333 70.1244 71.7615ZM65.6196 81.2983C65.8536 81.8832 66.2743 82.3744 66.8163 82.6956C67.3583 83.0168 67.9912 83.1499 68.6166 83.0743C68.6418 83.0814 68.6639 83.0966 68.6796 83.1175C68.6953 83.1383 68.7038 83.1637 68.7038 83.1899C68.7038 83.216 68.6953 83.2414 68.6796 83.2623C68.6639 83.2832 68.6418 83.2983 68.6166 83.3055C68.1736 83.422 67.7101 83.4376 67.2602 83.3511C66.8104 83.2647 66.3857 83.0784 66.0174 82.806C65.3243 82.1829 64.8752 81.3338 64.7501 80.4103C64.7465 80.3487 64.7621 80.2875 64.795 80.2353C64.8278 80.183 64.8761 80.1423 64.9331 80.1189C64.9902 80.0955 65.0532 80.0904 65.1132 80.1045C65.1733 80.1186 65.2274 80.1511 65.2681 80.1975C65.6451 80.7298 66.2168 81.0921 66.8591 81.2058C67.5313 81.3196 68.2217 81.2493 68.8571 81.0023C68.8841 80.9954 68.9126 80.9981 68.9377 81.0099C68.9629 81.0217 68.9832 81.0418 68.9952 81.0669C69.0072 81.092 69.0101 81.1205 69.0035 81.1475C68.9969 81.1745 68.9811 81.1983 68.9589 81.215C68.6352 81.4004 68.2862 81.5375 67.9229 81.622C67.5369 81.7253 67.134 81.7499 66.7383 81.6943C66.3426 81.6386 65.9622 81.504 65.6196 81.2983ZM63.2701 66.9145C63.4366 66.8405 64.2969 66.5075 64.8519 66.341C65.197 66.2419 65.5366 66.1245 65.8694 65.9895C65.8988 65.9895 65.927 65.9778 65.9479 65.957C65.9687 65.9362 65.9804 65.908 65.9804 65.8785C65.9804 65.8491 65.9687 65.8208 65.9479 65.8C65.927 65.7792 65.8988 65.7675 65.8694 65.7675C65.5213 65.6982 65.163 65.6982 64.8149 65.7675C64.482 65.8067 64.1607 65.9139 63.8711 66.0826C63.5815 66.2513 63.3297 66.4778 63.1314 66.748C63.1166 66.7556 63.1037 66.7665 63.0937 66.7797C63.0837 66.793 63.0768 66.8083 63.0735 66.8246C63.0702 66.8409 63.0706 66.8577 63.0747 66.8738C63.0787 66.8899 63.0864 66.9049 63.097 66.9177C63.1077 66.9305 63.121 66.9407 63.1361 66.9476C63.1513 66.9545 63.1677 66.9579 63.1843 66.9576C63.201 66.9573 63.2173 66.9533 63.2321 66.9458C63.247 66.9384 63.26 66.9277 63.2701 66.9145ZM73.3619 65.675C74.1377 65.888 74.893 66.1697 75.6189 66.5168C75.8448 66.6255 76.0561 66.7622 76.2479 66.9238C76.2687 66.9396 76.2941 66.9481 76.3202 66.9482C76.3464 66.9483 76.3718 66.9398 76.3927 66.9242C76.4136 66.9085 76.4288 66.8864 76.4361 66.8613C76.4433 66.8362 76.4422 66.8094 76.4329 66.785C76.2133 66.287 75.8135 65.8904 75.3136 65.675C74.7106 65.3941 74.039 65.2944 73.3804 65.3883C73.3424 65.3858 73.3049 65.3986 73.2763 65.4237C73.2477 65.4489 73.2302 65.4844 73.2277 65.5224C73.2253 65.5604 73.2381 65.5979 73.2632 65.6265C73.2884 65.6551 73.3238 65.6726 73.3619 65.675ZM133.376 53.798C133.482 53.8931 133.6 53.9739 133.727 54.0385C134.356 54.3623 134.541 54.3068 134.514 54.464C134.511 54.4787 134.506 54.4927 134.498 54.5054C134.491 54.518 134.48 54.529 134.468 54.5376C134.456 54.5462 134.443 54.5523 134.428 54.5556C134.414 54.5588 134.399 54.5592 134.384 54.5565C134.195 54.5471 134.006 54.5254 133.82 54.4918C133.339 54.4085 132.765 54.205 132.821 53.724C133.046 52.9255 133.356 52.1534 133.746 51.4208C134.023 50.9028 134.273 50.4958 134.273 50.4958C134.29 50.4752 134.312 50.4607 134.338 50.4543C134.364 50.448 134.391 50.4503 134.415 50.4608C134.439 50.4713 134.459 50.4895 134.472 50.5125C134.485 50.5355 134.49 50.5622 134.486 50.5883C134.042 52.3273 133.431 53.4465 133.376 53.798ZM137.483 57.0078C136.597 57.1166 135.698 57.0055 134.865 56.684C134.834 56.6754 134.809 56.655 134.793 56.6272C134.777 56.5995 134.773 56.5667 134.782 56.536C134.837 56.351 135.004 56.536 136.253 56.536C136.998 56.5938 137.742 56.4158 138.38 56.0273C138.434 55.9821 138.502 55.9581 138.572 55.9599C138.642 55.9617 138.709 55.9891 138.76 56.037C138.812 56.0848 138.844 56.1498 138.85 56.2195C138.857 56.2893 138.838 56.3592 138.796 56.4158C138.483 56.8825 138.073 57.2767 137.594 57.5718C137.116 57.867 136.579 58.0563 136.021 58.127C136.007 58.13 135.992 58.1302 135.977 58.1274C135.963 58.1246 135.949 58.119 135.936 58.1108C135.924 58.1027 135.913 58.0922 135.905 58.0799C135.896 58.0675 135.89 58.0537 135.887 58.0391C135.884 58.0246 135.884 58.0095 135.887 57.9949C135.89 57.9803 135.895 57.9663 135.903 57.9539C135.912 57.9414 135.922 57.9307 135.934 57.9223C135.947 57.9139 135.961 57.908 135.975 57.905C136.536 57.7159 137.049 57.4101 137.483 57.0078Z" fill="#5C3783"/>
   <path fill-rule="evenodd" clip-rule="evenodd" d="M133.089 46.8697C132.972 46.83 132.851 46.8021 132.728 46.7865C132.463 46.764 132.197 46.8227 131.966 46.9549C131.734 47.087 131.549 47.2864 131.433 47.5265C131.403 47.6229 131.381 47.722 131.369 47.8225C131.366 47.8495 131.373 47.8764 131.388 47.8991C131.403 47.9217 131.425 47.9387 131.45 47.9473C131.476 47.9558 131.504 47.9555 131.529 47.9462C131.555 47.937 131.576 47.9195 131.591 47.8965C131.913 47.6266 132.283 47.4196 132.682 47.286C132.756 47.286 132.96 47.1472 133.089 47.101C133.107 47.1061 133.126 47.107 133.144 47.1036C133.162 47.1002 133.18 47.0926 133.195 47.0814C133.209 47.0702 133.221 47.0557 133.23 47.039C133.238 47.0223 133.242 47.004 133.242 46.9854C133.242 46.9668 133.238 46.9484 133.23 46.9317C133.221 46.9151 133.209 46.9006 133.195 46.8894C133.18 46.8782 133.162 46.8706 133.144 46.8672C133.126 46.8638 133.107 46.8646 133.089 46.8697Z" fill="#5C3783"/>
   <path fill-rule="evenodd" clip-rule="evenodd" d="M169.774 32.4675C165.721 28.4164 160.761 25.3892 155.305 23.6367C149.849 21.8841 144.053 21.4567 138.399 22.3897C132.745 23.3228 127.394 25.5894 122.79 29.002C118.186 32.4146 114.462 36.8749 111.925 42.0135L108.465 36.3988C109.973 34.1337 110.871 31.5184 111.074 28.8051C111.277 26.0918 110.777 23.372 109.623 20.9079C108.469 18.4439 106.7 16.3188 104.486 14.7375C102.271 13.1563 99.687 12.1722 96.9819 11.8802C94.2767 11.5882 91.5419 11.9981 89.0413 13.0704C86.5406 14.1427 84.3584 15.8412 82.7051 18.0022C81.0518 20.1632 79.9831 22.7137 79.6022 25.4078C79.2213 28.1019 79.541 30.8486 80.5304 33.3833C81.3815 35.6381 82.7395 37.6671 84.4995 39.3136C86.2595 40.9601 88.3745 42.18 90.681 42.8791C92.9874 43.5782 95.4238 43.7378 97.8017 43.3455C100.18 42.9533 102.436 42.0196 104.395 40.6168L110.87 44.3168C108.543 49.8331 107.63 55.843 108.213 61.8017C108.796 67.7603 110.857 73.4792 114.209 78.4399C117.561 83.4006 122.099 87.4462 127.41 90.2099C132.721 92.9736 138.637 94.368 144.624 94.2668C176.397 93.8135 192.446 55.0838 169.774 32.4675ZM104.266 40.0895C101.157 42.3648 97.3085 43.3923 93.4793 42.9694C89.6501 42.5465 86.1185 40.7038 83.5811 37.805C81.0437 34.9061 79.6849 31.1616 79.7728 27.3101C79.8606 23.4587 81.3886 19.78 84.0555 16.9998C86.7223 14.2196 90.3343 12.5398 94.1787 12.2919C98.0232 12.0439 101.821 13.2458 104.823 15.6604C107.825 18.075 109.813 21.5269 110.395 25.3352C110.976 29.1434 110.11 33.0315 107.966 36.2323C107.936 36.2794 107.921 36.3339 107.921 36.3895C107.921 36.4451 107.936 36.4996 107.966 36.5468L113.081 44.807L104.525 40.071C104.484 40.0501 104.438 40.0407 104.393 40.044C104.347 40.0472 104.303 40.063 104.266 40.0895ZM139.962 64.9535L140.008 62.9925C140.009 62.9672 140.003 62.942 139.993 62.9189C139.982 62.8959 139.967 62.8755 139.947 62.8595C139.927 62.8434 139.904 62.832 139.88 62.8262C139.855 62.8204 139.829 62.8204 139.804 62.826C138.662 63.0218 137.499 63.0685 136.345 62.9648C132.367 62.5855 130.231 60.3655 130.24 56.2585C130.24 54.6583 130.24 47.5543 130.887 46.0835C132.612 44.6567 134.234 43.1113 135.744 41.4585C136.303 43.6245 137.308 45.6502 138.694 47.4063C138.314 47.245 137.891 47.2157 137.492 47.323C137.467 47.3302 137.445 47.3454 137.429 47.3662C137.413 47.3871 137.405 47.4125 137.405 47.4386C137.405 47.4648 137.413 47.4902 137.429 47.5111C137.445 47.5319 137.467 47.5471 137.492 47.5543C138.281 47.8299 139.037 48.1897 139.749 48.6273C139.759 48.6376 139.771 48.6458 139.785 48.6514C139.798 48.657 139.813 48.6599 139.828 48.6599C139.842 48.6599 139.857 48.657 139.87 48.6514C139.884 48.6458 139.896 48.6376 139.906 48.6273C140.605 49.215 141.396 49.6837 142.246 50.0148C142.233 50.2427 142.233 50.4713 142.246 50.6993C142.367 52.0405 143.051 54.057 144.448 54.3068L141.775 57.535C141.752 57.5614 141.735 57.5925 141.726 57.626C141.716 57.6596 141.714 57.6948 141.719 57.7293C141.719 57.8773 141.821 57.7293 141.506 58.1363C141.484 58.1654 141.472 58.2012 141.472 58.238C141.472 58.2748 141.484 58.3106 141.506 58.3398C142.817 59.9998 144.487 61.3408 146.39 62.2618C146.532 63.5549 146.843 64.8239 147.315 66.0358C142.45 67.9783 140.285 65.1108 139.962 64.9535ZM150.951 53.8535C150.599 53.7795 150.368 54.094 150.211 54.4178C149.934 55.1367 149.738 55.8845 149.628 56.647C149.49 56.2396 149.29 55.8559 149.036 55.5093C148.985 55.4382 148.92 55.3783 148.845 55.3334C148.77 55.2885 148.686 55.2596 148.6 55.2483C148.513 55.237 148.425 55.2437 148.341 55.2679C148.257 55.2921 148.178 55.3333 148.111 55.389C147.454 55.9903 147.935 57.239 148.287 58.0438C148.518 58.5895 148.509 58.5155 148.453 58.6173C147.787 59.4454 147.189 60.3271 146.668 61.2535L142.413 57.6645L149.813 48.914L154.197 52.5493L153.069 54.3438C152.801 54.3438 152.384 54.4825 151.746 55.8978C151.7 55.241 151.589 53.983 150.951 53.8535ZM146.548 61.5033C146.509 61.636 146.484 61.7724 146.474 61.9103C144.886 60.7587 143.361 59.5237 141.904 58.2103L141.987 58.0345L146.548 61.5033ZM153.023 51.0785C152.616 50.7085 149.878 48.3035 149.878 48.3035C149.824 48.2521 149.753 48.2233 149.679 48.2233C149.605 48.2233 149.533 48.2521 149.48 48.3035C149.48 48.3035 144.753 53.9183 144.698 53.9738C143.486 53.5668 142.848 51.2913 142.487 50.0425C143.034 50.2221 143.598 50.3431 144.17 50.4033C144.196 50.3961 144.218 50.3809 144.233 50.3601C144.249 50.3392 144.258 50.3138 144.258 50.2876C144.258 50.2615 144.249 50.2361 144.233 50.2152C144.218 50.1944 144.196 50.1792 144.17 50.172C141.072 49.654 138.87 47.2768 137.464 44.4463C136.878 43.268 136.428 42.0266 136.123 40.7463C136.114 40.6933 136.091 40.6439 136.055 40.6042C136.019 40.5644 135.972 40.536 135.92 40.5223C135.868 40.5086 135.813 40.5102 135.762 40.527C135.711 40.5438 135.666 40.5749 135.633 40.6168C135.568 40.6815 132.941 43.7063 130.656 45.88C130.268 46.435 129.953 49.2193 129.879 50.0055C129.703 51.8555 129.648 53.576 129.629 55.2688C128.233 56.6655 124.949 56.4435 122.988 56.092C127.696 51.8 125.837 43.9653 128.834 40.5983C129.543 39.7716 130.489 39.1837 131.544 38.9148C132.604 38.6636 133.713 38.7149 134.745 39.0628C134.786 39.0806 134.83 39.0898 134.874 39.0898C134.919 39.0898 134.963 39.0806 135.004 39.0628C135.985 38.5192 137.047 38.1352 138.149 37.925C139.236 37.693 140.352 37.6214 141.46 37.7123C143.179 37.7967 144.876 38.1269 146.501 38.6928C151.7 40.7 153.18 45.5748 153.041 51.0785H153.023ZM156.871 91.2883C154.586 87.986 149.276 70.5498 148.139 66.7573C147.343 64.0933 146.612 62.382 147.214 61.272C148.139 59.6255 148.99 59.0798 148.98 58.5433C148.971 58.0068 147.852 56.24 148.453 55.7683C148.906 56.018 149.378 57.8865 149.452 58.0715C149.475 58.135 149.519 58.1889 149.576 58.2241C149.634 58.2593 149.702 58.2738 149.769 58.2652C149.836 58.2565 149.898 58.2253 149.944 58.1766C149.991 58.1279 150.02 58.0647 150.026 57.9975C150.068 56.7715 150.338 55.564 150.821 54.4363C151.293 55.1578 150.969 57.1465 150.775 57.9235C150.754 57.9953 150.761 58.0726 150.796 58.1389C150.831 58.2052 150.891 58.2551 150.962 58.2781C151.033 58.3011 151.111 58.2952 151.178 58.2618C151.245 58.2284 151.296 58.17 151.321 58.0993C151.692 56.9789 152.215 55.9145 152.875 54.9358C152.923 55.1449 152.945 55.3594 152.939 55.574C152.939 56.98 150.978 59.829 150.109 60.939C150.069 60.9884 150.049 61.0512 150.053 61.1148C150.221 63.6368 151.28 66.017 153.041 67.8303C155.761 70.448 166.426 79.4298 169.071 83.4258C165.595 86.8576 161.448 89.5343 156.889 91.2883H156.871ZM153.365 56.5545C153.875 56.3064 154.455 56.2427 155.006 56.3742C155.558 56.5058 156.047 56.8245 156.39 57.276C157.759 58.9688 157.537 63.5013 162.467 61.8363C164.039 61.309 166.084 60.384 166.972 58.978C167.299 60.5183 167.193 62.1191 166.666 63.603C165.909 65.367 164.534 66.7943 162.8 67.6175C159.33 65.6491 155.42 64.5865 151.432 64.528C150.989 63.4767 150.714 62.3624 150.618 61.2258C151.763 59.8154 152.689 58.2407 153.365 56.5545ZM163.05 67.747C164.418 67.1934 165.59 66.2432 166.414 65.0185C167.238 63.7937 167.677 62.3505 167.675 60.8743C167.701 59.8787 167.567 58.8855 167.277 57.9328C167.26 57.8626 167.217 57.8015 167.157 57.7617C167.096 57.7219 167.023 57.7062 166.952 57.7179C166.881 57.7296 166.817 57.7677 166.772 57.8247C166.728 57.8817 166.707 57.9533 166.713 58.0253C166.713 58.0253 166.713 58.7745 165.436 59.718C164.465 60.4084 163.391 60.9421 162.254 61.2998C157.879 62.8168 158.314 58.904 156.704 57.017C156.327 56.5474 155.803 56.2169 155.217 56.0779C154.631 55.9388 154.015 55.9991 153.467 56.2493C153.578 55.7498 153.624 54.7415 153.245 54.3993L154.53 52.5493C154.557 52.5165 154.571 52.4757 154.571 52.4336C154.571 52.3916 154.557 52.3508 154.53 52.318L153.319 51.2358C153.615 45.436 152.125 40.2745 146.723 38.1655C145.056 37.5683 143.312 37.2162 141.543 37.1203C139.247 36.9298 136.944 37.3949 134.902 38.4615C133.798 38.1184 132.623 38.0768 131.498 38.3413C130.326 38.6328 129.273 39.2789 128.482 40.1913C125.245 43.8913 127.354 51.8648 122.498 56.0458C122.469 56.0707 122.449 56.103 122.438 56.1391C122.427 56.1752 122.426 56.2136 122.436 56.25C122.445 56.2864 122.465 56.3195 122.492 56.3455C122.519 56.3715 122.553 56.3894 122.59 56.3973C121.97 56.2678 127.502 57.5073 129.703 55.5833V56.1938C129.703 60.754 132.238 63.1313 136.345 63.3903C137.473 63.4543 138.605 63.3703 139.712 63.1405V64.8795C138.935 65.0738 130.221 67.3678 123.654 71.854C120.315 74.1388 117.53 76.997 116.596 80.4195C112.538 75.4466 109.891 69.475 108.931 63.1288C107.971 56.7827 108.733 50.2951 111.139 44.3445L113.701 45.7968C113.756 45.8248 113.819 45.8344 113.879 45.824C113.94 45.8136 113.996 45.7839 114.039 45.7392C114.081 45.6945 114.108 45.6373 114.116 45.576C114.123 45.5147 114.111 45.4526 114.08 45.399L112.11 42.1985C114.269 37.8573 117.291 34.0018 120.99 30.8674C124.689 27.7329 128.988 25.3853 133.625 23.968C138.261 22.5506 143.138 22.0932 147.958 22.6237C152.777 23.1542 157.438 24.6614 161.655 27.0534C165.872 29.4453 169.558 32.6718 172.487 36.5358C175.416 40.3998 177.526 44.8202 178.689 49.5271C179.853 54.234 180.044 59.1286 179.253 63.912C178.461 68.6955 176.703 73.2674 174.085 77.3485C171.048 73.4782 167.303 70.2199 163.05 67.747Z" fill="#5C3783"/>
   <path fill-rule="evenodd" clip-rule="evenodd" d="M149.554 49.7928C149.488 49.8119 149.428 49.8455 149.377 49.8912C149.327 49.9368 149.287 49.9933 149.261 50.0565C149.235 50.1196 149.224 50.1877 149.228 50.2558C149.233 50.3238 149.252 50.39 149.285 50.4495C149.398 50.6793 149.56 50.8813 149.76 51.0412C149.96 51.2011 150.193 51.3149 150.442 51.3745C150.793 51.4208 151.034 51.2173 151.015 50.9398C150.997 50.6623 149.97 49.7003 149.554 49.7928ZM150.479 50.8288C150.312 51.0045 149.6 50.4773 149.776 50.2553C149.951 50.0333 150.645 50.6808 150.516 50.875L150.479 50.8288Z" fill="#5C3783"/>
   <path fill-rule="evenodd" clip-rule="evenodd" d="M100.187 30.3863C100.371 30.4675 100.537 30.5858 100.674 30.7337C100.811 30.8817 100.916 31.0563 100.982 31.2465C101.371 32.3935 99.0674 32.9485 97.8741 33.152C95.0828 33.5336 92.251 33.5118 89.4659 33.0873C89.4388 33.0831 89.414 33.0698 89.3955 33.0497C89.377 33.0295 89.3659 33.0036 89.3641 32.9763L89.2809 26.825C89.2817 26.7822 89.2966 26.7408 89.3234 26.7073C89.3502 26.6739 89.3873 26.6502 89.4289 26.64C90.538 26.2942 91.5911 25.7894 92.5554 25.1415C94.0724 24.05 93.9521 23.3378 94.3314 21.3305C94.4886 20.4055 94.7569 19.8413 95.6541 20.0355C97.0416 20.3315 96.5791 24.1425 96.0611 25.493C97.3654 25.493 100.936 25.493 101.028 26.8065C101.035 27.0623 100.958 27.3132 100.809 27.5217C100.661 27.7301 100.449 27.8849 100.205 27.9628C100.475 28.0283 100.714 28.1844 100.882 28.4049C101.05 28.6255 101.138 28.8972 101.13 29.1745C101.102 29.4445 100.998 29.7011 100.832 29.9153C100.665 30.1295 100.441 30.2926 100.187 30.3863ZM98.5494 27.75C99.1876 27.75 100.492 27.5003 100.399 26.825C100.399 26.4735 99.1414 26.2515 98.7806 26.2053C97.713 26.0728 96.637 26.0203 95.5616 26.048C95.5091 26.0499 95.457 26.0372 95.4112 26.0115C95.3653 25.9857 95.3274 25.9479 95.3016 25.902C95.2758 25.8562 95.2632 25.8041 95.265 25.7516C95.2668 25.699 95.283 25.648 95.3119 25.604C96.0241 24.5495 96.2369 20.7108 95.4876 20.5535C95.1731 20.4795 95.0529 20.5535 94.9326 20.9143C94.7476 21.4693 94.6829 22.3943 94.3591 23.5783C93.8781 25.2988 91.3529 26.4365 89.6324 26.9545L89.5491 32.856C91.8853 33.116 94.243 33.116 96.5791 32.856C97.8185 32.7803 99.0284 32.4463 100.131 31.8755C100.372 31.709 100.51 31.561 100.446 31.3853C100.318 31.1376 100.118 30.9353 99.8708 30.8061C99.6241 30.677 99.3435 30.6272 99.0674 30.6638C98.792 30.7082 98.5138 30.7329 98.2349 30.7378C98.1687 30.7344 98.1059 30.7074 98.0578 30.6617C98.0098 30.616 97.9797 30.5546 97.973 30.4887C97.9663 30.4227 97.9834 30.3566 98.0213 30.3021C98.0591 30.2477 98.1152 30.2086 98.1794 30.192C98.4329 30.1483 98.6898 30.1266 98.9471 30.1273C99.5854 30.0255 100.455 29.7573 100.492 29.1005C100.492 28.7675 100.27 28.5825 99.9739 28.4715C99.4119 28.2966 98.8211 28.2337 98.2349 28.2865C98.1665 28.2743 98.1046 28.2384 98.06 28.1851C98.0154 28.1318 97.991 28.0646 97.991 27.9951C97.991 27.9257 98.0154 27.8584 98.06 27.8051C98.1046 27.7519 98.1665 27.716 98.2349 27.7038L98.5494 27.75ZM62.5484 118.076C62.8999 118.076 63.1866 118.594 63.1866 119.242C63.1866 119.889 62.8999 120.398 62.5484 120.398C62.1969 120.398 61.9009 119.88 61.9009 119.242C61.9009 118.604 62.1969 118.076 62.5484 118.076Z" fill="#5C3783"/>
   <path d="M63.1958 140.933C63.1958 141.242 63.263 141.539 63.3827 141.757C63.5024 141.976 63.6648 142.099 63.8341 142.099C64.0033 142.099 64.1657 141.976 64.2854 141.757C64.4051 141.539 64.4723 141.242 64.4723 140.933C64.4723 140.624 64.4051 140.327 64.2854 140.109C64.1657 139.89 64.0033 139.768 63.8341 139.768C63.6648 139.768 63.5024 139.89 63.3827 140.109C63.263 140.327 63.1958 140.624 63.1958 140.933Z" fill="#5C3783"/>
   <path fill-rule="evenodd" clip-rule="evenodd" d="M132.192 51.2543C132.192 51.0138 132.192 50.7733 132.238 50.5235C132.247 50.4252 132.22 50.3269 132.162 50.247C132.105 50.167 132.02 50.1108 131.923 50.0888C131.876 50.0837 131.829 50.0881 131.784 50.1017C131.739 50.1154 131.697 50.138 131.66 50.1682C131.624 50.1984 131.594 50.2356 131.573 50.2776C131.551 50.3195 131.538 50.3654 131.535 50.4125C131.535 50.6808 131.535 50.949 131.479 51.208C131.474 51.3081 131.508 51.4063 131.573 51.4822C131.639 51.558 131.731 51.6056 131.831 51.615C131.879 51.6163 131.926 51.6078 131.97 51.5901C132.015 51.5725 132.055 51.5459 132.089 51.5122C132.123 51.4784 132.149 51.4381 132.167 51.3938C132.184 51.3495 132.193 51.302 132.192 51.2543ZM138.25 51.504V50.7733C138.262 50.6746 138.236 50.5753 138.178 50.4949C138.119 50.4144 138.033 50.3586 137.936 50.3385C137.889 50.3334 137.842 50.3378 137.796 50.3515C137.751 50.3651 137.709 50.3877 137.673 50.4179C137.637 50.4481 137.607 50.4853 137.585 50.5273C137.564 50.5693 137.551 50.6152 137.547 50.6623C137.518 50.9264 137.503 51.192 137.501 51.4578C137.493 51.5569 137.525 51.6552 137.589 51.7313C137.653 51.8074 137.744 51.8553 137.843 51.8648C137.895 51.873 137.947 51.8698 137.997 51.8552C138.047 51.8407 138.093 51.8153 138.132 51.7807C138.171 51.7462 138.202 51.7035 138.222 51.6556C138.243 51.6078 138.252 51.556 138.25 51.504ZM144.143 130.212C146.585 130.962 147.648 134.532 146.529 138.195C145.41 141.858 142.524 144.226 140.054 143.486C137.584 142.746 136.539 139.166 137.658 135.503C138.778 131.84 141.701 129.5 144.143 130.212ZM65.5454 72.2148V71.003C65.5516 70.8381 65.4963 70.6769 65.3904 70.5504C65.2844 70.4239 65.1353 70.3413 64.9719 70.3185C64.8928 70.3134 64.8134 70.3247 64.7389 70.3518C64.6643 70.3789 64.5962 70.4212 64.5388 70.476C64.4815 70.5307 64.4361 70.5968 64.4055 70.67C64.375 70.7432 64.36 70.822 64.3614 70.9013V72.224C64.366 72.3878 64.4324 72.5438 64.5474 72.6605C64.6625 72.7773 64.8174 72.846 64.9812 72.853C65.061 72.8508 65.1396 72.8323 65.212 72.7985C65.2844 72.7646 65.349 72.7163 65.4019 72.6565C65.4549 72.5966 65.4949 72.5265 65.5196 72.4505C65.5443 72.3745 65.5531 72.2943 65.5454 72.2148ZM75.7574 72.3258V71.114C75.7655 70.9496 75.7108 70.7884 75.6042 70.6629C75.4977 70.5375 75.3474 70.4574 75.1839 70.4388C75.1052 70.4335 75.0262 70.4449 74.9522 70.4721C74.8781 70.4993 74.8105 70.5417 74.7539 70.5966C74.6972 70.6515 74.6527 70.7177 74.6232 70.7909C74.5937 70.8641 74.5799 70.9426 74.5827 71.0215V72.335C74.5872 72.4988 74.6537 72.6548 74.7687 72.7715C74.8837 72.8883 75.0387 72.957 75.2024 72.964C75.2815 72.9606 75.359 72.9411 75.4303 72.9068C75.5016 72.8724 75.5652 72.8239 75.6171 72.7642C75.6691 72.7045 75.7083 72.6348 75.7324 72.5594C75.7565 72.484 75.765 72.4045 75.7574 72.3258Z" fill="#5C3783"/>
   <path fill-rule="evenodd" clip-rule="evenodd" d="M172.614 105.321L122.766 109.539C122.715 109.543 122.666 109.561 122.625 109.592C122.584 109.624 122.552 109.666 122.535 109.714L107.106 151.913C105.783 150.202 103.091 149.406 100.936 149.138C100.233 130.462 94.5442 112.138 79.291 101.204C74.4289 97.6284 68.8285 95.1854 62.9 94.054V90.65C65.3975 90.428 75.554 92.3058 77.7925 83.4998C83.065 81.067 81.7052 70.8458 81.2705 68.2743C82.1384 63.3332 81.0179 58.2494 78.1532 54.131C77.6741 53.3627 77.0449 52.6989 76.3032 52.1793C75.0175 51.4763 73.9815 51.726 72.6032 51.9758C72.446 50.9398 71.595 47.212 67.0532 44.4555C58.0807 39.0258 49.0805 46.3055 47.1472 50.3478C46.1181 52.9005 45.3736 55.559 44.9272 58.275C43.888 60.1355 43.1512 62.1494 42.7442 64.2413C37.7215 65.8045 36.519 72.4183 37.3792 77.6353C38.3505 83.5553 42.2817 86.1915 47.9705 85.285L46.1205 90.761C44.8255 91.0015 29.7942 93.9153 18.5185 103.119C13.0687 107.339 9.0798 113.163 7.11324 119.769C0.314491 144.152 7.11324 172.79 32.782 173.169C53.132 173.447 62.2062 169.941 68.857 168.045V172.513C68.8557 172.528 68.8576 172.543 68.8626 172.558C68.8676 172.572 68.8756 172.586 68.886 172.597C68.8965 172.608 68.9092 172.617 68.9233 172.624C68.9374 172.63 68.9526 172.633 68.968 172.633L101.685 173.105L156.926 166.287C156.994 166.278 157.057 166.246 157.102 166.195C157.148 166.144 157.174 166.078 157.176 166.01V160.95C158.869 155.594 172.975 105.654 172.975 105.654C172.98 105.606 172.974 105.558 172.957 105.513C172.941 105.469 172.914 105.428 172.879 105.396C172.844 105.364 172.801 105.34 172.755 105.327C172.709 105.314 172.661 105.312 172.614 105.321ZM44.0392 63.973C43.728 64.0193 43.4193 64.081 43.1142 64.158C43.4796 62.5571 44.0322 61.0047 44.7607 59.533C44.4575 61.0045 44.2015 62.4852 43.993 63.973H44.0392ZM79.0042 101.648C94.054 112.415 99.8537 130.666 100.742 149.082C98.788 148.808 96.7996 148.915 94.8865 149.397C91.6314 150.326 88.7431 152.239 86.617 154.873C86.3765 143.773 84.952 128.973 84.767 126.633C84.7721 126.615 84.773 126.596 84.7696 126.577C84.7662 126.559 84.7586 126.542 84.7474 126.527C84.7362 126.512 84.7217 126.5 84.705 126.492C84.6883 126.484 84.67 126.479 84.6514 126.479C84.6328 126.479 84.6144 126.484 84.5977 126.492C84.5811 126.5 84.5666 126.512 84.5554 126.527C84.5442 126.542 84.5366 126.559 84.5331 126.577C84.5297 126.596 84.5306 126.615 84.5357 126.633C84.3877 124.718 86.284 155.557 86.3857 160.543C84.8353 159.544 83.0402 158.991 81.1965 158.943C75.5262 158.619 78.5695 160.358 70.3092 158.619C66.8529 157.677 63.4553 156.531 60.1342 155.187V141.784C60.1342 138.843 58.9317 100.02 58.8855 99.1045L64.4355 102.971C64.4828 103.004 64.5388 103.022 64.5964 103.022C64.654 103.023 64.7104 103.006 64.7583 102.974C64.8062 102.942 64.8434 102.897 64.865 102.843C64.8866 102.79 64.8917 102.731 64.8795 102.675L63.1497 94.6553C68.8641 95.8118 74.2583 98.198 78.958 101.648H79.0042ZM64.1395 102.092L59.0057 98.5403C58.9539 98.5097 58.9096 98.4677 58.8763 98.4176C58.8431 98.3674 58.8216 98.3103 58.8136 98.2506C58.8056 98.1909 58.8112 98.1302 58.8301 98.0731C58.8489 98.0159 58.8805 97.9637 58.9225 97.9205L62.6225 94.831L64.1395 102.092ZM61.901 44.918C66.1097 45.3158 67.451 49.6818 67.7932 50.949C65.3396 50.0641 62.7044 49.8035 60.125 50.1905C56.425 50.6068 52.725 51.2913 49.5152 53.3448C52.4752 45.0753 58.275 44.5665 61.901 44.918ZM47.7855 63.9268C47.8579 60.6164 48.3617 57.3296 49.284 54.1495C52.4845 51.9018 56.3325 51.1803 60.2267 50.7548C67.1365 50.0055 68.9402 52.6603 70.9753 52.6973C73.0102 52.7343 74.3145 51.7723 75.9887 52.6973C76.6633 53.1605 77.244 53.7475 77.7 54.427C80.5274 58.3796 81.7294 63.2669 81.0577 68.08C80.4428 69.0291 79.6553 69.8543 78.736 70.5128C78.4492 64.6575 76.8397 58.9133 71.6135 56.2215C71.8725 55.981 72.113 55.7313 72.3257 55.4908C72.3376 55.4804 72.347 55.4675 72.3535 55.4532C72.36 55.4388 72.3633 55.4233 72.3633 55.4075C72.3633 55.3918 72.36 55.3762 72.3535 55.3619C72.347 55.3475 72.3376 55.3347 72.3257 55.3243C72.1037 55.1208 72.113 55.7775 69.6987 57.1743C65.9981 59.1185 62.0752 60.6063 58.016 61.605C57.9483 61.6225 57.8893 61.6641 57.8501 61.722C57.8109 61.7799 57.7943 61.8502 57.8032 61.9195C58.0437 63.8805 58.2102 68.08 57.1187 69.7265C56.2803 70.88 55.2088 71.8443 53.9737 72.557C53.9261 71.3488 53.787 70.146 53.5575 68.9588C52.725 64.9073 50.2737 64.0748 47.7855 63.9268ZM50.875 68.672C50.5386 67.4475 49.9771 66.2963 49.2192 65.2773C49.1082 65.1663 49.284 65.009 49.3857 65.12C49.9392 65.7292 50.3976 66.4184 50.7455 67.1643C52.159 70.334 52.4843 73.8822 51.6705 77.256C51.172 79.4785 50.395 81.6291 49.358 83.657C49.3458 83.6843 49.3238 83.706 49.2965 83.718C49.2691 83.7299 49.2383 83.7313 49.21 83.7218C49.0157 83.6293 49.21 83.5738 49.9685 81.4C51.4022 77.2468 52.096 72.8808 50.875 68.672ZM48.2757 85.2388C52.725 84.3138 54.1402 78.1348 53.983 72.8623C55.355 72.1742 56.5584 71.192 57.5072 69.9855C58.756 68.2188 58.6265 64.2598 58.4322 62.1045C62.3357 61.05 68.339 59.0335 71.4192 56.425C79.6055 60.6615 78.8192 72.7883 77.5705 81.955C77.4691 83.2314 77.0843 84.469 76.4443 85.5779C75.8042 86.6868 74.925 87.639 73.8705 88.3653C70.5127 90.5853 65.8785 90.1413 63.751 90.0765C63.2145 90.0765 62.5485 90.021 62.345 90.3355C62.2802 90.4373 62.345 90.1598 62.345 94.3408L58.497 97.6338L46.3702 90.872L48.2757 85.2388ZM58.1825 98.1888C58.189 98.2597 58.1799 98.3312 58.156 98.3983C58.132 98.4654 58.0937 98.5265 58.0437 98.5773L53.9922 103.091C50.7834 99.581 48.2188 95.5322 46.4165 91.131C58.5802 98.3183 58.164 97.865 58.1825 98.235V98.1888ZM53.6222 171.264C46.7164 172.326 39.73 172.775 32.745 172.605C7.49249 172.207 0.952741 143.828 7.61274 119.88C9.52749 112.952 13.7825 107.587 18.7867 103.471C29.9422 94.35 44.8347 91.3253 46.1297 91.0755C46.9637 93.3838 48.0331 95.6 49.321 97.6893C50.6172 99.8404 52.1197 101.86 53.8072 103.72C53.832 103.746 53.8623 103.767 53.896 103.779C53.9296 103.792 53.9656 103.797 54.0015 103.794C54.168 103.794 53.7425 104.201 58.2935 99.1693C58.2935 100.094 59.496 153.347 59.5145 154.965C52.8452 152.625 46.25 150.498 39.1737 150.775C39.257 144.198 34.484 132.22 31.9772 126.586C31.963 126.562 31.9404 126.543 31.9137 126.534C31.8869 126.524 31.8577 126.524 31.8311 126.534C31.8045 126.544 31.7823 126.563 31.7684 126.588C31.7545 126.613 31.7499 126.642 31.7552 126.67C34.04 132.479 38.48 144.513 38.739 150.784C35.8808 150.901 33.0643 151.511 30.414 152.588C30.3858 152.599 30.3631 152.621 30.351 152.649C30.3388 152.676 30.3382 152.708 30.3492 152.736C30.3603 152.764 30.3821 152.787 30.4098 152.799C30.4376 152.811 30.469 152.812 30.4972 152.801C44.3075 147.399 61.05 157.028 69.634 159.1C68.0362 159.877 66.7578 161.185 66.0172 162.8C65.268 164.743 65.897 166.5 67.303 168.036C62.8334 169.444 58.2714 170.542 53.65 171.319L53.6222 171.264ZM67.5712 167.915C67.0044 167.251 66.6174 166.452 66.4473 165.595C66.2773 164.739 66.3299 163.853 66.6 163.022C67.3737 161.437 68.5794 160.104 70.078 159.174L72.0205 159.553C68.9495 161.329 67.5342 164.484 69.9855 167.323C69.19 167.518 68.45 167.74 67.5712 167.971V167.915ZM69.6895 167.74C71.1234 167.329 72.5905 167.044 74.074 166.889C81.7792 166.176 80.1882 165.52 81.6867 166.167C82.259 166.489 82.7105 166.989 82.9725 167.592L69.6895 167.74ZM86.2377 167.564H85.47C85.3682 166.241 84.0177 164.271 81.77 163.411C81.7421 163.405 81.7132 163.41 81.6885 163.424C81.6637 163.438 81.6446 163.46 81.6347 163.486C81.6247 163.513 81.6244 163.542 81.634 163.569C81.6435 163.596 81.6622 163.618 81.6867 163.633C82.557 163.931 83.3349 164.45 83.9445 165.139C84.5541 165.828 84.9745 166.664 85.1647 167.564H83.3147C83.0169 166.841 82.4863 166.239 81.807 165.853C80.216 165.14 81.696 165.853 74.0462 166.491C72.7569 166.614 71.4795 166.84 70.226 167.166C69.6261 166.423 69.2867 165.504 69.2599 164.55C69.2332 163.596 69.5206 162.659 70.078 161.884C70.7239 160.984 71.511 160.193 72.409 159.544C78.07 160.525 76.109 159.146 81.141 159.405C82.7266 159.435 84.2815 159.848 85.6735 160.608C87.0142 161.459 88.1132 162.641 88.8647 164.04C89.1298 164.403 89.2782 164.839 89.2902 165.288C89.2902 166.065 88.7722 165.723 88.3005 165.103C87.2357 163.91 85.9865 162.895 84.6005 162.097C84.0778 161.587 83.4448 161.204 82.7505 160.978C82.7222 160.968 82.6914 160.97 82.664 160.982C82.6366 160.994 82.6147 161.015 82.6025 161.043C82.5007 161.292 83.102 161.154 84.1842 162.384C85.45 163.841 86.1752 165.69 86.2377 167.619V167.564ZM101.5 167.212L86.7002 167.555C86.7783 165.865 86.2756 164.201 85.2757 162.837C85.6827 163.124 86.136 163.466 86.58 163.836C88.1617 165.168 88.171 165.751 88.8185 166.056C89.6787 166.463 90.058 165.131 89.2162 163.845C88.5627 162.633 87.6799 161.558 86.617 160.682V155.197C88.1186 153.522 89.9112 152.134 91.908 151.099C93.8869 150.051 96.0883 149.492 98.3275 149.471C100.25 149.434 102.167 149.699 104.007 150.257C105.174 150.577 106.229 151.218 107.05 152.107C105.413 156.584 103.988 160.488 102.989 163.207C98.497 162.96 93.9925 163.043 89.5122 163.457C89.4943 163.452 89.4755 163.451 89.4572 163.454C89.4389 163.458 89.4217 163.465 89.4068 163.476C89.3919 163.488 89.3799 163.502 89.3716 163.519C89.3633 163.535 89.359 163.554 89.359 163.572C89.359 163.591 89.3633 163.609 89.3716 163.626C89.3799 163.643 89.3919 163.657 89.4068 163.668C89.4217 163.68 89.4389 163.687 89.4572 163.691C89.4755 163.694 89.4943 163.693 89.5122 163.688C96.7642 163.781 101.103 163.549 102.888 163.457C102.083 165.686 101.583 167.037 101.5 167.268V167.212ZM156.556 165.695L101.75 172.688L101.815 167.61C102.425 167.545 155.751 161.422 156.556 161.32V165.695ZM156.556 161.024C155.779 161.107 102.712 167.083 101.916 167.185C102.795 164.817 122.479 111.407 122.988 110.01L172.244 105.876C166.916 125.384 156.556 160.673 156.556 161.08V161.024Z" fill="#5C3783"/>
</svg>