<svg width="1440" height="479" viewBox="0 0 1440 479" fill="none" xmlns="http://www.w3.org/2000/svg">
<path d="M1437.65 320.98L1436.92 350.787C1307.3 347.07 1218.73 443.997 1117.42 529.254C1021.85 609.679 863.508 629.079 740.471 573.926C646.888 531.93 524.373 504.799 360.602 531.484C104.293 573.332 -13 467.56 -13 467.56L-11.7467 420.434C-11.7467 420.434 107.948 514.834 355.484 480.493C511.631 458.789 631.221 486.068 722.507 531.484C850.557 595.185 1002.84 563.52 1103.52 484.284C1140.81 454.923 1175.38 423.63 1215.39 401.926C1295.39 358.294 1361.19 318.75 1437.65 320.98Z" fill="url(#paint0_linear_247_1044)" fill-opacity="0.11"/>
<path d="M1439.21 261.144L1438.48 291.1C1369.65 289.167 1307.4 328.042 1208.91 363.497C1164.94 379.33 1128.38 410.251 1089.42 439.166C983.621 517.212 837.293 561.439 704.333 488.967C615.345 440.429 498.784 412.704 350.262 429.428C111.499 456.262 -10.5977 373.309 -10.5977 373.309L-9.34431 326.035C-9.34431 326.035 114.842 397.541 345.04 378.289C485.937 366.47 599.261 394.939 686.264 446.45C823.924 527.99 964.507 470.979 1075.43 394.047C1116.16 365.653 1155.54 335.698 1202.64 325.143C1321.09 298.458 1378.01 259.36 1439.21 261.144Z" fill="url(#paint1_linear_247_1044)" fill-opacity="0.11"/>
<path d="M1440.78 201.011L1440.05 231.115C1386.47 229.554 1335.71 270.212 1196.27 286.565C1146.45 292.437 1103.84 320.831 1061.43 348.705C945.394 424.448 810.45 494.467 668.299 403.635C583.281 349.374 473.09 319.939 339.922 326.926C118.184 338.522 -8.09082 278.612 -8.09082 278.612L-6.83747 231.189C-6.83747 231.189 121.526 279.355 334.804 275.638C460.244 273.408 566.987 303.958 650.23 360.895C796.663 461.167 926.28 377.917 1047.44 303.364C1091.62 276.01 1137.47 249.548 1190.01 247.987C1350.23 243.156 1394.82 199.673 1440.78 201.011Z" fill="url(#paint2_linear_247_1044)" fill-opacity="0.11"/>
<path d="M1442.35 140.655L1441.62 170.833C1403.39 169.718 1364.53 217.215 1183.63 209.336C1128.17 206.957 1079.4 231.115 1033.44 257.948C907.167 331.312 782.772 428.016 632.161 318.081C550.589 258.543 447.188 226.655 329.582 224.202C124.659 220.039 -5.68896 183.692 -5.68896 183.692L-4.43562 136.195C-4.43562 136.195 127.793 160.427 324.359 172.84C434.132 179.752 534.086 213.275 614.092 275.267C768.567 394.939 888.053 284.781 1019.45 212.532C1067.18 186.219 1118.77 164.44 1177.37 170.684C1378.11 192.017 1411.74 139.763 1442.35 140.655Z" fill="url(#paint3_linear_247_1044)" fill-opacity="0.11"/>
<path d="M1443.6 90.259L1443.08 111.815C1420.1 111.146 1391.06 168.752 1170.89 133.371C1109.06 123.41 1054.75 142.662 1005.35 168.529C868.835 239.514 753.945 363.497 595.918 233.791C517.375 169.346 421.181 134.114 319.137 122.816C131.031 101.929 -3.28662 90.1103 -3.28662 90.1103L-2.24216 51.2356C-2.24216 51.2356 134.059 50.4923 313.706 80.0758C408.021 95.6108 500.455 132.776 577.64 199.673C739.009 339.414 849.513 201.606 991.036 131.81C1042.21 106.537 1098.93 89.813 1164.31 103.415C1403.28 153.142 1428.35 89.813 1443.6 90.259Z" fill="url(#paint4_linear_247_1044)" fill-opacity="0.11"/>
<path d="M1444.64 51.384L1444.12 70.1896C1436.5 69.9666 1414.98 139.317 1157.73 74.798C1088.69 57.4791 1029.79 71.6018 976.832 96.4282C830.086 165.109 723.864 316.743 559.362 166.893C483.43 97.6174 394.965 58.371 308.275 38.7478C137.402 0.0960522 -1.30225 13.8472 -1.30225 13.8472L-0.362234 -22.2774C-0.362234 -22.2774 313.393 -82.3363 540.98 135.452C768.567 353.24 875.938 -31.7173 1151.15 47.5188C1426.26 126.755 1444.64 51.384 1444.64 51.384Z" fill="url(#paint5_linear_247_1044)" fill-opacity="0.11"/>
<path d="M1446.21 -10.0873L1445.48 18.8272C1445.48 18.8272 1412.89 82.0079 1146.14 15.7796C1118.25 8.8669 1091.83 6.71132 1066.86 8.34659C939.858 16.3743 857.346 82.8256 764.807 130.1C688.667 168.974 627.879 190.828 533.982 111.517C516.958 97.1713 498.68 84.0149 479.775 71.007C256.052 -83.0797 20.3185 -60.632 0.787109 -64.0512L1.72712 -102.183C40.7898 -95.3442 243.623 -89.0262 469.435 53.6881C489.906 66.6216 509.438 78.5145 526.776 91.2993C622.448 161.616 671.537 128.687 751.961 89.5896C849.409 42.1669 927.638 -1.83668 1061.33 -16.3311C1086.4 -19.0813 1113.24 -18.115 1141.13 -12.3172C1399.21 41.1263 1446.21 -10.0873 1446.21 -10.0873Z" fill="url(#paint6_linear_247_1044)" fill-opacity="0.11"/>
<path d="M1447.78 -70.4435L1446.94 -39.8193C1446.94 -39.8193 1385.01 -0.126923 1135.9 -41.1573C1108.02 -45.7658 1080.96 -45.5428 1055.58 -41.6776C915.209 -20.5678 841.366 0.83934 739.009 48.3364C654.408 87.5829 616.912 131.661 519.568 70.2639C501.813 59.04 481.132 48.3364 459.094 35.4773C232.134 -96.3847 61.2606 -130.948 2.771 -141.132L3.81545 -180.973C81.9409 -167.37 221.376 -105.156 448.963 16.3744C472.672 29.0105 494.397 38.5992 512.675 48.2621C611.481 100.739 637.592 45.4376 726.371 6.0425C833.637 -41.6776 903.093 -40.1167 1050.26 -68.1392C1075.74 -72.9707 1103 -74.4573 1131.1 -71.0381C1370.59 -41.8263 1447.78 -70.4435 1447.78 -70.4435Z" fill="url(#paint7_linear_247_1044)" fill-opacity="0.11"/>
<path d="M1449.45 -134.219L1448.61 -101.885C1448.61 -101.885 1355.87 -83.8972 1125.98 -101.588C1097.78 -103.743 1070.41 -101.068 1044.62 -95.2697C890.873 -60.2601 825.699 -84.7892 713.524 -36.9948C620.463 2.54898 605.84 69.0747 505.468 25.5171C486.772 17.4151 464.108 8.94141 438.623 -3.54608C211.14 -115.265 102.412 -204.684 4.85986 -221.706L5.90432 -263.256C123.092 -242.741 201.427 -126.637 428.387 -24.4329C455.648 -12.1684 479.252 -4.73538 498.366 1.80569C600.096 36.5923 603.438 -41.2316 700.677 -80.924C817.865 -128.941 878.757 -81.0726 1039.08 -123.292C1064.98 -130.131 1092.56 -133.996 1120.97 -133.104C1341.03 -126.34 1449.45 -134.219 1449.45 -134.219Z" fill="url(#paint8_linear_247_1044)" fill-opacity="0.11"/>
<path d="M1451.12 -201.042L1450.28 -167.296C1450.28 -167.296 1326.2 -169.006 1115.95 -165.363C1087.44 -164.843 1059.76 -159.937 1033.65 -152.133C866.85 -102.48 810.136 -173.763 688.039 -125.597C586.622 -85.6812 594.456 3.51526 491.472 -22.5747C471.837 -27.5548 447.396 -33.9473 418.256 -45.9145C191.922 -139.199 143.668 -281.616 6.94873 -305.476L8.09763 -348.439C164.348 -321.16 182.731 -152.876 408.02 -68.1393C438.936 -56.4694 464.317 -50.9689 484.37 -47.624C588.711 -30.2307 569.598 -130.8 675.297 -170.938C802.303 -219.178 855.048 -124.407 1028.22 -181.567C1054.64 -190.264 1082.43 -196.359 1111.04 -198.292C1311.48 -211.82 1451.12 -201.042 1451.12 -201.042Z" fill="url(#paint9_linear_247_1044)" fill-opacity="0.11"/>
<defs>
<linearGradient id="paint0_linear_247_1044" x1="-12.9606" y1="463.036" x2="1437.69" y2="463.036" gradientUnits="userSpaceOnUse">
<stop stop-color="#0011A6"/>
<stop offset="0.552546" stop-color="#E6E6E6"/>
<stop offset="1" stop-color="#6500F7"/>
</linearGradient>
<linearGradient id="paint1_linear_247_1044" x1="-10.5583" y1="393.38" x2="1439.26" y2="393.38" gradientUnits="userSpaceOnUse">
<stop stop-color="#0011A6"/>
<stop offset="0.552546" stop-color="#E6E6E6"/>
<stop offset="1" stop-color="#6500F7"/>
</linearGradient>
<linearGradient id="paint2_linear_247_1044" x1="-8.05149" y1="323.761" x2="1440.83" y2="323.761" gradientUnits="userSpaceOnUse">
<stop stop-color="#0011A6"/>
<stop offset="0.552546" stop-color="#E6E6E6"/>
<stop offset="1" stop-color="#6500F7"/>
</linearGradient>
<linearGradient id="paint3_linear_247_1044" x1="-5.64966" y1="251.912" x2="1442.39" y2="251.912" gradientUnits="userSpaceOnUse">
<stop stop-color="#0011A6"/>
<stop offset="0.552546" stop-color="#E6E6E6"/>
<stop offset="1" stop-color="#6500F7"/>
</linearGradient>
<linearGradient id="paint4_linear_247_1044" x1="-3.24735" y1="170.805" x2="1443.65" y2="170.805" gradientUnits="userSpaceOnUse">
<stop stop-color="#0011A6"/>
<stop offset="0.552546" stop-color="#E6E6E6"/>
<stop offset="1" stop-color="#6500F7"/>
</linearGradient>
<linearGradient id="paint5_linear_247_1044" x1="-1.263" y1="100.43" x2="1444.69" y2="100.43" gradientUnits="userSpaceOnUse">
<stop stop-color="#0011A6"/>
<stop offset="0.552546" stop-color="#E6E6E6"/>
<stop offset="1" stop-color="#6500F7"/>
</linearGradient>
<linearGradient id="paint6_linear_247_1044" x1="0.826341" y1="31.4452" x2="1446.26" y2="31.4452" gradientUnits="userSpaceOnUse">
<stop stop-color="#0011A6"/>
<stop offset="0.552546" stop-color="#E6E6E6"/>
<stop offset="1" stop-color="#6500F7"/>
</linearGradient>
<linearGradient id="paint7_linear_247_1044" x1="2.81022" y1="-40.1641" x2="1447.82" y2="-40.1641" gradientUnits="userSpaceOnUse">
<stop stop-color="#0011A6"/>
<stop offset="0.552546" stop-color="#E6E6E6"/>
<stop offset="1" stop-color="#6500F7"/>
</linearGradient>
<linearGradient id="paint8_linear_247_1044" x1="4.89907" y1="-111.779" x2="1449.49" y2="-111.779" gradientUnits="userSpaceOnUse">
<stop stop-color="#0011A6"/>
<stop offset="0.552546" stop-color="#E6E6E6"/>
<stop offset="1" stop-color="#6500F7"/>
</linearGradient>
<linearGradient id="paint9_linear_247_1044" x1="6.98793" y1="-183.195" x2="1451.17" y2="-183.195" gradientUnits="userSpaceOnUse">
<stop stop-color="#0011A6"/>
<stop offset="0.552546" stop-color="#E6E6E6"/>
<stop offset="1" stop-color="#6500F7"/>
</linearGradient>
</defs>
</svg>
