<svg width="117" height="36" viewBox="0 0 117 36" fill="none" xmlns="http://www.w3.org/2000/svg">
   <path d="M18.5005 25.905L24.7255 29.67C25.8655 30.36 27.2605 29.34 26.9605 28.05L25.3105 20.97L30.8155 16.2C31.8205 15.33 31.2805 13.68 29.9605 13.575L22.7155 12.96L19.8805 6.27001C19.3705 5.05501 17.6305 5.05501 17.1205 6.27001L14.2855 12.945L7.04048 13.56C5.72048 13.665 5.18048 15.315 6.18548 16.185L11.6905 20.955L10.0405 28.035C9.74048 29.325 11.1355 30.345 12.2755 29.655L18.5005 25.905Z" fill="#F7D93B"/>
   <path d="M58.5005 25.905L64.7255 29.67C65.8655 30.36 67.2605 29.34 66.9605 28.05L65.3105 20.97L70.8155 16.2C71.8205 15.33 71.2805 13.68 69.9605 13.575L62.7155 12.96L59.8805 6.27001C59.3705 5.05501 57.6305 5.05501 57.1205 6.27001L54.2855 12.945L47.0405 13.56C45.7205 13.665 45.1805 15.315 46.1855 16.185L51.6905 20.955L50.0405 28.035C49.7405 29.325 51.1355 30.345 52.2755 29.655L58.5005 25.905Z" fill="#F7D93B"/>
   <path d="M98.5005 25.905L104.725 29.67C105.865 30.36 107.26 29.34 106.96 28.05L105.31 20.97L110.815 16.2C111.82 15.33 111.28 13.68 109.96 13.575L102.715 12.96L99.8805 6.27001C99.3705 5.05501 97.6305 5.05501 97.1205 6.27001L94.2855 12.945L87.0405 13.56C85.7205 13.665 85.1805 15.315 86.1855 16.185L91.6905 20.955L90.0405 28.035C89.7405 29.325 91.1355 30.345 92.2755 29.655L98.5005 25.905Z" fill="#F7D93B"/>
</svg>