<svg width="185" height="185" viewBox="0 0 185 185" fill="none" xmlns="http://www.w3.org/2000/svg">
   <path d="M120.361 60.3192C120.361 60.4302 120.361 63.011 120.999 61.8455C126.614 51.4392 123.034 44.659 124.459 41.0145C124.949 39.7472 125.384 38.702 126.827 38.8592C128.011 36.3708 129.849 34.251 132.145 32.7265C130.129 30.007 128.112 28.1015 124.819 27.0747C114.191 23.8095 109.797 36.852 112.85 42.9755C116.143 49.506 121.36 49.4875 120.361 60.3192ZM138.565 45.806C139.869 43.956 141.192 44.4185 141.016 43.808C140.84 43.1975 138.796 44.2427 138.241 45.5932C138.235 45.6336 138.24 45.6749 138.257 45.7123C138.273 45.7496 138.3 45.7814 138.334 45.8039C138.369 45.8263 138.408 45.8384 138.449 45.8388C138.49 45.8392 138.53 45.8278 138.565 45.806ZM51.6333 74.296C51.1338 72.261 50.7823 71.3452 50.2643 69.3102C49.5049 69.0979 48.7059 69.0693 47.9333 69.227C47.5251 70.6969 47.216 72.1926 47.0083 73.704C47.8422 74.417 48.7332 75.0605 49.6723 75.628C50.3799 75.2691 51.0388 74.8215 51.6333 74.296Z" fill="#5C3783"/>
   <path d="M61.3183 115.773C69.1623 118.271 74.703 119.621 83.1483 119.371C99.3635 118.881 97.9483 101.972 94.9883 90.1412C90.946 73.7225 77.5428 58.46 59.6903 58.3953C59.2062 55.2462 58.9804 52.0628 59.015 48.877C59.0613 46.102 61.605 43.6877 60.8095 41.7267C64.5095 39.6455 64.3985 35.9177 62.3635 35.8067C63.9915 35.1777 64.3985 32.7357 61.8363 33.0317C62.9648 32.2085 64.5188 30.3307 63.825 28.897C62.6595 26.5937 56.7858 29.5352 55.5 30.5712C55.7775 24.7715 49.1545 21.9595 49.395 27.454C47.1288 24.1887 43.327 25.3727 43.734 27.6112C42.7535 26.3347 39.6825 25.2802 40.4595 28.3327C38.887 27.2227 36.038 26.418 34.3083 27.528C30.4788 29.9792 36.3063 35.7142 38.591 37.1665C38.6746 38.4848 38.6746 39.8072 38.591 41.1255C37.851 41.2642 37.1203 41.4215 36.3895 41.588C36.0843 41.6527 35.7883 41.8377 35.9733 42.8922C36.1883 44.3789 36.6313 45.8235 37.2868 47.175C37.4557 47.3967 37.6742 47.5757 37.9248 47.6978C38.1754 47.8199 38.4511 47.8816 38.7298 47.878C39.1645 51.4115 40.8758 55.278 44.585 56.3417V59.7365C35.4553 60.717 25.345 62.9 19.1753 70.0503C3.78327 87.9675 1.45227 103.544 8.22327 121.11C11.3068 129.208 15.8287 136.682 21.571 143.171C21.719 143.338 22.2555 143.171 22.422 143.097C22.459 146.927 22.4899 150.76 22.5145 154.595C22.5145 155.844 23.1343 155.862 23.1158 154.641L22.8845 142.977C26.8723 141.655 30.4937 139.415 33.4573 136.438C34.003 135.91 33.818 135.512 34.1233 133.662C44.6729 135.032 55.3627 134.911 65.8785 133.302C65.786 133.875 65.6658 136.752 66.23 137.131C70.633 140.073 78.07 141.414 83.25 141.155C83.3148 147.038 83.4813 153.707 83.4258 159.433C83.4191 159.465 83.4197 159.499 83.4275 159.531C83.4353 159.563 83.4501 159.593 83.471 159.618C83.4918 159.644 83.518 159.664 83.5478 159.679C83.5776 159.693 83.6102 159.7 83.6432 159.7C83.6761 159.7 83.7087 159.693 83.7385 159.679C83.7683 159.664 83.7945 159.644 83.8153 159.618C83.8361 159.593 83.851 159.563 83.8588 159.531C83.8666 159.499 83.8672 159.465 83.8605 159.433C84.693 150.322 83.768 129.509 83.0465 121.268C75.7945 121.194 67.6823 120.342 61.0038 117.447C60.5783 117.234 60.8928 115.625 61.3183 115.773ZM36.482 42.1245L38.5725 41.7822C38.5062 43.6048 38.5371 45.4297 38.665 47.249C37.1018 47.175 36.852 43.8172 36.482 42.1245ZM66.4058 133.2C71.987 132.319 77.4918 131.008 82.8708 129.278L83.25 140.498C77.4596 140.734 71.7114 139.418 66.6 136.687C66.4597 135.53 66.3949 134.365 66.4058 133.2ZM66.3133 92.5C67.8085 92.2316 69.3272 92.1169 70.8458 92.1577C70.3052 89.1613 70.1838 86.1042 70.485 83.0742C70.5405 82.5655 71.41 82.6488 71.3453 83.1575C71.2133 86.1487 71.4119 89.1453 71.9373 92.093C75.4338 91.9635 78.81 92.0005 81.9735 92.1855C82.1134 92.1855 82.2475 92.2411 82.3463 92.3399C82.4452 92.4388 82.5008 92.5729 82.5008 92.7128C82.5008 92.8526 82.4452 92.9867 82.3463 93.0856C82.2475 93.1844 82.1134 93.24 81.9735 93.24C76.7888 92.9707 71.5923 93.0294 66.415 93.4157C65.823 93.425 65.786 92.5925 66.3133 92.5ZM62.1045 59.0705C59.977 63.0387 57.017 65.1847 52.984 66.822C52.2004 65.2775 51.0702 63.9352 49.6818 62.9C53.128 62.2364 56.3943 60.8492 59.2648 58.83C59.3388 58.8947 61.7623 59.0335 62.1045 59.0705ZM54.8988 36.075L54.9543 39.5807C54.094 39.5246 53.2306 39.5432 52.3735 39.6362C51.5443 39.4281 50.6801 39.3997 49.839 39.553C46.25 39.9168 42.6826 40.4225 39.1368 41.07V37.1757C43.1605 35.15 49.8668 35.224 54.8988 36.075ZM51.9943 40.1635C51.9914 41.4843 51.8769 42.8025 51.652 44.104C51.393 45.5562 50.727 45.7875 49.0343 45.954C46.8975 46.1945 46.7495 46.2222 46.0003 44.0115C45.6118 42.9293 45.3805 41.7915 45.0198 40.7462C46.139 40.5982 50.875 39.8582 51.9943 40.1542V40.1635ZM44.659 41.5232C44.5029 41.3907 44.3022 41.3227 44.0977 41.333C43.8931 41.3433 43.7003 41.4312 43.5583 41.5787C43.5398 41.3818 43.5398 41.1836 43.5583 40.9867L44.4833 40.8387C44.5288 41.067 44.5875 41.2925 44.659 41.514V41.5232ZM39.109 41.6897C40.4318 41.477 41.6343 41.255 42.9478 41.0515C42.9586 42.4425 42.8814 43.8328 42.7165 45.214C42.5038 46.7125 41.8933 47.138 39.2108 47.2675C39.1183 45.4082 39.0813 43.5397 39.1368 41.6805L39.109 41.6897ZM39.3033 47.878C43.3733 47.6837 43.1698 46.953 43.5583 42.5315C43.845 41.6805 44.4833 41.921 44.8718 42.402C44.9735 42.5315 45.14 43.327 45.436 44.252C46.361 46.9252 46.8605 46.7495 49.062 46.5922C50.7918 46.4535 51.837 46.4812 52.244 44.2797C52.5211 42.9787 52.6514 41.6508 52.6325 40.3207C53.423 40.2081 54.2241 40.1894 55.019 40.2652C55.1393 41.5232 55.4075 43.4195 57.2113 42.217C57.8218 41.8007 58.3028 40.811 59.1538 40.959C59.543 41.0725 59.8789 41.3212 60.1011 41.6604C60.3232 41.9995 60.417 42.4068 60.3655 42.809C60.236 44.5572 58.608 45.7967 58.423 48.2017C58.3441 51.5723 58.5639 54.9432 59.0798 58.275C55.9759 60.3059 52.5279 61.754 48.9048 62.5485C47.5833 61.9025 46.3416 61.1047 45.2048 60.1713C45.2048 60.1713 45.436 55.907 44.9458 55.7868C41.3753 54.9173 39.775 51.1987 39.331 47.8687L39.3033 47.878ZM44.5665 60.3378C45.5799 61.3508 46.7798 62.1581 48.1 62.715C46.8402 63.7451 45.8311 65.0483 45.1493 66.526C43.6042 64.8172 42.3538 62.8635 41.4493 60.7447C42.4853 60.5875 43.5398 60.4395 44.5943 60.3285L44.5665 60.3378ZM40.9313 60.791C40.9313 61.1518 44.6313 68.2928 45.3713 67.266L46.4813 65.3143L47.8873 68.0893C48.6895 67.8688 49.5363 67.8688 50.3385 68.0893L51.5873 65.675C52.1238 66.415 52.3088 67.525 53.095 67.303C55.6203 66.6463 60.9483 63.6863 62.6595 59.1075C63.381 59.2 64.0933 59.3202 64.8055 59.459C63.1868 63.3255 54.575 76.183 49.7003 76.9322C44.4925 74.925 39.072 64.491 38.0268 61.3367C38.998 61.124 39.9693 60.9482 40.959 60.7817L40.9313 60.791ZM34.1048 99.9C34.3196 100.262 34.606 100.577 34.9465 100.825C35.2888 101.056 35.3905 100.714 35.2888 100.594C33.8643 98.8732 34.114 96.8937 34.9095 96.2555C35.1203 96.6274 35.4444 96.9223 35.8345 97.0973L36.2415 97.2822C36.2849 97.2934 36.3307 97.2891 36.3713 97.2703C36.412 97.2515 36.4448 97.2193 36.4644 97.179C36.484 97.1388 36.4891 97.093 36.4788 97.0495C36.4685 97.0059 36.4435 96.9673 36.408 96.94L36.001 96.7087C34.484 95.7838 34.5765 91.5102 36.519 91.8525C36.26 92.7775 37.148 93.9152 37.814 94.424C38.8502 95.0856 40.0534 95.4385 41.2828 95.4415C42.365 95.5155 41.6435 92.4815 41.3475 91.945C41.0515 91.4085 39.7935 90.5482 39.8675 89.8822C39.9415 89.2162 41.7175 89.8822 42.3003 90.0025C44.6405 90.7055 44.585 93.388 45.917 95.6543C43.4935 98.938 41.9673 103.748 42.6148 107.855C38.7668 106.819 33.4388 104.793 34.1048 99.9ZM49.358 111L43.2068 108.16C42.994 103.535 43.6878 99.6502 46.657 95.8115C48.0723 95.7097 49.9778 95.3675 51.4855 95.164C49.6263 98.975 48.4238 106.736 49.358 111ZM27.5743 81.4C28.0589 79.4814 28.6771 77.5991 29.4243 75.7668C29.4689 75.6644 29.5498 75.5822 29.6514 75.5358C29.7529 75.4894 29.868 75.4821 29.9746 75.5153C30.0812 75.5486 30.1718 75.62 30.229 75.7159C30.2862 75.8118 30.306 75.9254 30.2845 76.035C29.7295 78.1162 28.9988 80.179 28.4345 82.2603C24.1938 99.0174 25.7087 116.714 32.7358 132.506C32.7454 132.53 32.7481 132.557 32.7435 132.582C32.739 132.608 32.7274 132.631 32.7101 132.651C32.6927 132.67 32.6704 132.684 32.6455 132.691C32.6206 132.698 32.5942 132.698 32.5693 132.691C31.8108 132.469 31.561 132.691 31.487 132.497C24.642 117.059 23.2175 98.4385 27.5743 81.4ZM21.8208 142.801C20.6156 141.342 19.4557 139.846 18.3428 138.315C22.9639 137.252 27.0827 134.641 30.0163 130.915L32.264 136.789C29.2594 139.521 25.6957 141.567 21.8208 142.783V142.801ZM32.8375 136.253C32.8375 136.253 32.1623 134.319 31.7645 133.302C32.373 133.443 32.9915 133.535 33.6145 133.579C33.3925 135.725 33.633 135.448 32.8375 136.253ZM32.8375 113.266C33.4665 110.297 34.114 107.337 34.7523 104.368C37.2498 107.661 42.3003 108.262 42.6148 108.475C43.0773 109.252 53.4373 113.239 54.9635 113.757C54.2557 115.676 53.7474 117.663 53.4465 119.686C45.88 118.132 39.923 115.847 32.8283 113.266H32.8375ZM58.1178 117.022C57.4083 116.945 56.6907 117.029 56.0181 117.268C55.3456 117.507 54.7354 117.893 54.2328 118.4L55.4445 113.914L58.6635 114.94C58.4693 115.625 58.275 116.328 58.1085 117.022H58.1178ZM46.3055 95.275C45.473 93.2585 44.9828 90.2152 42.7258 89.5122C41.8008 89.2162 39.6918 88.3467 39.368 89.7435C39.0443 91.1402 40.9035 91.4733 41.1718 93.1105C41.2641 93.6823 41.2827 94.2637 41.2273 94.8402C39.1553 94.6922 37.4718 94.1465 37.0648 91.9357C37.0648 91.9357 39.1368 82.7968 39.516 81.6683C45.7413 83.3888 54.6028 86.432 61.1333 88.541L59.94 93.61C59.4405 93.61 46.5183 94.9512 46.3055 95.275ZM60.458 93.573C60.5228 93.4898 61.6975 88.7815 61.6328 88.5965C62.5678 88.0638 63.5989 87.7212 64.6668 87.5882C65.0183 87.5882 64.9258 87.0055 64.5743 87.0425C63.5021 87.1346 62.4709 87.4974 61.5773 88.097C61.1333 87.579 41.847 81.622 39.7103 81.0577C40.3578 79.6425 45.3805 79.957 46.102 80.1327C52.8545 82.177 59.4683 84.2027 66.082 86.6817C65.712 87.0425 64.232 92.648 64.0748 93.3325C62.9 93.3602 61.6698 93.425 60.458 93.5452V93.573ZM149.175 148.536C149.156 148.542 149.139 148.551 149.125 148.564C149.11 148.577 149.099 148.593 149.092 148.611L148.749 148.869C144.874 151.996 145.049 148.731 144.938 153.92C144.874 157.62 144.79 157.546 145.012 157.694C145.063 157.728 145.121 157.748 145.182 157.753C145.243 157.757 145.304 157.746 145.359 157.72C145.414 157.694 145.461 157.654 145.496 157.604C145.531 157.554 145.552 157.496 145.558 157.435C145.623 156.408 145.947 152.338 145.919 151.321C147.112 151.117 149.388 149.795 149.674 149.119C149.716 149.046 149.735 148.962 149.727 148.878C149.719 148.794 149.685 148.715 149.631 148.651C149.576 148.587 149.503 148.542 149.421 148.521C149.339 148.501 149.253 148.506 149.175 148.536ZM128.14 132.34C127.696 132.414 127.863 133.154 127.992 134.902C123.525 137.575 120.148 139.397 114.302 140.369C114.214 140.389 114.136 140.44 114.084 140.514C114.031 140.587 114.007 140.677 114.016 140.767C114.025 140.857 114.067 140.94 114.133 141.001C114.199 141.063 114.286 141.098 114.376 141.099C118.622 140.544 125.051 138.398 128.621 135.549C129.084 135.142 128.89 132.22 128.14 132.34ZM146.15 53.65C146.262 53.7059 146.387 53.7326 146.513 53.7277C146.638 53.7228 146.76 53.6864 146.868 53.622C146.976 53.5575 147.066 53.467 147.129 53.3587C147.193 53.2505 147.228 53.128 147.232 53.0025C147.237 52.1732 147.181 51.3447 147.066 50.5235C147.001 50.135 146.418 50.1442 146.446 50.5235C146.525 51.3164 146.549 52.1137 146.52 52.91C146.428 52.9655 146.058 52.7712 145.947 53.0857C145.913 53.1891 145.915 53.3005 145.952 53.4026C145.989 53.5047 146.058 53.5917 146.15 53.65ZM142.145 54.9172C142.132 54.8526 142.099 54.7936 142.05 54.7487C142.002 54.7038 141.941 54.6752 141.875 54.667C141.81 54.6589 141.744 54.6715 141.686 54.7031C141.628 54.7347 141.581 54.7837 141.553 54.8433C141.248 55.4075 142.256 56.7487 143.662 56.7487C144.226 56.7487 144.42 56.462 144.337 56.1475C144.161 55.5 142.922 56.425 142.145 54.9172ZM149.711 49.1915C148.453 49.58 149.156 50.764 149.647 50.0517C149.71 49.9723 149.8 49.9177 149.899 49.8974C149.999 49.8771 150.103 49.8925 150.192 49.9408C150.254 49.9935 150.333 50.0225 150.414 50.0225C150.496 50.0225 150.574 49.9935 150.636 49.9408C150.932 49.6355 150.59 48.914 149.711 49.1915ZM141.914 50.1997C142.228 50.1997 142.413 49.8205 142.089 49.4412C141.368 48.6272 140.128 49.136 140.323 49.6725C140.338 49.7118 140.361 49.7476 140.39 49.7776C140.42 49.8076 140.455 49.8312 140.494 49.8468C140.533 49.8624 140.575 49.8698 140.617 49.8685C140.659 49.8671 140.701 49.8571 140.739 49.839C141.46 49.6817 141.525 50.1997 141.914 50.1997Z" fill="#5C3783"/>
   <path d="M50.3757 153.55C50.3017 151.829 50.829 151.82 49.1917 151.404C46.5647 150.701 46.241 149.646 45.8155 150.118C45.7825 150.151 45.7563 150.19 45.7384 150.233C45.7205 150.276 45.7113 150.322 45.7113 150.368C45.7113 150.414 45.7205 150.46 45.7384 150.503C45.7563 150.546 45.7825 150.585 45.8155 150.618C46.9086 151.46 48.1707 152.056 49.5155 152.366C49.3952 153.291 49.5155 158.203 50.4405 158.203C50.5389 158.202 50.6339 158.166 50.7084 158.102C50.7829 158.037 50.8322 157.948 50.8475 157.851C50.6147 156.427 50.4572 154.991 50.3757 153.55ZM46.019 47.8872C46.0745 47.3692 45.6952 47.286 45.1865 47.3322H45.02C44.6222 47.3322 44.8535 44.3907 44.8535 44.1132C44.855 44.027 44.8256 43.9431 44.7706 43.8767C44.7156 43.8103 44.6386 43.7658 44.5536 43.7513C44.4686 43.7367 44.3812 43.7531 44.3073 43.7975C44.2333 43.8418 44.1777 43.9112 44.1505 43.993C43.9196 45.0058 43.8633 46.0507 43.984 47.0825C43.9849 47.2376 44.0175 47.3908 44.0799 47.5328C44.1422 47.6748 44.2328 47.8026 44.3463 47.9082C44.4598 48.0139 44.5937 48.0953 44.7398 48.1474C44.8858 48.1994 45.041 48.2211 45.1957 48.211C45.5842 48.2295 45.982 48.2757 46.019 47.8872ZM50.977 47.6282C50.422 48.1092 51.6707 48.4237 50.052 49.062C49.4325 49.3076 48.7755 49.4452 48.1095 49.469C48.0249 49.4827 47.9479 49.526 47.8924 49.5913C47.8368 49.6565 47.8063 49.7394 47.8063 49.8251C47.8063 49.9108 47.8368 49.9937 47.8924 50.059C47.9479 50.1242 48.0249 50.1676 48.1095 50.1812C48.9142 50.2367 51.0417 50.0702 51.6892 48.9695C52.0962 48.2757 51.606 47.0825 50.977 47.6282ZM41.6252 42.1522C41.2275 41.8285 40.7465 42.439 41.0055 43.2252C41.0795 43.4565 41.2275 43.6507 41.4772 43.6137C41.986 43.5397 41.9582 42.4482 41.6252 42.1522ZM41.6252 38.0637C41.202 38.1755 40.818 38.4023 40.516 38.7191C40.2139 39.0359 40.0055 39.4302 39.914 39.8582C39.91 39.9412 39.9347 40.023 39.984 40.0898C40.0333 40.1567 40.1042 40.2045 40.1846 40.2251C40.2651 40.2458 40.3502 40.238 40.4256 40.2032C40.501 40.1684 40.5621 40.1086 40.5985 40.034C40.6956 39.7564 40.8608 39.5077 41.079 39.3105C41.2972 39.1134 41.5613 38.9741 41.8472 38.9055C42.5502 38.4245 42.2357 37.925 41.6252 38.0637ZM49.4137 41.07C48.5627 40.6352 48.4425 41.995 49.0345 42.513C49.6265 43.031 50.163 41.4492 49.4137 41.07ZM48.9512 37.999C49.46 38.1932 49.83 37.999 50.607 38.6002C51.199 39.0535 51.643 38.48 51.1342 37.9435C50.6255 37.407 49.4415 36.815 48.8587 37.2127C48.7905 37.2581 48.7362 37.3216 48.7018 37.396C48.6674 37.4704 48.6542 37.5528 48.6638 37.6342C48.6734 37.7156 48.7053 37.7928 48.756 37.8572C48.8068 37.9216 48.8743 37.9706 48.9512 37.999ZM180.089 101.519C178.239 86.099 165.621 66.1652 147.714 65.8322C147.547 64.4817 147.714 62.8167 145.984 64.5557C146.025 63.8441 146.025 63.1306 145.984 62.419C147.18 62.2597 148.283 61.687 149.101 60.8002C150.951 58.7837 151.469 55.8422 151.728 53.2152C154.919 52.2902 154.79 45.473 151.524 44.4185C151.423 43.7802 151.312 43.142 151.182 42.513C151.608 37.9712 140.378 27.3152 131.1 35.5755C124.718 41.2642 125.671 52.3365 132.673 57.128C132.875 59.1187 132.859 61.1254 132.627 63.1127C131.833 63.8673 131.097 64.6805 130.425 65.5455C120 65.5455 112.101 72.9455 108.789 77.2375C99.5395 89.3365 92.1395 117.743 112.489 121.776C109.715 134.837 109.28 147.325 112.924 160.302C112.949 160.348 112.988 160.383 113.036 160.403C113.084 160.422 113.137 160.425 113.186 160.409C113.235 160.394 113.277 160.362 113.306 160.319C113.334 160.276 113.346 160.224 113.34 160.173C109.992 145.613 110.565 136.382 113.072 121.887C120.777 123.321 129.019 121.212 136.096 118.122C137.446 119.519 141.433 120.999 142.709 120.648C142.811 121.166 142.894 121.48 143.255 121.573C150.826 123.127 158.607 123.368 166.26 122.285C166.926 126.235 167.546 130.527 167.869 134.661C166.741 134.153 164.854 133.255 163.725 132.895L163.587 130.86C163.587 130.434 162.93 130.508 162.921 130.86C162.921 131.507 162.68 134.069 163.513 133.579C164.929 134.348 166.408 134.995 167.934 135.512C168.415 142.607 167.86 148.629 167.508 155.613C167.509 155.654 167.524 155.695 167.551 155.726C167.578 155.758 167.615 155.779 167.656 155.785C167.697 155.792 167.739 155.784 167.775 155.763C167.811 155.741 167.837 155.708 167.851 155.668C168.484 151.303 168.793 146.898 168.776 142.487C168.838 135.669 168.159 128.864 166.75 122.192C178.757 120.333 181.347 112.258 180.089 101.519ZM151.83 52.4937C152.044 50.0127 151.985 47.5156 151.654 45.0475C154.142 46.25 153.939 51.5687 151.83 52.5122V52.4937ZM147.778 66.3687C148.707 66.3856 149.634 66.4628 150.553 66.6C150.599 67.2752 155.354 73.5005 155.613 83.25C155.613 83.4905 144.846 84.4247 143.829 84.4895C144.161 83.139 143.005 73.1305 142.524 71.0215C142.746 71.262 144.374 73.297 144.689 72.7327C145.003 72.1685 145.429 71.3637 145.789 70.6792C149.258 71.5302 148.167 70.4757 147.778 66.3595V66.3687ZM140.804 70.3647C141.076 70.5749 141.392 70.7204 141.729 70.7902L140.462 72.7882C139.641 72.4483 138.857 72.0269 138.121 71.5302C139.053 71.2305 139.952 70.8369 140.804 70.3555V70.3647ZM135.91 71.7337C135.476 69.4076 135.225 67.0508 135.161 64.6852C136.734 65.675 138.38 66.6 140.008 67.525C140.128 68.3435 140.202 69.168 140.23 69.9947C138.829 70.6645 137.386 71.2423 135.91 71.7245V71.7337ZM140.85 69.7727C140.931 69.0742 140.89 68.3669 140.73 67.6822C143.856 65.2957 143.717 69.0327 143.505 69.5322C142.968 71.0122 141.109 69.9855 140.85 69.7635V69.7727ZM145.271 70.5127C145.022 71.0862 144.754 71.6505 144.495 72.224C143.977 71.7245 143.477 71.1972 142.94 70.7162C143.311 70.5 143.658 70.2458 143.976 69.9577C144.383 70.1938 144.818 70.3772 145.271 70.5035V70.5127ZM146.927 64.5557C147.121 66.4705 147.325 68.3852 147.519 70.3C146.289 70.0132 146.511 70.4295 144.171 69.375C144.32 68.685 144.272 67.967 144.032 67.303C145.401 66.4705 145.956 65.1385 146.927 64.5465V64.5557ZM151.219 52.6695C147.63 52.9747 146.881 46.5922 149.739 45.1215C149.934 45.214 150.377 45.6395 150.572 45.4452C150.766 45.251 150.479 45.029 150.34 44.8995H151.016C151.381 47.47 151.449 50.0741 151.219 52.6602V52.6695ZM150.599 42.4945L150.923 44.2612C150.523 44.2387 150.122 44.3018 149.748 44.4462C148.194 43.586 147.297 44.1965 147.806 44.733C147.908 44.807 148.731 44.733 149.092 44.807C148.638 45.1595 148.261 45.6018 147.986 46.1063C147.711 46.6109 147.542 47.1667 147.491 47.7392C147.153 47.5165 146.75 47.4113 146.346 47.4397C145.941 47.4681 145.557 47.6286 145.253 47.8965C144.79 43.0402 139.213 43.549 138.371 47.8965C137.418 47.5267 136.384 47.4151 135.374 47.5727C135.504 46.4077 135.504 45.232 135.374 44.067C138.834 42.2817 146.65 41.3567 150.599 42.55V42.4945ZM142.959 52.836C140.387 54.4455 138.445 50.986 138.833 48.3127C139.342 44.8902 142.635 44.252 143.93 45.917C145.225 47.582 144.874 51.6612 142.959 52.8637V52.836ZM132.645 54.945C131.97 53.5112 130.934 52.0867 130.915 50.4402C130.915 49.9037 131.221 48.877 131.896 48.9047C132.571 48.9325 134.625 52.4752 135.281 48.2665C136.285 48.1272 137.307 48.2483 138.251 48.618C137.668 52.8267 142.062 56.3787 144.559 52.0312C145.101 51.0084 145.35 49.8564 145.281 48.7012C145.561 48.4255 145.922 48.2464 146.312 48.1899C146.701 48.1333 147.098 48.2023 147.445 48.3867C147.445 50.616 148.518 53.4465 151.145 53.2985C150.775 56.9522 149.85 61.05 145.715 61.975C145.281 62.0675 145.558 63.64 145.346 65.305C144.865 65.878 144.326 66.3989 143.736 66.859C142.959 65.934 141.266 66.2392 140.508 67.081C134.578 63.7695 134.708 63.5845 134.597 64.8425C134.245 64.5187 133.385 63.7787 133.265 63.344C133.08 62.6317 134.125 58.201 132.645 54.945ZM132.812 63.6955C133.247 64.4513 133.864 65.0871 134.606 65.5455L134.884 69.5045C133.304 68.5506 131.895 67.3409 130.712 65.9247C131.424 65.2772 132.155 64.4077 132.812 63.6955ZM130.259 66.119C130.259 66.5352 134.255 70.6237 134.948 70.0132C135.365 72.6032 135.069 72.6865 137.613 71.7615C137.973 72.0482 140.48 73.926 140.841 73.3802C141.201 72.8345 141.673 72.076 142.09 71.4377C142.552 75.036 143.311 81.474 143.292 84.4895C139.74 84.7022 136.179 84.7485 132.627 84.8132C131.406 76.96 127.66 67.9135 126.975 66.3965C128.063 66.2394 129.16 66.1467 130.259 66.119ZM126.328 66.4982C129.38 73.2692 130.638 78.292 132.284 85.2572C132.423 85.84 156.501 84.5635 156.242 83.4072C156.094 78.477 154.29 70.5775 151.062 66.6185C152.238 66.8146 153.398 67.0991 154.531 67.4695C161.413 77.9775 164.706 91.02 164.179 99.6872C162.796 100.35 161.493 101.166 160.293 102.12C160.293 101.87 160.432 101.324 160.201 101.13C160.447 100.63 160.55 100.072 160.499 99.5175C160.448 98.9627 160.246 98.4326 159.914 97.9852C160.088 97.6187 160.18 97.2186 160.182 96.8129C160.185 96.4073 160.098 96.006 159.929 95.6374C159.76 95.2688 159.511 94.9417 159.202 94.6794C158.893 94.417 158.53 94.2256 158.138 94.1187C158.138 93.2492 158.249 89.096 157.953 88.4947C157.426 87.357 153.818 86.7465 152.533 86.9407C150.905 87.172 132.997 89.7157 133.422 90.6407C133.043 90.872 133.358 96.5977 133.422 97.014C130.302 97.014 127.191 97.1681 124.089 97.4765C126.29 88.4392 125.745 76.0535 123.053 67.3585C124.125 67.0006 125.218 66.7133 126.328 66.4982ZM159.1 102.249C159.321 102.187 159.514 102.049 159.646 101.861C159.322 105.228 155.595 106.856 152.745 107.688C152.997 104.547 152.175 101.413 150.414 98.7992C153.291 93.9892 152.357 94.4332 155.557 93.9892C157.99 93.647 156.889 94.9142 156.482 95.0807C155.465 95.423 154.336 96.4682 154.938 97.5227C155.132 97.8742 155.169 97.9852 156.029 97.7447C156.701 97.5522 157.282 97.1277 157.67 96.5467C158.058 95.9657 158.227 95.266 158.147 94.572C158.495 94.7396 158.8 94.9837 159.039 95.286C159.279 95.5884 159.447 95.9411 159.531 96.3176C159.614 96.6942 159.611 97.0848 159.523 97.4601C159.434 97.8355 159.261 98.1858 159.017 98.4847C157.953 100.039 159.202 99.4097 159.637 98.642C160.562 100.853 159.008 101.324 158.878 101.963C158.87 101.997 158.869 102.032 158.876 102.066C158.884 102.1 158.899 102.132 158.92 102.16C158.941 102.187 158.969 102.21 159 102.225C159.031 102.241 159.065 102.249 159.1 102.249ZM145.974 112.276C146.625 107.231 145.432 102.12 142.617 97.8835L149.545 98.5125C151.996 101.944 152.153 105.487 152.033 108.687C152.07 108.558 152.154 108.678 146.012 112.276H145.974ZM134.708 91.7877C135.662 91.9619 136.579 92.2999 137.418 92.7867C137.418 94.1372 137.344 95.682 137.483 97.014H133.959C134.065 94.9804 134.065 92.9426 133.959 90.909L152.625 87.5512C154.213 87.373 155.813 87.7559 157.148 88.6335C150.914 89.725 143.912 90.65 137.881 92.2317C136.992 91.7466 136.006 91.4684 134.995 91.4177C134.264 91.3992 134.181 91.6675 134.708 91.7877ZM142.617 120.083C140.456 119.929 138.382 119.169 136.632 117.891L142.737 114.839C142.517 116.578 142.476 118.336 142.617 120.083ZM112.943 121.221C97.8097 118.27 98.3092 102.037 102.583 90.2245C106.116 80.475 112.425 71.225 122.535 67.525C125.31 78.8562 125.264 86.2007 123.405 97.5227C120.246 97.789 117.105 98.2337 113.997 98.8547C113.729 98.9195 113.775 99.345 114.062 99.308C123.321 97.8381 132.709 97.3421 142.071 97.828C144.878 102.219 146.035 107.464 145.336 112.628C124.746 124.616 115.866 121.221 112.943 121.221ZM143.338 120.925C143.184 118.768 143.221 116.601 143.449 114.45C145.688 113.22 147.806 111.953 149.998 110.621C148.868 114.271 148.734 118.158 149.61 121.878C147.518 121.66 145.437 121.342 143.375 120.925H143.338ZM150.137 121.933C149.462 117.66 149.406 114.348 150.766 110.167C151.793 109.446 152.681 109.335 152.755 108.243C156.26 107.503 159.396 105.237 160.155 102.878C163.503 100.103 167.009 99.1785 169.497 98.3275C169.756 98.235 169.59 97.8465 169.34 97.8465C168.471 97.8465 165.4 99.1322 164.623 99.5207C165.159 89.1977 160.922 76.3957 155.456 67.8487C168.1 72.5755 177.906 87.5142 179.506 101.519C180.533 110.5 178.831 118.927 168.646 121.184C169.1 121.175 160.756 123.025 150.137 121.933Z" fill="#5C3783"/>
</svg>