<svg width="38" height="38" viewBox="0 0 38 38" fill="none" xmlns="http://www.w3.org/2000/svg">
<path d="M15.8337 8.92285V14.7562C15.8337 14.9772 15.7459 15.1892 15.5896 15.3454C15.4333 15.5017 15.2213 15.5895 15.0003 15.5895H5.00033C4.77931 15.5895 4.56735 15.5017 4.41107 15.3454C4.25479 15.1892 4.16699 14.9772 4.16699 14.7562V8.92285" stroke="#E70000" stroke-linecap="round" stroke-linejoin="round"/>
<path d="M0.833008 8.09023L8.94467 1.45356C9.24238 1.21013 9.61511 1.07715 9.99967 1.07715C10.3842 1.07715 10.757 1.21013 11.0547 1.45356L19.1663 8.09023" stroke="#E70000" stroke-linecap="round" stroke-linejoin="round"/>
<path d="M23.333 7.25684H27.4997C28.8258 7.25684 30.0975 7.78362 31.0352 8.7213C31.9729 9.65898 32.4997 10.9308 32.4997 12.2568V18.9235" stroke="#E70000" stroke-linecap="round" stroke-linejoin="round"/>
<path d="M9.16699 19.7568V27.2568C9.16699 28.5829 9.69378 29.8547 10.6315 30.7924C11.5691 31.7301 12.8409 32.2568 14.167 32.2568H19.167" stroke="#E70000" stroke-linecap="round" stroke-linejoin="round"/>
<path d="M28.333 14.7568L32.4997 18.9235L36.6663 14.7568" stroke="#E70000" stroke-linecap="round" stroke-linejoin="round"/>
<path d="M13.3333 23.9235L9.16667 19.7568L5 23.9235" stroke="#E70000" stroke-linecap="round" stroke-linejoin="round"/>
<path d="M30.8333 38.9235C35.4357 38.9235 39.1667 35.1925 39.1667 30.5902C39.1667 25.9878 35.4357 22.2568 30.8333 22.2568C26.231 22.2568 22.5 25.9878 22.5 30.5902C22.5 35.1925 26.231 38.9235 30.8333 38.9235Z" stroke="#E70000" stroke-linecap="round" stroke-linejoin="round"/>
<path d="M30.833 33.9229V35.5895" stroke="#E70000" stroke-linecap="round" stroke-linejoin="round"/>
<path d="M30.833 25.5898V27.2565" stroke="#E70000" stroke-linecap="round" stroke-linejoin="round"/>
<path d="M27.5 33.9235H32.5C32.942 33.9235 33.366 33.7479 33.6785 33.4353C33.9911 33.1228 34.1667 32.6989 34.1667 32.2568C34.1667 31.8148 33.9911 31.3909 33.6785 31.0783C33.366 30.7658 32.942 30.5902 32.5 30.5902H29.1667C28.7246 30.5902 28.3007 30.4146 27.9882 30.102C27.6756 29.7895 27.5 29.3655 27.5 28.9235C27.5 28.4815 27.6756 28.0576 27.9882 27.745C28.3007 27.4324 28.7246 27.2568 29.1667 27.2568H34.1667" stroke="#E70000" stroke-linecap="round" stroke-linejoin="round"/>
</svg>
