<svg width="400" height="400" viewBox="0 0 400 400" fill="none" xmlns="http://www.w3.org/2000/svg">
   <path d="M83.998 232.368L245.574 152.18L386.802 232.368L225.222 312.55L83.998 232.368Z" fill="#DED7E6"/>
   <path d="M225.222 365.96V312.55L83.998 232.368V285.772L225.222 365.96Z" fill="#DED7E6"/>
   <path d="M387.506 231.904C387.466 231.842 387.416 231.784 387.36 231.734C245.41 151.116 245.848 151.11 245.208 151.424C245.208 151.424 83.606 231.616 83.57 231.638C83.314 231.788 83.154 232.062 83.154 232.362V285.772C83.154 286.072 83.318 286.35 83.578 286.5L224.804 366.688C225.418 367.048 224.882 366.71 387.174 286.522C387.46 286.38 387.642 286.09 387.642 285.772C387.642 231.902 387.72 232.238 387.504 231.902L387.506 231.904ZM224.382 364.516L84.834 285.282V233.802L224.382 313.036V364.516ZM85.78 232.416L245.552 153.126L385.014 232.312L225.242 311.602L85.78 232.416Z" fill="#5C3783"/>
   <path d="M95.13 247.824L217.274 317.176V319.306L172.73 341.412L48.298 271.066L95.13 247.824Z" fill="white"/>
   <path d="M33.38 262.598L25.738 266.214V302.108L179.056 389.162L186.7 385.302V349.65L33.38 262.598Z" fill="#DED7E6"/>
   <path d="M102.048 252.138L63.694 273.206L92.008 289.282C92.502 288.902 128.552 267.388 128.552 267.388L102.048 252.138Z" fill="#FFD997"/>
   <path d="M92.022 290.13C91.68 290.13 91.966 290.198 63.28 273.936C62.702 273.608 62.724 272.778 63.294 272.47L101.648 251.406C102.63 250.872 103.424 252.35 102.456 252.876L65.418 273.22L91.992 288.306C95.794 285.966 120.258 271.37 128.126 266.662C129.076 266.094 129.944 267.532 128.986 268.106C92.07 290.2 92.314 290.128 92.022 290.128V290.13Z" fill="#5C3783"/>
   <path d="M137.904 272.528L100.914 294.338L130.688 311.168L166.624 288.996L137.904 272.528Z" fill="#FFD997"/>
   <path d="M130.69 312.002C130.332 312.002 130.624 311.992 100.5 295.062C99.934 294.744 99.94 293.928 100.492 293.61L137.026 272.068C137.424 271.834 137.94 271.966 138.174 272.364C138.408 272.762 138.276 273.278 137.878 273.512L102.592 294.312L130.672 310.188L165.794 288.462C166.738 287.88 167.626 289.304 166.676 289.892C130.79 312.152 131.068 312.004 130.688 312.004L130.69 312.002Z" fill="#5C3783"/>
   <path d="M176.142 294.028L139.312 316.14L169.48 333.266L207.636 312.408L176.142 294.028Z" fill="#FFD997"/>
   <path d="M169.48 334.118C169.158 334.118 169.48 334.108 138.902 316.872C138.346 316.558 138.336 315.756 138.884 315.424L175.716 293.312C176.668 292.74 177.534 294.18 176.582 294.752L140.982 316.126L169.49 332.316L207.234 311.684C208.216 311.15 209.008 312.63 208.038 313.158C169.516 334.162 169.822 334.116 169.48 334.116V334.118Z" fill="#5C3783"/>
   <path d="M168.804 151.87L243.946 114.576L362.576 182.348L288.14 219.63L168.804 151.87Z" fill="#DED7E6"/>
   <path d="M108.242 213.718V232.368L226.85 299.71V281.062L108.242 213.718Z" fill="#DED7E6"/>
   <path d="M168.804 151.87L287.412 219.214L226.85 281.062L108.242 213.718L168.804 151.87Z" fill="white"/>
   <path d="M363.392 232.294V181.924C363.392 181.594 363.202 181.32 362.946 181.182L243.934 113.742L168.426 151.12C107.396 213.382 107.5 213.158 107.422 213.544C107.382 213.744 107.408 213.26 107.408 232.438C107.496 233.15 107.238 232.76 226.53 300.486L362.928 233.122C363.246 232.962 363.422 232.628 363.392 232.294ZM243.92 115.53L361.648 182.374L288.32 218.764L170.592 151.92L243.922 115.53H243.92ZM226.012 298.274L109.082 231.878V215.156L226.012 281.55V298.274ZM109.604 213.524L168.95 152.916L286.806 219.834L227.458 280.44L109.602 213.524H109.604Z" fill="#5C3783"/>
   <path d="M225.892 160.074L198.288 144.44C197.666 144.086 197.67 143.19 198.292 142.842L202.658 140.404C202.936 140.25 203.28 140.25 203.558 140.404L231.108 156.016C231.726 156.364 231.726 157.256 231.108 157.606L226.798 160.074C226.516 160.232 226.17 160.238 225.888 160.074H225.892Z" fill="#5C3783"/>
   <path d="M218.108 317.182C218.108 316.882 217.944 316.604 217.684 316.454L92.352 245.292C91.796 244.976 91.102 245.378 91.102 246.02V248.886L48.322 270.116C32.524 261.146 33.586 261.574 33.02 261.836L25.374 265.452C25.042 265.61 24.86 265.954 24.898 266.3V302.112C24.898 302.412 25.062 302.69 25.322 302.84L178.742 389.942C179.242 390.142 178.966 390.194 187.078 386.056C187.36 385.912 187.536 385.624 187.536 385.306V368.006L217.59 353.09C218.42 352.746 218.106 353.088 218.106 317.184L218.108 317.182ZM95.1 248.776L216.434 317.668V318.786L172.468 340.604L50.086 271.116L95.1 248.776ZM178.216 387.722L26.576 301.618V267.652L178.218 353.756V387.722H178.216ZM179.3 352.444L27.548 266.28L33.346 263.538L184.924 349.606L179.302 352.442L179.3 352.444ZM185.864 384.792L179.894 387.802V354.026L185.864 351.014V384.792Z" fill="#5C3783"/>
   <path d="M283.432 199.594L286.798 198.862L312.582 163.224L311.828 159.766L266.084 133.792L264.472 134.142L237.986 170.76L238.736 174.216L283.432 199.594Z" fill="white"/>
   <path d="M291.404 205.908L282.164 207.916L231.8 179.32C228.14 177.246 227.078 172.426 229.558 169.002L259.868 127.102L267.352 125.472L318.766 154.664L321.008 164.982L291.404 205.906V205.908ZM283.432 199.594L286.798 198.864L312.58 163.226L311.828 159.768L266.082 133.794L264.47 134.142L237.984 170.76L238.734 174.214L283.43 199.592L283.432 199.594Z" fill="#FFD997"/>
   <path d="M321.828 164.802C319.458 153.652 319.644 154.2 319.18 153.932L267.766 124.74C267.586 124.638 267.378 124.608 267.174 124.652C259.136 126.402 259.448 126.24 259.188 126.608L228.878 168.508C226.25 172.126 227.138 177.284 230.962 179.79V187.644C230.962 187.944 231.126 188.224 231.386 188.372C282.15 217.396 281.918 217.152 282.342 217.058C291.714 214.968 291.59 215.078 291.79 214.978L318.692 201.198C318.97 201.056 319.146 200.766 319.146 200.452V168.992C321.724 165.428 321.942 165.328 321.83 164.806L321.828 164.802ZM232.634 187.152V180.758L281.324 208.404V214.796L232.634 187.152ZM283.002 215.198V208.584L290.57 206.94V213.55L283.002 215.196V215.198ZM317.466 199.94L292.248 212.858V206.168L317.466 171.308V199.94ZM290.918 205.154L282.3 207.026L232.216 178.588C228.992 176.76 228.05 172.516 230.238 169.492L260.358 127.854L267.218 126.362L318.028 155.21L320.112 164.796L290.92 205.154H290.918Z" fill="#5C3783"/>
   <path d="M312.65 159.588C312.52 159.01 312.708 159.474 266.5 133.062C266.148 132.86 266.002 132.954 264.296 133.322C263.8 133.43 264.174 133.246 237.306 170.268C237.012 170.674 237.09 170.67 237.916 174.392C238.044 174.97 237.954 174.334 283.016 200.322C283.208 200.432 283.434 200.454 283.608 200.414C287.23 199.596 287.234 199.698 287.48 199.354C313.466 163.09 313.52 163.62 313.402 163.044L312.652 159.586L312.65 159.588ZM286.306 198.11L283.564 198.706L239.474 173.672L238.882 170.948L264.962 134.894L265.946 134.682L311.086 160.312L311.678 163.036L286.304 198.11H286.306Z" fill="#5C3783"/>
   <path d="M241.716 100.368L238.718 94.6019L231.358 98.0499L227.27 91.9179L221.684 95.8699L216.152 90.3599C216.156 112.382 206.968 132.118 200.43 143.02L228.634 157.192C228.634 157.192 245.558 136.724 248.94 99.1419L241.716 100.37V100.368Z" fill="white"/>
   <path d="M227.986 156.66C228.154 156.456 244.458 136.324 248 100.156L241.854 101.198C241.496 101.26 241.138 101.084 240.97 100.756L238.342 95.706L231.71 98.814C231.334 98.99 230.884 98.8659 230.654 98.518L227.042 93.106L222.158 96.558C221.826 96.792 221.372 96.756 221.08 96.47L216.952 92.36C216.414 114.714 206.882 133.872 201.132 143.456C200.56 144.408 199.122 143.544 199.692 142.59C205.524 132.872 215.3 113.168 215.294 90.364C215.294 89.624 216.192 89.236 216.724 89.768L221.758 94.78L226.768 91.234C227.146 90.964 227.682 91.0539 227.946 91.4499L231.632 96.982L238.338 93.8379C238.744 93.6479 239.23 93.812 239.438 94.21L242.154 99.432C249.406 98.198 249.068 98.136 249.482 98.518C249.672 98.6939 249.772 98.95 249.748 99.21C246.172 136.596 229.426 157.512 229.252 157.72C228.548 158.562 227.276 157.508 227.976 156.66H227.986Z" fill="#5C3783"/>
   <path d="M237.994 109.91C237.794 109.91 238.902 110.206 220.196 104.642C219.134 104.326 219.61 102.716 220.672 103.036L238.232 108.268C239.158 108.544 238.952 109.91 237.994 109.91Z" fill="#5C3783"/>
   <path d="M237.062 119.252C236.832 119.252 237.034 119.268 217.904 112.29C216.868 111.912 217.43 110.332 218.482 110.714L237.348 117.624C238.224 117.942 237.992 119.254 237.06 119.254L237.062 119.252Z" fill="#5C3783"/>
   <path d="M234.068 128.776C233.818 128.776 235.014 129.248 215.622 121.05C214.6 120.618 215.252 119.072 216.276 119.504L234.396 127.164C235.24 127.52 234.976 128.776 234.07 128.776H234.068Z" fill="#5C3783"/>
   <path d="M230.334 138.122C230.054 138.122 230.294 138.182 211.856 129.446C210.858 128.972 211.568 127.454 212.576 127.932L230.696 136.524C231.502 136.906 231.226 138.122 230.334 138.122Z" fill="#5C3783"/>
   <path d="M218.144 142.89C217.886 142.89 218.682 143.23 208.122 138.224C207.12 137.748 207.838 136.234 208.842 136.71L218.506 141.292C219.312 141.674 219.036 142.89 218.144 142.89Z" fill="#5C3783"/>
   <path d="M264.03 179.978C262.948 179.404 263.854 178.534 265.152 176.438C260.128 173.21 259.308 168.88 260.966 166.054C261.17 165.706 261.734 165.528 262.176 165.762C264.036 166.75 264.366 166.84 264.48 167.254C264.662 167.912 262.724 171.488 268.37 174.494C271.386 176.1 274.782 176.754 276.568 173.866C280.022 168.29 263.524 163.432 268.832 154.858C270.678 151.878 274.726 150.24 279.994 152.47C282.114 149.048 281.65 149.25 284.046 150.528C285.114 151.098 284.2 152.02 282.924 154.078C288.972 158.286 287.23 165.194 285.25 164.14C283.25 163.074 283.202 163.106 282.958 162.74C282.438 161.954 283.834 161.204 282.68 158.846C281.52 156.474 277.85 154.722 275.372 154.82C272.948 154.916 271.526 157.288 271.822 158.926C272.52 162.784 280.852 167.072 281.16 172.056C281.394 175.84 276.934 181.822 268.078 178.034C265.99 181.408 266.458 181.27 264.024 179.976L264.03 179.978Z" fill="#5C3783"/>
   <path d="M112.34 264.284C114.26 268.562 111.554 273.428 105.858 275.018C99.756 276.722 93.198 273.906 91.712 268.926C90.316 264.25 94.096 259.806 99.744 258.802C105.052 257.858 110.526 260.246 112.34 264.286V264.284Z" fill="white"/>
   <path d="M108.458 270.76C108.18 271.126 107.83 270.756 106.98 270.178C104.636 272.678 101.622 271.446 102.202 270.748C102.736 270.108 102.79 269.99 102.98 269.97C103.276 269.938 104.746 270.83 106.274 268.924C107.064 267.938 107.454 266.796 106.322 266.036C104.146 264.574 101.244 270.134 97.756 267.744C96.55 266.918 96.11 265.4 97.438 263.708C96.1 262.804 96.156 262.968 96.868 262.242C97.18 261.924 97.516 262.278 98.312 262.816C100.432 261.086 103.19 262.038 102.666 262.618C102.126 263.214 102.136 263.232 101.972 263.29C101.614 263.418 101.376 262.92 100.326 263.166C99.254 263.418 98.278 264.562 98.168 265.422C98.058 266.274 99.006 266.906 99.744 266.888C101.456 266.848 103.682 264.228 105.758 264.398C107.312 264.524 109.608 266.328 107.772 269.202C109.128 270.116 109.084 269.94 108.46 270.76H108.458Z" fill="#5C3783"/>
   <path d="M149.026 286.046C151.184 290.854 148.142 296.33 141.736 298.116C134.874 300.03 127.508 296.866 125.832 291.264C124.262 286.01 128.512 281.008 134.86 279.878C140.83 278.814 146.984 281.502 149.024 286.046H149.026Z" fill="white"/>
   <path d="M144.658 293.34C144.344 293.754 143.956 293.326 143.002 292.682C141.21 294.594 139.02 294.714 137.704 293.848C137.542 293.742 137.486 293.494 137.628 293.322C138.226 292.6 138.29 292.472 138.502 292.448C138.838 292.41 140.49 293.416 142.206 291.274C143.094 290.166 143.534 288.882 142.258 288.028C139.81 286.388 136.55 292.632 132.628 289.948C131.272 289.02 130.774 287.308 132.27 285.414C130.764 284.394 130.826 284.584 131.63 283.768C131.982 283.41 132.358 283.808 133.254 284.412C135.634 282.47 138.738 283.538 138.146 284.192C137.554 284.846 137.55 284.88 137.368 284.948C136.966 285.094 136.696 284.526 135.514 284.806C134.308 285.092 133.212 286.378 133.086 287.34C132.96 288.298 134.03 289.008 134.856 288.986C136.786 288.936 139.288 285.996 141.616 286.182C143.364 286.322 145.948 288.35 143.88 291.586C145.404 292.614 145.352 292.414 144.652 293.338L144.658 293.34Z" fill="#5C3783"/>
   <path d="M187.362 308.112C189.6 313.102 186.448 318.784 179.804 320.638C172.682 322.626 165.034 319.34 163.296 313.526C161.666 308.074 166.078 302.886 172.664 301.71C178.858 300.606 185.246 303.396 187.362 308.112Z" fill="white"/>
   <path d="M99.598 257.994C93.77 259.028 89.322 263.782 90.93 269.158C92.474 274.338 99.178 277.716 106.076 275.806C112.06 274.138 115.28 268.83 113.084 263.95C111.106 259.536 105.308 256.982 99.598 257.992V257.994ZM111.546 269.686C108.228 276.746 94.738 276.202 92.496 268.696C91.15 264.196 95.162 260.442 99.886 259.608C106.954 258.322 114.37 263.676 111.546 269.686Z" fill="#5C3783"/>
   <path d="M134.72 279.08C128.29 280.222 123.25 285.476 125.05 291.502C126.454 296.206 131.584 299.492 137.534 299.508L137.582 299.514C142.578 299.514 147.682 297.198 149.71 292.864C153.308 285.164 144.768 277.306 134.72 279.08ZM148.222 292.166C144.46 300.2 129.152 299.536 126.612 291.034C125.088 285.91 129.612 281.652 135.004 280.688C143.022 279.226 151.438 285.3 148.222 292.164V292.166Z" fill="#5C3783"/>
   <path d="M188.114 307.776C184.126 298.896 168.696 298.14 163.496 306.576C158.36 314.934 168.382 324.688 180.024 321.424C186.74 319.546 190.704 313.542 188.112 307.776H188.114ZM186.568 314.468C182.652 322.808 166.742 322.188 164.082 313.29C162.494 307.96 167.19 303.516 172.808 302.514C181.376 301.024 189.868 307.424 186.566 314.468H186.568Z" fill="#5C3783"/>
   <path d="M182.832 315.676C182.506 316.104 182.104 315.668 181.114 314.996C179.256 316.982 176.98 317.112 175.618 316.206C175.452 316.096 175.392 315.84 175.542 315.658C176.164 314.908 176.226 314.774 176.448 314.748C176.792 314.708 178.51 315.75 180.294 313.53C181.216 312.382 181.672 311.048 180.352 310.162C177.814 308.458 174.426 314.94 170.356 312.154C168.952 311.192 168.432 309.416 169.986 307.448C168.424 306.388 168.488 306.586 169.32 305.74C169.686 305.368 170.076 305.78 171.006 306.412C173.478 304.394 176.696 305.506 176.084 306.182C175.456 306.874 175.466 306.898 175.276 306.968C174.862 307.12 174.578 306.532 173.35 306.822C172.1 307.118 170.96 308.452 170.83 309.454C170.7 310.452 171.81 311.184 172.666 311.162C174.666 311.112 177.262 308.058 179.682 308.252C181.496 308.398 184.176 310.5 182.03 313.86C183.61 314.928 183.562 314.722 182.834 315.678L182.832 315.676Z" fill="#5C3783"/>
   <path d="M195.158 179.028L149.934 225.214L125.262 211.44L170.486 165.252L195.158 179.028Z" fill="#FFD997"/>
   <path d="M231.702 199.77L187.29 246.424L154.61 227.824L199.834 181.642L231.702 199.77Z" fill="#FFD997"/>
   <path d="M270.122 221.58L225.712 268.236L193.03 249.634L238.254 203.452L270.122 221.58Z" fill="#FFD997"/>
   <path d="M270.512 220.906L238.644 202.778C238.334 202.602 237.946 202.658 237.698 202.91L192.474 249.092C192.11 249.456 192.206 250.066 192.646 250.316C225.706 269.026 225.386 269.018 225.71 269.018C225.918 269.018 226.13 268.938 226.28 268.78L270.692 222.126C271.044 221.756 270.954 221.162 270.51 220.908L270.512 220.906ZM249.222 242.406L238.524 236.388L244.394 230.198L255.092 236.24L249.224 242.406H249.222ZM241.996 249.998L231.314 243.992L237.414 237.558L248.11 243.574L241.994 249.998H241.996ZM233.958 258.442L223.296 252.446L230.206 245.158L240.884 251.164L233.956 258.442H233.958ZM203.774 254.852L211.042 247.346L220.786 252.826L213.574 260.43L203.774 254.852ZM212.164 246.186L219.168 238.952L228.802 244.37L221.892 251.658L212.164 246.188V246.186ZM209.764 233.662L217.762 238.16L210.756 245.394L202.708 240.868L209.764 233.662ZM217.126 226.144L225.07 230.612L218.886 237L210.896 232.508L217.126 226.146V226.144ZM224.28 218.838L232.16 223.29L226.194 229.452L218.258 224.988L224.28 218.838ZM231.354 211.614L239.204 216.014L233.284 222.128L225.412 217.682L231.354 211.614ZM227.602 230.242L233.568 224.082L242.992 229.406L237.12 235.598L227.6 230.244L227.602 230.242ZM236.012 236.764L229.912 243.198L220.294 237.79L226.478 231.402L236.012 236.764ZM245.5 229.028L251.372 222.836L262.116 228.858L256.17 235.104C255.992 234.904 256.372 235.17 245.5 229.028ZM244.098 228.236L234.688 222.922L240.612 216.804L249.966 222.048L244.098 228.236ZM241.738 215.642L247.552 209.636L256.766 214.878L251.078 220.878L241.738 215.642ZM238.392 204.426L246.152 208.84L240.33 214.852L232.488 210.456L238.394 204.426H238.392ZM201.578 242.022L209.634 246.552L202.372 254.052L194.298 249.456L201.578 242.022ZM225.566 267.254L214.97 261.224L222.186 253.614L232.844 259.608L225.564 267.256L225.566 267.254ZM263.228 227.69L252.482 221.666L258.164 215.674L268.87 221.764L263.23 227.69H263.228Z" fill="#5C3783"/>
   <path d="M232.092 199.094L200.224 180.966C199.914 180.79 199.526 180.846 199.278 181.098L154.054 227.28C153.688 227.646 153.788 228.256 154.226 228.504C187.282 247.222 186.968 247.206 187.29 247.206C187.498 247.206 187.71 247.126 187.86 246.968L232.272 200.314C232.624 199.944 232.534 199.35 232.09 199.096L232.092 199.094ZM217.71 213.338L208.066 207.892L213.976 201.878L223.524 207.23L217.71 213.338ZM210.678 220.724L200.874 215.21L206.932 209.044L216.6 214.504L210.678 220.724ZM203.448 228.32L193.5 222.724L199.74 216.366L209.566 221.892L203.446 228.32H203.448ZM195.412 236.762L185.31 231.08L192.368 223.878L202.338 229.486L195.414 236.76L195.412 236.762ZM165.254 232.986C166.392 231.8 168.976 229.15 172.424 225.626L182.77 231.444C179.066 235.234 176.402 237.974 175.572 238.858L165.252 232.984L165.254 232.986ZM173.556 224.472L180.614 217.27L190.958 223.088L183.902 230.29L173.556 224.472ZM171.218 211.984L179.206 216.478L172.148 223.682L164.16 219.19L171.216 211.984H171.218ZM178.578 204.468L186.578 208.966L180.338 215.324L172.348 210.83L178.576 204.468H178.578ZM185.786 197.106L193.788 201.626L187.71 207.812L179.708 203.312L185.786 197.106ZM192.758 189.986L200.798 194.494L194.922 200.472L186.918 195.952L192.758 189.988V189.986ZM189.12 208.604L195.196 202.42L205.524 208.252L199.464 214.42L189.12 208.604ZM198.33 215.576L192.09 221.934L181.748 216.116L187.988 209.76L198.332 215.576H198.33ZM206.656 207.1L196.328 201.266L202.208 195.284L212.562 201.09L206.656 207.1ZM203.344 194.13L209.39 187.98L219.692 193.84L213.7 199.934L203.346 194.128L203.344 194.13ZM199.97 182.622L207.988 187.182L201.934 193.338L193.89 188.828L199.97 182.62V182.622ZM163.03 220.346L171.018 224.838C167.51 228.426 164.906 231.102 163.866 232.198L155.878 227.652L163.032 220.346H163.03ZM187.146 245.448L176.96 239.65C177.934 238.63 180.568 235.926 184.178 232.238L194.3 237.93L187.144 245.446L187.146 245.448ZM224.636 206.064L215.112 200.724L221.098 194.638L230.45 199.958L224.638 206.064H224.636Z" fill="#5C3783"/>
   <path d="M195.542 178.348L170.87 164.572C170.56 164.404 170.176 164.458 169.93 164.708L124.706 210.894C124.346 211.254 124.43 211.868 124.882 212.122C149.852 226.12 149.61 225.994 149.934 225.994C150.138 225.994 150.344 225.914 150.494 225.76L195.718 179.574C196.078 179.212 195.994 178.6 195.542 178.346V178.348ZM170.628 166.228L180.75 171.878L174.622 178.022L164.586 172.398L170.628 166.228ZM180.854 192.522L169.028 185.842L174.89 179.964L186.68 186.572L180.854 192.52V192.522ZM173.634 199.896L161.706 193.186L167.884 186.992L179.724 193.678L173.634 199.896ZM166.278 207.408L154.26 200.65L160.56 194.332L172.502 201.05L166.278 207.406V207.408ZM158.09 215.77L145.978 208.958L153.118 201.8L165.148 208.566L158.092 215.772L158.09 215.77ZM141.948 195.516L151.704 201.004L144.566 208.162L134.894 202.722L141.95 195.516H141.948ZM149.308 188L159.15 193.536L152.85 199.854L143.08 194.36L149.308 188ZM156.562 180.592L166.476 186.192L160.296 192.39L150.44 186.846L156.562 180.594V180.592ZM167.62 185.044L157.692 179.438L163.464 173.544C163.664 173.712 164.3 174.03 173.476 179.172L167.618 185.046L167.62 185.044ZM133.762 203.876L143.42 209.308L136.134 216.614L126.534 211.254L133.76 203.874L133.762 203.876ZM149.796 224.24L137.552 217.404L144.834 210.102L156.96 216.922L149.796 224.238V224.24ZM187.816 185.414L176.04 178.814L182.17 172.668L193.89 179.212L187.816 185.416V185.414Z" fill="#5C3783"/>
   <path d="M371.542 85.2499L292.436 66.8699L284.618 72.8759V100.456L292.436 110.094L324.04 117.438V179.58L335.344 186.106V120.064L371.542 128.474L379.362 122.47V94.8879L371.542 85.2499Z" fill="#DED7E6"/>
   <path d="M373.18 97.334L368.982 92.156L294.998 74.968L290.8 78.196V98.006L294.998 103.18L368.982 120.368L373.18 117.146V97.334Z" fill="white"/>
   <path d="M385.838 90.46C385.838 90.07 386.178 90.85 377.842 80.332C377.582 80.006 377.874 80.11 298.308 61.682C297.792 61.562 298.91 60.896 284.14 72.252C283.95 72.398 283.836 72.628 283.836 72.87V100.452C283.836 100.842 283.5 100.058 291.832 110.58C292.086 110.9 291.81 110.744 323.26 118.052V179.58C323.26 179.858 323.406 180.114 323.648 180.256L334.954 186.826C335.204 186.974 335.508 186.96 335.736 186.826L343.374 182.416C343.612 182.28 343.762 182.018 343.762 181.74V122.818C371.952 129.368 371.564 129.442 372.018 129.09C386.718 117.722 385.838 118.59 385.838 118.044V90.46ZM334.56 184.754L324.816 179.13V118.416L334.56 120.68V184.756V184.754ZM378.578 122.082L371.354 127.628L292.87 109.394L285.39 100.18V73.256L292.614 67.71L371.098 85.944L378.578 95.158V122.082Z" fill="#5C3783"/>
   <path d="M369.154 91.4019L295.17 74.2139C294.672 74.0999 294.764 74.1659 290.318 77.5779C289.844 77.9419 290.014 77.5879 290.014 98.0059C290.014 98.3959 289.932 98.0479 294.39 103.67C294.498 103.806 294.65 103.9 294.818 103.94L368.802 121.128C369.046 121.184 369.276 121.126 369.456 120.986C374.07 117.434 373.96 117.662 373.96 117.144C373.96 96.8639 374.058 97.1819 373.784 96.8439C369.302 91.3239 369.534 91.4899 369.156 91.3999L369.154 91.4019ZM372.394 116.762L368.79 119.526L295.428 102.48L291.574 97.7299V78.5819L295.176 75.8179L368.538 92.8639L372.392 97.6139V116.762H372.394Z" fill="#5C3783"/>
   <path d="M307.85 84.1199C307.694 83.3339 306.604 82.9899 306.332 83.6739C305.936 84.6699 306.046 83.7859 305.952 88.5119C305.928 89.7099 306.648 90.5859 306.818 90.8159C307.09 91.1839 307.508 91.2319 307.728 91.0539L307.852 84.1179L307.85 84.1199Z" fill="#5C3783"/>
   <path d="M305.762 98.17C305.76 98.408 305.78 98.43 306.036 99.304C306.276 100.124 307.346 100.362 307.554 99.67C307.614 99.47 307.566 99.926 307.7 92.548C307.44 92.188 307.012 92.128 306.79 92.31C305.608 93.274 305.818 92.5 305.762 98.17Z" fill="#5C3783"/>
   <path d="M313.816 103.83C314.062 104.176 314.5 104.302 314.752 104.1C315.398 103.582 315.254 104.132 315.274 100.158C315.274 99.822 315 99.474 314.656 99.376L314.012 99.194C313.668 99.096 313.39 99.292 313.384 99.626C313.334 103.558 313.2 102.964 313.816 103.83Z" fill="#5C3783"/>
   <path d="M330.178 87.352L329.648 88.726C329.63 88.77 329.622 88.814 329.622 88.868C329.638 94.532 329.6 94.216 329.782 94.444L330.792 95.76C330.996 96.02 331.346 96.116 331.542 95.954C331.742 95.79 331.638 96.108 331.608 88.564C331.608 88.344 331.39 87.738 330.954 87.324C330.68 87.064 330.284 87.076 330.178 87.354V87.352Z" fill="#5C3783"/>
   <path d="M321.944 101.926C321.506 101.98 321.358 102.472 321.652 102.91C321.938 103.336 322.356 103.63 322.614 103.704L329.696 105.704C330.204 105.85 330.562 105.478 330.398 104.976L330.134 104.16C330.032 103.846 329.746 103.574 329.424 103.484C322.21 101.496 323.682 101.714 321.944 101.926Z" fill="#5C3783"/>
   <path d="M322.716 93.824C322.464 94.028 322.466 94.432 322.716 94.768C323.196 95.412 323.256 95.482 323.582 95.568C330.312 97.35 329.494 97.318 330.214 96.742C330.474 96.534 330.472 96.124 330.21 95.78C329.832 95.284 329.702 95.074 329.314 94.972C322.68 93.248 323.416 93.26 322.718 93.824H322.716Z" fill="#5C3783"/>
   <path d="M323.122 96.09L322.15 94.792C321.956 94.536 321.62 94.448 321.426 94.602C321.226 94.76 321.294 94.502 321.284 100.778C321.284 101.114 321.638 101.436 321.96 101.396C323.016 101.264 323.24 101.298 323.24 100.924C323.24 96.284 323.304 96.332 323.12 96.09H323.122Z" fill="#5C3783"/>
   <path d="M329.298 88.2359L329.536 87.6039C329.694 87.1979 329.332 86.6499 328.83 86.5259C322.952 85.0919 322.646 84.9899 322.446 85.0119C321.382 85.1259 321.36 85.9839 322.022 86.4119C323.696 87.4919 322.248 86.9599 328.596 88.5359C328.914 88.6139 329.196 88.4959 329.298 88.2359Z" fill="#5C3783"/>
   <path d="M335.728 95.666C335.604 90.672 335.778 90.874 335.352 90.606L334.332 89.962C333.996 89.75 333.63 89.886 333.634 90.218C333.712 96.738 333.644 96.308 333.828 96.55C334.03 96.816 334.39 96.908 334.592 96.748C335.724 95.858 335.732 95.878 335.726 95.666H335.728Z" fill="#5C3783"/>
   <path d="M341.966 91.5081L342.376 90.4301C342.482 90.1521 342.226 89.7721 341.868 89.6841C335.612 88.1541 335.012 87.9841 334.812 87.9981C333.85 88.0661 333.426 88.8621 334.074 89.2701C336.166 90.5821 334.47 89.9561 341.474 91.7121C341.7 91.7681 341.898 91.6861 341.964 91.5081H341.966Z" fill="#5C3783"/>
   <path d="M335.842 104.408C335.752 99.382 335.83 99.664 335.648 99.424L334.61 98.082C334.402 97.818 334.048 97.72 333.846 97.878C333.646 98.036 333.75 97.72 333.784 104.244C333.784 104.588 334.164 104.924 334.504 104.884C335.534 104.764 335.85 104.814 335.842 104.408Z" fill="#5C3783"/>
   <path d="M342.954 90.4519L342.406 91.8699C342.388 91.9139 342.38 91.9619 342.384 92.0159C342.496 97.7019 342.432 97.5159 342.632 97.7639L343.714 99.1239C343.93 99.3979 344.302 99.4939 344.508 99.3319C344.708 99.1739 344.56 99.6279 344.472 91.7119C344.47 91.4979 344.236 90.8599 343.77 90.4279C343.48 90.1579 343.06 90.1719 342.954 90.4539V90.4519Z" fill="#5C3783"/>
   <path d="M334.23 105.458C333.39 105.554 334.432 107.028 335.184 107.26L342.252 109.256C342.618 109.358 342.866 109.102 342.746 108.748C342.344 107.572 342.296 107.066 341.766 106.916C334.728 104.92 336.428 105.206 334.23 105.46V105.458Z" fill="#5C3783"/>
   <path d="M342.576 101.586C342.64 108.288 342.454 106.502 343.332 109.034C343.456 109.392 343.888 109.636 344.18 109.506C344.626 109.308 344.85 108.824 344.846 108.538C344.754 100.356 344.732 100.942 344.536 100.696C344.318 100.422 343.948 100.324 343.742 100.484C342.704 101.288 342.574 101.332 342.576 101.584V101.586Z" fill="#5C3783"/>
   <path d="M349.14 108.076C349.014 102.89 349.064 103.188 348.866 102.932L347.754 101.536C347.534 101.262 347.156 101.16 346.946 101.324C346.746 101.48 346.806 101.164 346.972 107.894C346.98 108.248 347.382 108.6 347.736 108.56C348.874 108.434 349.15 108.48 349.14 108.074V108.076Z" fill="#5C3783"/>
   <path d="M355.41 94.814L355.83 93.702C355.94 93.416 355.662 93.022 355.282 92.93C348.306 91.234 348.034 91.138 347.834 91.15C346.852 91.214 346.368 92.016 347.074 92.458C349.326 93.86 347.478 93.214 354.898 95.024C355.136 95.082 355.344 94.998 355.41 94.816V94.814Z" fill="#5C3783"/>
   <path d="M348.902 99.0559L348.778 94.3679C348.768 93.9139 348.204 93.6959 347.356 93.1719C346.998 92.9499 346.616 93.0879 346.624 93.4319C346.75 100.156 346.72 99.7139 346.92 99.9579C347.144 100.23 347.516 100.33 347.724 100.17C348.834 99.3099 348.912 99.3079 348.904 99.0579L348.902 99.0559Z" fill="#5C3783"/>
   <path d="M347.462 109.154C346.584 109.25 347.694 110.77 348.49 111.018L355.964 113.128C356.348 113.238 356.608 112.974 356.476 112.606L355.964 111.202C355.88 110.972 355.66 110.774 355.42 110.708C347.924 108.622 349.75 108.902 347.46 109.154H347.462Z" fill="#5C3783"/>
   <path d="M356.426 93.7321L355.874 95.1841C355.856 95.2281 355.848 95.2801 355.852 95.3341C356.21 101.396 355.988 101.016 356.2 101.268L357.356 102.68C357.586 102.962 357.978 103.064 358.194 102.9C358.394 102.75 358.194 103.234 358.044 95.0361C358.04 94.8361 357.792 94.1701 357.284 93.7081C356.974 93.4261 356.534 93.4381 356.424 93.7301L356.426 93.7321Z" fill="#5C3783"/>
   <path d="M356.192 105.216C356.434 112.124 356.132 110.282 357.098 112.908C357.234 113.278 357.694 113.532 357.998 113.402C358.434 113.216 358.692 112.74 358.686 112.408C358.532 104.134 358.456 104.57 358.244 104.31C358.012 104.026 357.618 103.922 357.4 104.09C356.396 104.864 356.18 104.944 356.19 105.216H356.192Z" fill="#5C3783"/>
   <path d="M108.48 48.3099C132.366 46.4299 152.658 36.0619 166.65 10.7939L191.776 42.4599C177.202 63.2159 156.336 77.1899 126.38 81.3519L108.482 48.3099H108.48Z" fill="#FFD997"/>
   <path d="M125.696 81.718L107.798 48.676C107.532 48.172 107.86 47.57 108.42 47.524C134.44 45.392 153.24 33.316 165.966 10.406C166.232 9.92805 166.902 9.85005 167.26 10.296L192.386 41.962C192.602 42.232 192.612 42.612 192.412 42.894C176.672 65.298 155.142 78.34 126.486 82.114C126.138 82.16 125.838 81.988 125.696 81.72V81.718ZM109.736 48.98L126.81 80.496C154.52 76.522 175.46 64.08 190.802 42.478L166.762 12.182C154.002 34.598 135.326 46.646 109.736 48.982V48.98Z" fill="#5C3783"/>
   <path d="M152.468 67.2979C160.834 67.2979 167.616 61.0855 167.616 53.4219C167.616 45.7585 160.834 39.5459 152.468 39.5459C144.102 39.5459 137.32 45.7585 137.32 53.4219C137.32 61.0855 144.102 67.2979 152.468 67.2979Z" fill="white"/>
   <path d="M157.828 62.8C157.214 63.268 156.95 62.522 156.092 61.224C152.912 63.26 150.206 62.584 149.018 60.884C148.872 60.676 148.916 60.304 149.168 60.112C150.226 59.3 150.364 59.14 150.634 59.184C151.058 59.254 152.598 61.312 155.822 58.862C157.54 57.556 158.814 55.776 157.628 53.988C155.334 50.532 148.186 58.726 144.67 53.41C143.446 51.56 143.576 48.806 146.246 46.368C144.842 44.244 144.834 44.566 146.202 43.524C146.812 43.06 147.098 43.828 147.942 45.104C151.956 42.742 155.466 45.568 154.336 46.424C153.206 47.28 153.2 47.328 152.928 47.368C152.336 47.458 152.274 46.46 150.618 46.498C148.95 46.5361 146.97 48.184 146.376 49.632C145.792 51.054 146.778 52.4921 147.798 52.7541C150.2 53.3701 154.862 49.72 157.806 50.86C160.04 51.724 162.3 55.8661 157.784 59.9561C159.17 62.0441 159.214 61.74 157.828 62.8Z" fill="#5C3783"/>
   <path d="M76.472 109.23L116.398 103.724C120.446 138.374 118.694 165.678 109.514 183.576L73.716 175.66C82.268 158.564 83.456 136.6 76.47 109.23H76.472Z" fill="#FFD997"/>
   <path d="M109.514 184.356L73.548 176.422C73.036 176.306 72.802 175.746 73.018 175.31C81.524 158.132 82.358 136.032 75.712 109.424C75.658 109.208 75.694 108.978 75.822 108.798C76.146 108.34 75.828 108.744 116.29 102.952C116.712 102.892 117.12 103.194 117.168 103.632C121.244 140.22 119.184 166.476 110.206 183.934C110.07 184.2 109.8 184.358 109.512 184.358L109.514 184.356ZM74.856 175.116L109.09 182.684C117.492 165.84 119.722 139.58 115.712 104.608L77.442 109.888C83.972 136.008 83.102 157.942 74.854 175.116H74.856Z" fill="#5C3783"/>
   <path d="M99.522 157.058C107.627 157.058 114.198 150.165 114.198 141.662C114.198 133.159 107.627 126.266 99.522 126.266C91.4166 126.266 84.846 133.159 84.846 141.662C84.846 150.165 91.4166 157.058 99.522 157.058Z" fill="white"/>
   <path d="M110.376 143.98C110.302 144.748 109.568 144.43 108.028 144.184C107.362 147.902 105.034 149.428 102.982 149.146C102.73 149.112 102.488 148.824 102.518 148.51C102.648 147.186 102.616 146.97 102.832 146.802C103.172 146.538 105.728 146.802 106.116 142.776C106.324 140.626 105.882 138.484 103.762 138.14C99.67 137.476 100.836 148.284 94.544 147.266C92.354 146.912 90.416 144.944 90.442 141.328C87.93 140.922 88.158 141.142 88.328 139.43C88.404 138.666 89.162 138.98 90.672 139.222C91.66 134.67 96.12 134.012 95.984 135.426C95.846 136.838 95.878 136.874 95.724 137.104C95.39 137.6 94.616 136.968 93.52 138.212C92.416 139.466 92.284 142.036 92.942 143.452C93.588 144.842 95.318 145.098 96.2 144.53C98.284 143.186 98.77 137.284 101.6 135.894C103.75 134.838 108.328 135.99 108.262 142.084C110.734 142.486 110.546 142.242 110.376 143.982V143.98Z" fill="#5C3783"/>
   <path d="M58.916 115.084C52.054 95.6921 57.714 82.1421 78.192 75.5021L61.67 48.6541C27.4 58.1281 17.268 77.9081 28.628 112.328L58.916 115.084Z" fill="#FFD997"/>
   <path d="M58.922 115.86L28.56 113.104C28.25 113.078 27.986 112.866 27.888 112.57C16.104 76.7521 27.708 57.2301 61.464 47.8981C61.8 47.8061 62.152 47.9461 62.338 48.2421L78.86 75.0899C79.126 75.5279 78.91 76.0859 78.436 76.2419C59.44 82.4839 52.576 94.7221 59.658 114.822C59.84 115.336 59.454 115.86 58.92 115.86H58.922ZM29.208 111.594L57.788 114.19C51.562 95.4241 57.158 81.8701 77.012 75.0641L61.316 49.5581C28.602 58.7881 18.142 77.5681 29.21 111.594H29.208Z" fill="#5C3783"/>
   <path d="M31.258 78.19C34.038 71.524 41.44 68.266 47.794 70.916C54.148 73.566 57.046 81.116 54.266 87.782C51.486 94.448 44.084 97.706 37.73 95.056C31.376 92.408 28.478 84.856 31.258 78.19Z" fill="white"/>
   <path d="M50.514 88.35C50.204 88.928 49.732 88.448 48.61 87.75C46.874 90.448 44.546 90.882 43.03 89.988C42.842 89.878 42.748 89.578 42.876 89.338C43.41 88.34 43.458 88.164 43.68 88.102C44.034 88.004 45.952 89.05 47.57 86.018C48.434 84.398 48.788 82.58 47.238 81.616C44.248 79.758 41.626 88.614 37.026 85.758C35.428 84.764 34.55 82.588 35.75 79.762C33.914 78.624 34.022 78.868 34.712 77.58C35.02 77.006 35.512 77.5 36.616 78.184C38.882 74.938 42.592 75.88 42.024 76.944C41.452 78.018 41.466 78.042 41.268 78.172C40.842 78.448 40.442 77.704 39.18 78.318C37.904 78.94 36.958 80.91 37.012 82.238C37.064 83.54 38.336 84.304 39.216 84.146C41.29 83.774 43.596 79.302 46.276 79.14C48.308 79.016 51.516 81.418 49.478 86.168C51.288 87.294 51.216 87.042 50.516 88.35H50.514Z" fill="#5C3783"/>
   <path d="M42.39 153.972C50.214 182.264 62.192 199.484 77.16 208.702L58.228 236.24C40.298 229.458 23.878 215.466 13.136 174.282L42.39 153.972Z" fill="#FFD997"/>
   <path d="M57.95 236.968C47.394 232.958 39.266 227.154 32.378 218.65C23.962 208.262 17.456 193.802 12.382 174.482C12.298 174.164 12.422 173.828 12.69 173.644L41.944 153.334C42.378 153.03 42.996 153.244 43.14 153.766C50.508 180.602 61.794 198.372 77.56 208.036C77.932 208.264 78.048 208.766 77.794 209.144L58.862 236.682C58.668 236.96 58.306 237.104 57.948 236.968H57.95ZM14.032 174.612C19 193.46 25.402 207.548 33.596 217.668C40.174 225.792 47.924 231.404 57.936 235.288L76.056 208.93C60.532 199.058 49.362 181.482 41.94 155.242L14.032 174.612Z" fill="#5C3783"/>
   <path d="M30.238 196.852C32.8 188.934 40.782 184.426 48.068 186.784C55.352 189.14 59.182 197.47 56.618 205.388C54.056 213.306 46.074 217.814 38.79 215.458C31.506 213.1 27.676 204.772 30.238 196.854V196.852Z" fill="white"/>
   <path d="M35.472 208.242C34.864 207.77 35.516 207.316 36.55 206.15C33.764 203.602 33.718 200.812 35.054 199.232C35.218 199.038 35.588 198.984 35.84 199.18C36.896 199.996 37.088 200.086 37.116 200.358C37.158 200.786 35.566 202.808 38.762 205.286C40.47 206.61 42.516 207.38 43.936 205.776C46.684 202.674 36.924 197.878 41.15 193.104C42.62 191.444 45.318 190.856 48.36 192.812C50.046 190.904 49.732 190.986 51.094 192.04C51.698 192.508 51.028 192.984 50.016 194.128C53.336 197.4 51.508 201.514 50.386 200.65C49.264 199.784 49.22 199.788 49.11 199.534C48.872 198.986 49.816 198.668 49.352 197.08C48.884 195.478 46.782 193.994 45.228 193.79C43.704 193.592 42.57 194.916 42.578 195.966C42.6 198.448 47.334 202.01 46.994 205.146C46.734 207.53 43.316 210.78 38.204 207.472C36.544 209.348 36.85 209.316 35.47 208.244L35.472 208.242Z" fill="#5C3783"/>
   <path d="M22.886 342.692C43.12 341.658 74.706 324.528 83.586 311.932L108.566 338.772C91.944 359.174 69.594 373.184 41.054 380.27C34.55 368.694 28.426 356.322 22.886 342.694V342.692Z" fill="#FFD997"/>
   <path d="M40.32 380.68C33.198 368.134 27.282 355.784 22.108 343.01C21.892 342.478 22.266 341.882 22.846 341.854C43.104 340.848 74.374 323.578 82.906 311.448C83.22 311 83.854 310.982 84.204 311.36L109.184 338.2C109.472 338.51 109.484 338.978 109.22 339.304C92.366 360.04 69.406 373.808 41.258 381.088C40.89 381.184 40.51 381.014 40.322 380.682L40.32 380.68ZM24.104 343.452C29.088 355.584 34.78 367.334 41.474 379.302C68.786 372.396 90.98 358.78 107.454 338.806L83.662 313.242C74.192 325.562 44.372 341.846 24.106 343.45L24.104 343.452Z" fill="#5C3783"/>
   <path d="M67.624 362.948C76.3732 362.948 83.466 356.198 83.466 347.87C83.466 339.542 76.3732 332.792 67.624 332.792C58.8748 332.792 51.782 339.542 51.782 347.87C51.782 356.198 58.8748 362.948 67.624 362.948Z" fill="white"/>
   <path d="M152.468 38.7241C143.664 38.7241 136.502 45.3161 136.502 53.4181C136.502 61.5201 143.666 68.1121 152.468 68.1121C161.27 68.1121 168.434 61.5201 168.434 53.4181C168.434 45.3161 161.272 38.7241 152.468 38.7241ZM166.798 53.4221C166.798 60.6201 160.37 66.4761 152.468 66.4761C144.566 66.4761 138.138 60.6181 138.138 53.4221C138.138 46.2261 144.566 40.3641 152.468 40.3641C160.37 40.3641 166.798 46.2241 166.798 53.4221Z" fill="#5C3783"/>
   <path d="M99.522 125.454C90.978 125.454 84.028 132.728 84.028 141.666C84.028 150.604 90.98 157.878 99.522 157.878C108.064 157.878 115.016 150.604 115.016 141.666C115.016 132.728 108.064 125.454 99.522 125.454ZM113.38 141.666C113.38 149.704 107.164 156.244 99.522 156.244C91.88 156.244 85.664 149.704 85.664 141.666C85.664 133.628 91.88 127.088 99.522 127.088C107.164 127.088 113.38 133.628 113.38 141.666Z" fill="#5C3783"/>
   <path d="M37.418 95.8179C44.056 98.6119 52.036 95.3019 55.03 88.1039C57.964 81.0559 54.934 73.0119 48.114 70.1639C41.234 67.2999 33.404 70.9259 30.506 77.8799C27.608 84.8219 30.534 92.9479 37.418 95.8179ZM32.014 78.5099C33.956 73.8579 38.324 70.8459 43.154 70.8219L43.202 70.8279C47.64 70.8279 51.902 73.4859 53.692 78.1479C56.064 84.3159 53.092 91.4979 47.012 94.1759C37.152 98.5079 27.884 88.4139 32.014 78.5099Z" fill="#5C3783"/>
   <path d="M57.398 205.652C61.736 192.238 48.82 180.576 36.986 187.266C29.688 191.386 26.542 200.904 30.1 208.614C32.554 213.934 37.512 216.91 42.74 216.91L42.78 216.906C49.248 216.888 55.256 212.266 57.398 205.652ZM55.838 205.156C53.418 212.63 45.884 216.914 39.038 214.698C32.196 212.48 28.596 204.592 31.016 197.12C33.362 189.868 40.76 185.292 47.814 187.582C54.488 189.742 58.316 197.5 55.836 205.154L55.838 205.156Z" fill="#5C3783"/>
   <path d="M67.624 331.976C58.438 331.976 50.964 339.106 50.964 347.87C50.964 356.634 58.438 363.764 67.624 363.764C76.81 363.764 84.284 356.636 84.284 347.87C84.284 339.104 76.81 331.976 67.624 331.976ZM82.646 347.87C82.646 355.734 75.906 362.13 67.624 362.13C59.342 362.13 52.6 355.734 52.6 347.87C52.6 340.006 59.34 333.61 67.624 333.61C75.908 333.61 82.646 340.006 82.646 347.87Z" fill="#5C3783"/>
   <path d="M73.53 357.39C72.92 357.866 72.638 357.12 71.76 355.832C68.608 357.912 65.896 357.272 64.686 355.594C64.536 355.386 64.58 355.016 64.828 354.822C65.878 354 66.012 353.834 66.28 353.872C66.708 353.934 68.278 355.976 71.464 353.48C73.164 352.148 74.414 350.352 73.204 348.58C70.866 345.156 63.828 353.446 60.236 348.182C58.986 346.35 59.074 343.59 61.716 341.118C60.282 339.016 60.276 339.338 61.632 338.28C62.236 337.808 62.532 338.572 63.394 339.838C67.376 337.418 70.922 340.196 69.808 341.07C68.682 341.954 68.686 341.992 68.412 342.038C67.824 342.134 67.75 341.142 66.09 341.204C64.42 341.266 62.47 342.94 61.892 344.396C61.326 345.822 62.334 347.252 63.358 347.5C65.77 348.084 70.378 344.368 73.34 345.464C75.588 346.296 77.906 350.408 73.446 354.554C74.858 356.624 74.902 356.32 73.53 357.392V357.39Z" fill="#5C3783"/>
</svg>