<svg width="76" height="36" viewBox="0 0 76 36" fill="none" xmlns="http://www.w3.org/2000/svg">
   <path d="M18.0005 25.905L24.2255 29.67C25.3655 30.36 26.7605 29.34 26.4605 28.05L24.8105 20.97L30.3155 16.2C31.3205 15.33 30.7805 13.68 29.4605 13.575L22.2155 12.96L19.3805 6.27001C18.8705 5.05501 17.1305 5.05501 16.6205 6.27001L13.7855 12.945L6.54048 13.56C5.22048 13.665 4.68048 15.315 5.68548 16.185L11.1905 20.955L9.54048 28.035C9.24048 29.325 10.6355 30.345 11.7755 29.655L18.0005 25.905Z" fill="#F7D93B"/>
   <path d="M58.0005 25.905L64.2255 29.67C65.3655 30.36 66.7605 29.34 66.4605 28.05L64.8105 20.97L70.3155 16.2C71.3205 15.33 70.7805 13.68 69.4605 13.575L62.2155 12.96L59.3805 6.27001C58.8705 5.05501 57.1305 5.05501 56.6205 6.27001L53.7855 12.945L46.5405 13.56C45.2205 13.665 44.6805 15.315 45.6855 16.185L51.1905 20.955L49.5405 28.035C49.2405 29.325 50.6355 30.345 51.7755 29.655L58.0005 25.905Z" fill="#F7D93B"/>
</svg>