<svg width="185" height="185" viewBox="0 0 185 185" fill="none" xmlns="http://www.w3.org/2000/svg">
   <path d="M152.264 45.6673C152.641 45.5875 152.986 45.3975 153.254 45.1215C153.223 45.2747 153.182 45.4261 153.134 45.5748C153.06 45.8245 153.337 45.8985 153.43 45.7413C153.757 45.2556 153.886 44.6632 153.791 44.0855C153.786 44.0309 153.765 43.9789 153.732 43.9355C153.699 43.8921 153.653 43.8592 153.602 43.8407C153.55 43.8223 153.494 43.8189 153.441 43.8312C153.388 43.8434 153.339 43.8707 153.3 43.9098C152.912 44.3815 152.838 45.0475 152.181 45.251C152.129 45.2652 152.084 45.2986 152.056 45.3444C152.028 45.3903 152.018 45.4451 152.028 45.498C152.039 45.5508 152.069 45.5977 152.113 45.6291C152.157 45.6605 152.211 45.6742 152.264 45.6673ZM150.442 42.55C150.494 42.5832 150.553 42.6019 150.615 42.6041C150.676 42.6063 150.737 42.5921 150.791 42.5627C150.845 42.5334 150.89 42.4902 150.921 42.4375C150.952 42.3848 150.969 42.3246 150.969 42.2633C150.969 42.1893 150.969 42.106 150.525 41.44C150.433 41.3013 150.322 41.0423 150.081 41.1718C149.841 41.3013 150.007 41.5418 150.137 41.8655C150.396 42.55 150.396 42.55 150.442 42.55ZM150.294 40.8573C150.747 40.8573 151.062 40.8573 151.117 41.2365C151.125 41.2929 151.154 41.3441 151.199 41.3788C151.244 41.4135 151.301 41.4289 151.358 41.4215C151.414 41.4142 151.465 41.3847 151.5 41.3396C151.535 41.2945 151.55 41.2374 151.543 41.181C151.47 40.8813 151.293 40.617 151.045 40.4343C150.796 40.2517 150.491 40.1623 150.183 40.182C150.11 40.2124 150.049 40.2667 150.011 40.3359C149.972 40.4052 149.958 40.4854 149.971 40.5636C149.984 40.6418 150.023 40.7133 150.082 40.7666C150.14 40.8199 150.215 40.8519 150.294 40.8573ZM37.1573 69.0513C34.5627 70.3063 31.7075 70.928 28.8259 70.8653C25.9444 70.8026 23.1189 70.0573 20.5813 68.6905C20.5347 68.6623 20.4788 68.6538 20.4259 68.6668C20.373 68.6798 20.3274 68.7133 20.2992 68.7599C20.271 68.8065 20.2625 68.8624 20.2755 68.9153C20.2885 68.9682 20.322 69.0138 20.3686 69.042C25.4376 72.3443 32.8838 72.5293 37.2961 69.2918C37.328 69.2734 37.3513 69.2431 37.3608 69.2075C37.3703 69.1719 37.3654 69.134 37.347 69.1021C37.3286 69.0702 37.2983 69.047 37.2627 69.0374C37.2271 69.0279 37.1892 69.0329 37.1573 69.0513ZM36.4728 41.625C37.0001 41.8378 37.8696 41.625 37.6383 41.1348C37.484 40.7607 37.3753 40.3694 37.3146 39.9693C37.3146 39.9128 37.2922 39.8587 37.2523 39.8188C37.2124 39.7789 37.1583 39.7565 37.1018 39.7565C37.0454 39.7565 36.9913 39.7789 36.9514 39.8188C36.9115 39.8587 36.8891 39.9128 36.8891 39.9693C36.8835 40.3606 36.9208 40.7515 37.0001 41.1348C36.8739 41.2065 36.7279 41.2357 36.5838 41.218C36.5571 41.2107 36.5292 41.2088 36.5017 41.2123C36.4743 41.2158 36.4477 41.2246 36.4237 41.2384C36.3996 41.2521 36.3785 41.2705 36.3616 41.2924C36.3446 41.3143 36.3321 41.3393 36.3248 41.366C36.3176 41.3927 36.3156 41.4206 36.3191 41.4481C36.3226 41.4756 36.3315 41.5021 36.3452 41.5262C36.3589 41.5502 36.3773 41.5713 36.3992 41.5883C36.4211 41.6052 36.4461 41.6177 36.4728 41.625ZM35.4091 39.5993C35.5523 39.2665 35.6698 38.9233 35.7606 38.5725C35.7689 38.5403 35.7706 38.5068 35.7657 38.4739C35.7609 38.441 35.7495 38.4094 35.7323 38.381C35.715 38.3526 35.6923 38.3279 35.6654 38.3083C35.6385 38.2888 35.608 38.2748 35.5756 38.2673C35.2981 38.184 35.2518 38.48 35.1131 38.8408C35.0334 39.0202 34.9685 39.2058 34.9188 39.3958C34.9185 39.4527 34.9352 39.5084 34.9667 39.5559C34.9982 39.6033 35.0431 39.6403 35.0957 39.6621C35.1482 39.6839 35.2061 39.6896 35.2619 39.6784C35.3178 39.6672 35.369 39.6397 35.4091 39.5993ZM38.4893 40.4688C38.542 40.4919 38.6006 40.4981 38.6569 40.4865C38.7133 40.4749 38.7646 40.4461 38.8038 40.404C38.9457 40.0707 39.0632 39.7276 39.1553 39.3773C39.1651 39.3457 39.1682 39.3124 39.1645 39.2796C39.1609 39.2467 39.1504 39.215 39.134 39.1864C39.1175 39.1577 39.0952 39.1328 39.0687 39.1131C39.0421 39.0934 39.0118 39.0794 38.9796 39.072C38.6928 38.9888 38.6373 39.3218 38.5171 39.6363C38.3968 39.9508 38.1656 40.3393 38.4893 40.4688ZM34.0493 42.365C34.3814 42.5313 34.7617 42.5739 35.1223 42.4853C35.3536 42.3835 35.1963 42.032 34.9743 42.106C34.73 42.0893 34.4956 42.0026 34.2991 41.8563C34.1739 41.7742 34.0662 41.6682 33.9821 41.5444C33.8979 41.4206 33.8391 41.2814 33.8088 41.1348C33.7441 40.7463 33.1336 40.8943 33.2261 41.2828C33.271 41.5143 33.3686 41.7323 33.5114 41.92C33.6542 42.1077 33.8382 42.2599 34.0493 42.365ZM99.8076 143.625C99.8076 143.379 99.7101 143.144 99.5367 142.971C99.3632 142.797 99.1279 142.7 98.8826 142.7C98.6373 142.7 98.402 142.797 98.2285 142.971C98.055 143.144 97.9576 143.379 97.9576 143.625C97.9576 143.87 98.055 144.105 98.2285 144.279C98.402 144.452 98.6373 144.55 98.8826 144.55C99.1279 144.55 99.3632 144.452 99.5367 144.279C99.7101 144.105 99.8076 143.87 99.8076 143.625ZM99.7891 152.736C99.9352 152.75 100.083 152.733 100.222 152.686C100.361 152.64 100.489 152.565 100.598 152.466C100.706 152.367 100.793 152.247 100.852 152.112C100.912 151.978 100.942 151.833 100.942 151.686C100.942 151.539 100.912 151.394 100.852 151.26C100.793 151.126 100.706 151.005 100.598 150.906C100.489 150.808 100.361 150.732 100.222 150.686C100.083 150.639 99.9352 150.623 99.7891 150.636C99.6429 150.623 99.4955 150.639 99.3563 150.686C99.2171 150.732 99.0891 150.808 98.9805 150.906C98.872 151.005 98.7853 151.126 98.7259 151.26C98.6666 151.394 98.6359 151.539 98.6359 151.686C98.6359 151.833 98.6666 151.978 98.7259 152.112C98.7853 152.247 98.872 152.367 98.9805 152.466C99.0891 152.565 99.2171 152.64 99.3563 152.686C99.4955 152.733 99.6429 152.75 99.7891 152.736ZM100.057 160.229C99.8054 160.253 99.5715 160.37 99.4013 160.557C99.2311 160.744 99.1367 160.988 99.1367 161.241C99.1367 161.494 99.2311 161.738 99.4013 161.926C99.5715 162.113 99.8054 162.23 100.057 162.254C100.309 162.23 100.543 162.113 100.713 161.926C100.884 161.738 100.978 161.494 100.978 161.241C100.978 160.988 100.884 160.744 100.713 160.557C100.543 160.37 100.309 160.253 100.057 160.229ZM94.4426 120.056C94.8984 122.471 95.2073 124.911 95.3676 127.363C95.3676 127.449 95.4017 127.531 95.4624 127.592C95.5231 127.653 95.6055 127.687 95.6913 127.687C95.7772 127.687 95.8596 127.653 95.9203 127.592C95.981 127.531 96.0151 127.449 96.0151 127.363C95.8337 124.87 95.4532 122.396 94.8773 119.963C94.8537 119.919 94.8164 119.884 94.7709 119.862C94.7254 119.841 94.6742 119.835 94.6251 119.846C94.5761 119.856 94.5317 119.882 94.4988 119.92C94.4658 119.958 94.4461 120.006 94.4426 120.056ZM96.2001 147.14C96.2001 147.076 96.1748 147.015 96.1297 146.97C96.0845 146.925 96.0234 146.899 95.9596 146.899C95.8958 146.899 95.8346 146.925 95.7895 146.97C95.7444 147.015 95.7191 147.076 95.7191 147.14C95.6266 153.476 95.5156 168.618 95.5711 170.265C95.5837 170.338 95.6218 170.404 95.6785 170.452C95.7352 170.499 95.8069 170.526 95.881 170.526C95.9551 170.526 96.0268 170.499 96.0835 170.452C96.1402 170.404 96.1782 170.338 96.1908 170.265C96.3203 167.277 96.2001 148.62 96.2001 147.14ZM121.027 83.5183C121.037 83.5442 121.055 83.5662 121.078 83.5812C121.101 83.5962 121.129 83.6033 121.157 83.6015C123.599 82.3403 125.797 80.6553 127.65 78.625C127.676 78.5975 127.691 78.5611 127.691 78.5233C127.691 78.4854 127.676 78.449 127.65 78.4215C125.532 76.923 119.547 74.4348 119.538 75.1378C119.491 78.001 119.997 80.8465 121.027 83.5183ZM52.9286 96.94C53.678 96.971 54.4183 96.7663 55.0455 96.3549C55.6726 95.9434 56.1551 95.3458 56.4251 94.646C56.6748 93.8598 56.5823 93.721 55.8238 89.1423C56.3769 89.5859 56.9578 89.9937 57.5628 90.3633C57.7532 90.4367 57.964 90.4368 58.1545 90.3636C58.3449 90.2903 58.5013 90.149 58.5935 89.967C58.6857 89.785 58.707 89.5753 58.6532 89.3784C58.5995 89.1816 58.4747 89.0117 58.3028 88.9018C56.7555 88.0968 55.5669 86.7399 54.9728 85.1C54.8896 84.8133 53.8073 84.7208 53.4003 85.4145C53.4003 85.4978 54.8156 93.3603 54.8341 93.4435C54.8944 93.6802 54.8944 93.9283 54.8341 94.165C54.6966 94.4621 54.4864 94.7196 54.2228 94.9137C53.9592 95.1077 53.6508 95.232 53.3263 95.275C53.0677 95.3261 52.8014 95.3253 52.543 95.2726C52.2847 95.2199 52.0394 95.1163 51.8214 94.9679C51.6035 94.8194 51.4172 94.6292 51.2734 94.4081C51.1297 94.187 51.0314 93.9396 50.9841 93.6802C50.9369 93.4207 50.9417 93.1545 50.9984 92.897C51.055 92.6394 51.1623 92.3957 51.3139 92.18C51.4656 91.9643 51.6587 91.781 51.8819 91.6406C52.1051 91.5002 52.354 91.4056 52.6141 91.3623C52.8312 91.3242 53.0243 91.2015 53.151 91.0211C53.2776 90.8407 53.3274 90.6174 53.2893 90.4003C53.2513 90.1832 53.1286 89.99 52.9482 89.8634C52.7678 89.7368 52.5445 89.687 52.3273 89.725C51.6856 89.8322 51.0835 90.1066 50.5816 90.5208C50.0798 90.9349 49.6961 91.474 49.4691 92.0838C49.2608 92.635 49.1914 93.2291 49.2671 93.8136C49.3428 94.398 49.5613 94.9549 49.9032 95.4348C50.2452 95.9148 50.7001 96.3032 51.2277 96.5658C51.7553 96.8283 52.3395 96.9568 52.9286 96.94Z" fill="#5C3783"/>
   <path d="M63.1775 90.5298C63.0804 88.6608 62.4258 86.8636 61.2982 85.37C60.1705 83.8763 58.6214 82.7546 56.8505 82.1493C48.8677 79.4483 41.5232 88.8 46.25 95.8948C47.3651 97.5558 48.9887 98.8105 50.8772 99.4707C52.7657 100.131 54.8174 100.161 56.7245 99.5567C58.6316 98.9523 60.2914 97.7458 61.4548 96.1183C62.6183 94.4907 63.2227 92.5299 63.1775 90.5298ZM48.3775 84.6098C54.0477 79.3928 62.3727 83.6848 62.5947 90.539C62.5738 92.285 62.0702 93.9911 61.1396 95.4686C60.209 96.946 58.8878 98.1372 57.3222 98.9103C52.1607 101.158 45.9262 97.2823 45.4915 91.8248C45.3773 90.483 45.576 89.133 46.072 87.8811C46.568 86.6291 47.3477 85.5093 48.3497 84.6098H48.3775ZM114.7 83.3425C115.503 84.5724 116.591 85.5913 117.87 86.3131C119.15 87.035 120.584 87.4387 122.052 87.4904C123.52 87.542 124.979 87.24 126.307 86.6098C127.634 85.9797 128.79 85.0398 129.678 83.8693C130.565 82.6989 131.159 81.3322 131.408 79.8844C131.657 78.4366 131.555 76.9501 131.11 75.5501C130.664 74.1502 129.889 72.8778 128.849 71.8402C127.809 70.8025 126.535 70.03 125.134 69.5878C116.827 67.0163 110.149 76.6918 114.7 83.3425ZM116.827 72.0668C122.609 66.7388 130.823 71.3545 131.035 77.996C131.017 79.7379 130.518 81.4409 129.595 82.9178C128.671 84.3947 127.358 85.5882 125.8 86.3673C120.648 88.615 114.404 84.7485 113.96 79.2818C113.848 77.9368 114.052 76.5843 114.554 75.3318C115.057 74.0793 115.845 72.9614 116.855 72.0668H116.827ZM57.6552 39.553C50.8195 25.123 33.3 18.9718 19.166 28.5918C0.850968 41.107 5.17997 67.525 25.7705 74.629C45.88 81.77 67.8302 61.05 57.6552 39.553ZM44.77 72.7605C43.0914 73.5825 41.3216 74.2034 39.4975 74.6105C39.6177 73.4635 39.7657 70.5035 39.8212 69.116C40.6907 70.5035 42.2632 71.891 44.215 71.6135C45.917 71.3453 47.4247 69.7635 48.84 66.9885C50.2256 63.9559 51.0048 60.6817 51.134 57.35C51.2847 56.9644 51.3812 56.5597 51.4207 56.1475C51.8908 55.0645 52.4379 54.0165 53.058 53.0118C53.3909 52.7215 53.6806 52.3851 53.9182 52.0128C54.1767 51.2957 54.2343 50.5217 54.0847 49.7743C54.0557 49.0247 53.7792 48.3058 53.2985 47.73C53.6777 46.9623 54.7322 43.4565 54.908 42.772C54.9231 42.6987 54.9107 42.6223 54.8732 42.5575C54.8356 42.4927 54.7756 42.4439 54.7045 42.4205C52.85 42.1378 50.9742 42.0201 49.099 42.069C49.0342 41.9488 45.7042 51.4578 45.399 52.244C45.3849 52.2871 45.3797 52.3326 45.3838 52.3778C45.3879 52.4229 45.4012 52.4668 45.4229 52.5066C45.4445 52.5465 45.4741 52.5815 45.5097 52.6095C45.5454 52.6375 45.5864 52.6579 45.6302 52.6695C46.5495 52.8121 47.4759 52.9048 48.4052 52.947C48.4052 53.3448 48.2295 54.4455 48.1647 54.797C47.901 55.1319 47.6861 55.5025 47.5265 55.8978C46.378 56.8966 45.5696 58.2288 45.214 59.7088C43.5767 52.5215 42.439 49.432 35.964 45.8338C35.6402 45.658 35.2517 45.5285 34.9002 45.2973C39.3772 46.3703 39.8767 46.879 40.0432 46.657C45.1122 39.516 42.7535 31.3483 37.555 28.0645C32.6895 24.5495 27.8887 27.8703 26.1405 33.4295C24.8455 37.8048 27.0655 41.6343 28.2125 43.2253C27.158 43.327 26.7972 43.4473 25.9555 43.5398C18.833 44.3075 13.061 52.8453 10.4155 59.5145C2.52522 41.4123 19.7117 20.8033 39.6917 25.5763C62.53 31.8385 66.6832 62.16 44.77 72.7605ZM16.4742 68.1355C17.1772 67.044 18.9347 64.01 19.3417 63.2978C24.4847 67.2568 34.1417 67.7748 39.2107 64.3985C39.2107 64.5558 38.9795 73.4728 38.9795 74.74C34.973 75.4733 30.8505 75.2578 26.9424 74.1109C23.0342 72.964 19.449 70.9175 16.4742 68.1355ZM45.4915 61.7715C45.4748 61.483 45.4408 61.1957 45.3897 60.9113C45.473 60.6523 45.5285 60.421 45.6117 60.1158C46.213 61.1148 48.2017 62.8908 49.025 62.9925C49.0664 62.9958 49.1077 62.985 49.1423 62.9619C49.1768 62.9388 49.2026 62.9047 49.2154 62.8652C49.2282 62.8256 49.2274 62.7829 49.213 62.7439C49.1985 62.7049 49.1714 62.672 49.136 62.6503C47.7665 61.7991 46.6664 60.5771 45.9632 59.126C46.1762 58.5457 46.4893 58.0072 46.8882 57.535C47.6133 58.6731 48.6329 59.5937 49.839 60.199C49.8602 60.2045 49.8823 60.2057 49.9041 60.2026C49.9258 60.1995 49.9467 60.1922 49.9656 60.181C49.9845 60.1699 50.001 60.1551 50.0142 60.1375C50.0274 60.12 50.037 60.1 50.0425 60.0788C50.0479 60.0575 50.0492 60.0354 50.0461 60.0137C50.043 59.9919 50.0357 59.971 50.0245 59.9521C50.0133 59.9332 49.9985 59.9167 49.981 59.9035C49.9634 59.8903 49.9435 59.8807 49.9222 59.8753C48.8404 59.1317 47.9497 58.1427 47.323 56.9893C47.4432 56.8413 47.5727 56.6933 47.7022 56.5545C48.4452 57.2857 49.4354 57.7115 50.4772 57.7478C50.3136 60.5202 49.7433 63.2535 48.7845 65.86C48.0265 67.6925 46.8401 69.3166 45.325 70.596C46.5997 68.1216 46.8905 65.2564 46.139 62.5763C46.1204 62.5129 46.0812 62.4575 46.0276 62.4189C45.974 62.3804 45.909 62.3609 45.843 62.3635C45.0567 62.3635 46.1575 65.5825 40.6167 69.1438C40.3305 68.734 40.0739 68.3044 39.849 67.858C39.9045 64.713 39.775 61.5773 39.6455 58.5433C39.6455 58.4868 39.6231 58.4327 39.5832 58.3928C39.5433 58.3529 39.4891 58.3305 39.4327 58.3305C39.3763 58.3305 39.3222 58.3529 39.2823 58.3928C39.2424 58.4327 39.22 58.4868 39.22 58.5433C39.2755 60.1528 39.22 61.7438 39.22 63.6493C36.112 65.601 32.5507 66.2763 27.9997 65.7675C24.9724 65.6081 22.0556 64.5769 19.6007 62.7983C19.9245 62.2063 21.275 59.6163 21.6542 58.9225C21.6725 58.8909 21.682 58.855 21.6816 58.8185C21.6812 58.782 21.671 58.7463 21.6521 58.7151C21.6332 58.6839 21.6063 58.6583 21.5741 58.6411C21.5419 58.6239 21.5057 58.6157 21.4692 58.6173C21.2472 58.6173 21.4692 58.5618 19.6192 61.7345C16.7013 60.5915 14.3449 58.3546 13.0517 55.5C14.5489 52.6419 16.5122 50.0534 18.8607 47.841C20.0671 49.5159 21.5978 50.9312 23.362 52.0028C25.1262 53.0745 27.0877 53.7805 29.1301 54.0791C31.1726 54.3776 33.2542 54.2626 35.2513 53.7408C37.2483 53.219 39.1201 52.301 40.7555 51.0415C40.7868 51.0081 40.8053 50.9646 40.8078 50.9188C40.8102 50.873 40.7963 50.8279 40.7686 50.7913C40.7409 50.7548 40.7012 50.7292 40.6565 50.7191C40.6117 50.7091 40.5649 50.7151 40.5242 50.7363C39.1818 51.6587 37.723 52.399 36.186 52.9378C33.1539 53.8981 29.8964 53.8788 26.876 52.8825C23.8555 51.8862 21.2258 49.9636 19.3602 47.3878C20.2461 46.6689 21.2076 46.0486 22.2277 45.5378C25.7335 53.428 34.3822 53.9923 38.5632 48.3128C40.7277 49.9963 41.3937 50.209 43.1235 54.39C39.1552 57.8495 35.5385 59.57 32.079 59.533C29.2042 59.5531 26.3625 58.9199 23.7683 57.6813C21.174 56.4426 18.895 54.6309 17.1032 52.3828C16.9552 52.1793 16.6222 52.3828 16.7702 52.6048C19.5452 56.832 24.8085 59.607 31.2465 60.2175C35.6032 60.643 40.2282 58.1548 43.3362 54.9913C43.8172 56.5823 44.4 58.9225 44.4647 59.2C44.178 60.125 41.0792 63.0018 40.589 63.1128C40.3022 63.1775 40.4502 63.6215 40.7092 63.5105C42.2001 62.6478 43.5429 61.5516 44.6867 60.2638C44.7885 60.7448 44.9735 61.605 45.0012 61.8178C45.029 62.0305 45.51 62.0675 45.4915 61.7715ZM51.0415 47.8225C50.9268 47.7903 50.806 47.7865 50.6896 47.8116C50.5732 47.8366 50.4647 47.8898 50.3735 47.9664C50.2823 48.043 50.2112 48.1407 50.1664 48.2511C50.1216 48.3614 50.1045 48.481 50.1165 48.5995C49.1267 48.8123 49.1915 49.5245 49.765 49.987C50.3327 50.3453 50.9194 50.6726 51.5225 50.9675C51.3097 51.4763 51.1432 51.8925 50.9212 52.3828C49.9962 52.3828 47.1195 52.207 46.1205 52.1238C46.4905 50.9675 48.4422 45.5933 49.5152 42.6888C50.4402 42.735 53.3355 42.809 54.2697 42.957C54.0477 43.882 53.1042 46.5738 52.836 47.4155C52.6931 47.3213 52.5327 47.257 52.3644 47.2264C52.196 47.1959 52.0232 47.1997 51.8564 47.2377C51.6896 47.2758 51.5322 47.3472 51.3937 47.4477C51.2553 47.5482 51.1386 47.6757 51.0507 47.8225H51.0415ZM51.4485 52.8268C51.6057 52.3273 51.8 51.8463 52.059 51.2173C52.1002 51.2245 52.1426 51.2182 52.18 51.1994C52.2173 51.1806 52.2476 51.1502 52.2663 51.1128C52.285 51.0754 52.2912 51.0329 52.2838 50.9918C52.2764 50.9506 52.256 50.9129 52.2255 50.8843C51.9942 50.6715 49.8482 49.5338 49.9315 49.3118C50.0147 49.0898 50.5512 49.247 50.8565 49.4228C51.4585 49.6707 52.0766 49.8777 52.7065 50.0425C52.7469 50.0469 52.7877 50.0378 52.8225 50.0167C52.8573 49.9956 52.8841 49.9636 52.8988 49.9256C52.9136 49.8877 52.9154 49.846 52.9041 49.8069C52.8927 49.7678 52.8688 49.7336 52.836 49.7095C52.1136 49.4473 51.4091 49.1384 50.727 48.7845C50.5882 48.655 50.5235 48.3035 50.727 48.3128C51.4066 48.4747 52.0396 48.7912 52.577 49.2378C52.5982 49.2578 52.6232 49.2735 52.6505 49.2838C52.6778 49.2942 52.7069 49.2991 52.7361 49.2983C52.7653 49.2974 52.7941 49.2908 52.8207 49.2788C52.8474 49.2669 52.8714 49.2498 52.8915 49.2285C52.9115 49.2073 52.9272 49.1823 52.9375 49.1549C52.9479 49.1276 52.9528 49.0985 52.952 49.0693C52.9511 49.0401 52.9445 49.0114 52.9325 48.9847C52.9206 48.9581 52.9035 48.9341 52.8822 48.914C52.5347 48.6397 52.1667 48.3923 51.7815 48.174C51.319 47.9058 51.652 47.5728 52.1145 47.6375C52.7342 47.73 53.5297 48.5625 53.4465 50.2738C53.5235 50.7334 53.4638 51.2055 53.2746 51.6315C53.0855 52.0575 52.7753 52.4184 52.3827 52.6695C51.7866 53.6154 51.2818 54.6158 50.875 55.6573C50.4682 55.7625 50.0399 55.7497 49.6401 55.6203C49.2404 55.4909 48.8858 55.2502 48.618 54.9265C48.6827 54.6028 48.877 53.4928 48.9325 53.0765C50.9952 53.1413 51.356 53.132 51.4577 52.8268H51.4485ZM45.7782 64.0285C46.0967 66.3888 45.7072 68.7904 44.659 70.929C43.9832 71.1227 43.2638 71.1012 42.6008 70.8675C41.9378 70.6337 41.3639 70.1994 40.959 69.6248C43.213 68.4331 44.9342 66.4344 45.7782 64.0285ZM28.7582 44.0578C28.7747 44.0772 28.7962 44.0918 28.8204 44.0999C28.8446 44.1079 28.8706 44.1092 28.8954 44.1034C28.9203 44.0977 28.9431 44.0852 28.9613 44.0674C28.9795 44.0495 28.9925 44.027 28.9987 44.0023C30.3955 38.5078 30.3585 38.85 30.229 38.776C28.675 37.925 29.1652 36.2693 29.7942 36.075C30.1087 35.9733 30.525 36.1768 30.9412 36.6393C31.213 36.8948 31.4193 37.2121 31.5425 37.5643C32.4675 40.1543 37.592 36.741 39.812 35.1038C39.966 34.9757 40.1482 34.886 40.3436 34.8419C40.5391 34.7979 40.7421 34.8008 40.9362 34.8505C41.1303 34.9001 41.3098 34.9951 41.4601 35.1275C41.6104 35.26 41.7271 35.4262 41.8007 35.6125C42.0135 36.0195 41.625 36.3618 41.3937 35.9178C40.9127 35.1038 40.071 35.557 40.0895 35.779C40.2745 38.073 39.849 41.329 38.0637 42.92C36.2785 44.511 34.2065 43.6878 34.0215 43.845C33.8365 44.0023 33.9382 44.1503 33.9382 44.326C33.8555 44.5223 33.8188 44.735 33.8309 44.9477C33.843 45.1604 33.9035 45.3675 34.008 45.5531C34.1124 45.7388 34.258 45.8981 34.4335 46.0189C34.6089 46.1397 34.8097 46.2188 35.0205 46.25C35.7764 46.5357 36.4965 46.9082 37.1665 47.36C33.8735 52.4475 26.677 51.6983 23.9205 44.844C25.4614 44.3179 27.0675 44.0066 28.6935 43.919L28.7582 44.0578ZM12.7465 56.0828C13.3441 57.511 14.2363 58.7971 15.3648 59.857C16.4933 60.917 17.8327 61.7269 19.2955 62.234C19.1845 62.4098 16.6037 66.6278 15.9932 67.6638C13.7473 65.506 11.9218 62.9497 10.6097 60.125C11.5255 58.4785 12.025 57.4795 12.7465 56.092V56.0828ZM174.418 39.6918C169.21 23.0418 150.442 15.392 135.864 24.2535C119.436 34.225 118.455 56.425 134.125 67.636C154.715 82.325 181.577 62.049 174.418 39.6918ZM146.298 64.9258C149.36 68.9865 152.431 69.301 154.484 68.8293C158.314 67.9598 161.671 63.6585 162.652 58.3583C162.665 58.2957 162.654 58.2304 162.619 58.1766C162.584 58.1228 162.53 58.085 162.467 58.0715C162.404 58.058 162.339 58.0699 162.285 58.1046C162.231 58.1393 162.194 58.194 162.18 58.2565C161.745 60.5197 160.795 62.6527 159.405 64.491C153.966 71.5765 148.305 68.117 143.967 60.273C142.557 58.024 141.766 55.4426 141.673 52.7898C143.874 51.7538 143.828 51.6983 144.087 51.9203C146.659 54.131 151.33 59.4035 151.977 60.1158C151.989 60.1772 152.022 60.2327 152.07 60.2726C152.118 60.3126 152.179 60.3344 152.241 60.3344C152.304 60.3344 152.364 60.3126 152.412 60.2726C152.46 60.2327 152.493 60.1772 152.505 60.1158C153.541 55.9348 154.355 51.5965 157.435 48.6088C158.579 48.3455 159.737 48.1509 160.904 48.026C165.001 53.206 164.419 60.1158 164.4 66.674C161.653 68.7717 158.497 70.271 155.136 71.0755C151.774 71.88 148.282 71.9719 144.883 71.3453C145.083 69.1544 145.558 66.9976 146.298 64.9258ZM161.69 47.9428C162.189 47.9428 162.143 47.1288 161.69 47.1935C159.759 47.3546 157.864 47.8035 156.066 48.5255C155.816 48.6273 155.529 48.6828 155.622 48.9325C155.714 49.1823 155.918 48.9973 156.612 48.8215C153.892 51.6983 152.865 55.7498 152.153 59.3943C151.644 58.7745 150.386 57.3408 150.063 56.9708C152.912 50.69 152.754 50.4958 154.429 49.2285C155.076 48.7105 157.712 46.805 159.895 45.436C161.061 44.696 161.893 44.178 163.836 46.8698C165.64 49.3765 165.686 49.4135 164.53 54.9173C164.182 52.3829 163.181 49.9825 161.625 47.952L161.69 47.9428ZM141.34 42.4945C141.506 42.4945 141.59 42.624 141.719 42.8183C144.772 47.4433 144.54 46.916 144.54 47.0085C144.54 47.4525 145.142 48.1185 145.743 48.6828C145.253 48.8678 144.337 49.2378 143.791 49.4598C143.791 47.7578 142.589 47.7578 142.265 48.47C141.691 47.6283 140.415 45.9633 140.156 45.6395C140.086 45.5399 139.991 45.4602 139.881 45.4083C139.77 45.3564 139.648 45.3341 139.527 45.3435C139.092 44.7885 138.112 43.4935 137.732 42.9293C137.825 42.9108 141.044 42.55 141.331 42.4945H141.34ZM147.63 51.2635C147.491 52.392 145.724 51.134 146.409 50.505C146.535 50.7192 146.712 50.8999 146.922 51.0319C147.133 51.1639 147.373 51.2433 147.621 51.2635H147.63ZM147.528 50.6808C147.149 50.616 146.381 49.7558 146.603 49.5615C146.825 49.3673 147.778 50.5328 147.759 50.6715C147.682 50.6977 147.598 50.7009 147.519 50.6808H147.528ZM149.646 56.5545C148.842 55.7035 145.188 51.9295 145.095 51.8555C144.961 51.6552 144.788 51.4839 144.586 51.352C144.384 51.2201 144.158 51.1302 143.921 51.0878C143.799 50.7728 143.752 50.4342 143.782 50.098L146.168 49.0805C146.39 49.2748 146.168 49.0805 146.057 49.506C146.004 49.7045 146.028 49.9157 146.122 50.098C145.197 50.7825 146.122 52.3735 147.343 52.2533C147.706 52.5018 148.02 52.8155 148.268 53.1783C148.542 54.1225 148.93 55.0296 149.424 55.8793C149.73 56.425 149.711 56.3603 149.637 56.5545H149.646ZM148.86 53.2523C148.86 52.9563 149.924 51.8463 150.09 51.7075C150.586 51.8516 151.069 52.0373 151.533 52.2625C151.265 52.873 150.405 54.8248 149.979 55.8145C149.515 55.002 149.137 54.1433 148.851 53.2523H148.86ZM148.481 52.6603C148.302 52.4245 148.09 52.2158 147.852 52.0405C147.966 51.9174 148.052 51.7707 148.103 51.6109C148.154 51.4511 148.169 51.282 148.148 51.1155C148.201 51.0801 148.246 51.0337 148.279 50.9794C148.313 50.9252 148.334 50.8643 148.342 50.801C148.416 50.3663 147.926 50.0055 147.602 49.7003C146.644 48.9484 145.792 48.0711 145.068 47.0918C145.803 47.46 146.505 47.8901 147.167 48.3775C148.277 49.2008 149.702 49.9778 149.591 51.3468C149.183 51.7533 148.808 52.1926 148.472 52.6603H148.481ZM139.675 45.8985C140.615 46.9605 141.478 48.0888 142.256 49.2748C142.283 49.316 142.321 49.3484 142.366 49.3678C142.412 49.3873 142.462 49.3929 142.51 49.384C142.558 49.3751 142.603 49.3521 142.639 49.3178C142.674 49.2836 142.698 49.2396 142.709 49.1915C142.709 48.9325 142.829 48.47 143.07 48.5718C143.578 49.2655 143.07 50.3478 143.412 51.208C140.933 52.2995 142.959 52.022 141.432 50.283C140.017 48.7938 139.462 46.3703 139.675 45.8985ZM149.212 44.9735C149.549 43.7633 149.549 42.4837 149.212 41.2735C149.074 40.7342 148.991 40.1827 148.962 39.627C149.518 39.6863 150.079 39.6613 150.627 39.553C152.246 39.2848 153.078 38.4153 153.476 38.6835C153.735 38.8593 153.781 39.405 153.615 40.2745C153.611 40.3027 153.616 40.3314 153.629 40.3566C153.642 40.3818 153.663 40.4024 153.688 40.4155C153.714 40.4286 153.742 40.4337 153.77 40.43C153.799 40.4263 153.825 40.414 153.846 40.3948C154.198 40.1063 154.64 39.9494 155.095 39.9508C156.325 40.0525 156.279 41.8008 155.095 42.55C155.069 42.5703 155.052 42.5988 155.045 42.6307C155.039 42.6626 155.043 42.6958 155.059 42.7244C155.074 42.7531 155.099 42.7754 155.13 42.7875C155.16 42.7996 155.193 42.8006 155.224 42.7905C155.668 42.638 156.145 42.6047 156.606 42.694C157.067 42.7832 157.496 42.992 157.851 43.2993C158.045 44.0737 158.308 44.8291 158.637 45.5563C157.352 46.435 155.631 47.6375 154.401 48.5903C153.291 46.2593 151.913 47.915 150.96 46.0465C149.998 44.4463 149.387 45.0013 149.165 44.9458L149.212 44.9735ZM164.715 56.0735C165.381 54.0423 165.764 51.9287 165.852 49.7928C165.721 48.7646 165.305 47.7936 164.65 46.99C162.023 43.1975 160.95 43.8265 158.924 45.1955C158.739 44.6313 158.332 43.4565 158.258 43.142C158.378 43.0218 158.693 42.7165 158.785 42.6518C159.128 42.1716 159.393 41.6411 159.572 41.0793C159.808 40.2944 159.905 39.4742 159.858 38.6558C159.905 37.8801 159.782 37.1035 159.498 36.3803C158.909 35.3518 157.979 34.5619 156.869 34.1479C155.759 33.7339 154.539 33.7219 153.42 34.114C151.691 33.5405 149.461 32.9485 148.62 33.3093C147.95 33.4707 147.35 33.8424 146.908 34.37C146.466 34.8975 146.204 35.553 146.161 36.2402C146.119 36.9274 146.298 37.6101 146.672 38.188C147.046 38.766 147.596 39.2087 148.24 39.4513C148.212 40.1655 148.294 40.8798 148.481 41.5695C148.795 42.5404 148.82 43.5813 148.555 44.5665C148.388 45.3065 148.629 45.6395 149.48 45.4915C150.479 45.5655 149.933 47.3415 152.199 47.6745C152.745 47.767 153.18 47.8503 153.744 48.8955C152.801 49.6497 152.091 50.6572 151.7 51.8C151.197 51.5034 150.664 51.2615 150.109 51.0785C150.048 50.6173 149.887 50.1749 149.638 49.782C149.389 49.3891 149.057 49.0551 148.666 48.803C147.804 48.0832 146.875 47.4482 145.891 46.9068C145.697 46.805 145.29 46.4905 144.966 46.5553C141.747 41.6528 142.08 41.8655 141.072 41.8655C139.769 41.9155 138.475 42.0889 137.205 42.3835C137.16 42.4006 137.118 42.4278 137.085 42.4631C137.051 42.4983 137.026 42.5407 137.011 42.587C136.955 42.809 137.011 42.6795 138.306 44.5295C139.508 46.213 139.074 45.3898 139.148 46.2963C139.312 48.044 140.024 49.6951 141.183 51.0138C141.403 51.3528 141.492 51.7608 141.432 52.1608L141.312 52.2163C140.998 52.3735 141.395 55.5278 141.617 56.2678C142.634 59.1749 144.097 61.9057 145.956 64.3615C145.045 66.5476 144.486 68.8641 144.3 71.225C136.04 69.375 128.982 63.7603 125.8 56.4713C122.618 49.1823 123.432 40.6353 128.26 32.6525C141.627 13.0333 170.94 20.9143 174.418 43.8358C175.694 52.54 171.883 60.8003 165.038 66.2208C165.132 62.8396 165.002 59.456 164.65 56.092L164.715 56.0735ZM161.07 74.851C161.151 76.3348 161.409 77.8037 161.838 79.2263C161.868 79.3145 161.931 79.3874 162.014 79.429C162.097 79.4707 162.194 79.4776 162.282 79.4483C162.985 79.2448 161.949 78.2735 161.644 74.8233C161.616 74.4625 161.042 74.481 161.07 74.851ZM163.901 85.9048C163.882 85.8275 163.834 85.7607 163.766 85.719C163.699 85.6774 163.617 85.6644 163.54 85.6828C163.463 85.7012 163.396 85.7495 163.354 85.8172C163.313 85.8848 163.3 85.9662 163.318 86.0435C164.502 92.056 164.345 92.6388 164.946 92.5185C165.547 92.3983 165.122 91.8248 163.901 85.9048ZM166.074 100.205C165.566 100.344 166.241 100.418 166.694 106.033C166.694 106.542 167.527 106.514 167.471 106.033C167.238 104.134 166.87 102.255 166.37 100.409C166.368 100.374 166.357 100.341 166.34 100.311C166.323 100.282 166.299 100.256 166.271 100.236C166.243 100.217 166.21 100.204 166.176 100.199C166.142 100.193 166.107 100.196 166.074 100.205ZM142.598 84.9058C143.586 81.9752 144.41 78.9921 145.068 75.9703C145.082 75.9007 145.068 75.8284 145.031 75.7683C144.993 75.7082 144.934 75.6648 144.865 75.6471C144.796 75.6293 144.724 75.6385 144.661 75.6728C144.599 75.7071 144.553 75.7639 144.531 75.8315C143.791 78.8008 142.811 81.6775 141.895 84.693C141.88 84.782 141.897 84.8736 141.945 84.9505C141.992 85.0273 142.066 85.0842 142.152 85.1104C142.239 85.1365 142.332 85.1302 142.414 85.0925C142.496 85.0548 142.561 84.9884 142.598 84.9058ZM138.842 97.125C139.36 97.125 139.268 96.496 140.739 90.9923C140.758 90.926 140.751 90.8547 140.718 90.794C140.685 90.7333 140.629 90.6881 140.563 90.6685C140.497 90.6489 140.425 90.6564 140.365 90.6893C140.304 90.7223 140.259 90.778 140.239 90.8443C139.952 91.7693 138.694 95.6635 138.463 96.644C138.449 96.7014 138.448 96.7612 138.461 96.8189C138.473 96.8766 138.499 96.9307 138.535 96.9771C138.572 97.0234 138.619 97.0609 138.672 97.0865C138.725 97.1121 138.783 97.1253 138.842 97.125ZM134.643 109.15C134.967 109.15 134.948 108.91 135.216 107.837C135.577 106.375 136.141 104.137 136.363 103.508C136.502 103.138 135.938 102.971 135.799 103.323C135.175 105.135 134.684 106.989 134.328 108.873C134.336 108.95 134.372 109.022 134.431 109.074C134.489 109.125 134.565 109.153 134.643 109.15ZM131.59 117.022C130.738 118.673 130.08 120.417 129.629 122.22C129.605 122.313 129.618 122.413 129.667 122.496C129.716 122.579 129.795 122.64 129.888 122.664C129.982 122.689 130.081 122.675 130.164 122.627C130.247 122.578 130.308 122.498 130.332 122.405C131.877 117.161 132.377 117.114 131.923 116.855C131.891 116.842 131.856 116.836 131.821 116.838C131.786 116.839 131.751 116.848 131.72 116.864C131.688 116.88 131.661 116.902 131.638 116.929C131.616 116.956 131.6 116.988 131.59 117.022ZM121.924 90.132C122.017 90.8535 122.35 93.832 122.461 94.6553C122.467 94.7063 122.484 94.7555 122.51 94.8001C122.535 94.8446 122.57 94.8837 122.61 94.9151C122.651 94.9464 122.698 94.9694 122.748 94.9828C122.797 94.9961 122.849 94.9996 122.9 94.9929C122.951 94.9862 123 94.9695 123.045 94.9438C123.089 94.9182 123.129 94.8839 123.16 94.8431C123.191 94.8023 123.214 94.7557 123.228 94.7061C123.241 94.6564 123.244 94.6045 123.238 94.5535C123.117 93.758 122.599 90.7703 122.488 90.058C122.433 89.725 121.878 89.7898 121.924 90.132ZM123.376 103.369C123.478 103.952 123.857 106.468 123.978 107.134C124.07 107.633 124.81 107.448 124.718 106.958C124.496 105.728 124.2 104.488 123.968 103.258C123.894 102.842 123.312 102.99 123.376 103.369ZM124.875 116.236C124.916 117.788 125.083 119.335 125.374 120.861C125.485 121.369 126.244 121.166 126.151 120.666C125.835 119.196 125.594 117.711 125.43 116.217C125.347 115.875 124.81 115.866 124.875 116.236ZM100.825 39.257C100.649 38.924 100.159 39.2015 100.316 39.5345C103.322 45.7043 103.091 45.7598 103.526 45.7598C103.598 45.7591 103.668 45.7403 103.731 45.7052C103.793 45.6701 103.846 45.6197 103.883 45.5588C103.921 45.4979 103.943 45.4284 103.947 45.3568C103.951 45.2852 103.936 45.2138 103.905 45.1493C102.888 43.1605 101.815 41.2273 100.825 39.257ZM106.56 51.319C106.421 51.0045 105.949 51.2543 106.088 51.5688C107.013 53.6315 107.781 55.7498 108.724 57.8218C108.928 58.2843 109.603 57.9143 109.4 57.461C108.484 55.3335 107.402 53.1968 106.56 51.319ZM114.7 70.1613C114.756 70.1643 114.812 70.1536 114.863 70.1299C114.914 70.1063 114.958 70.0705 114.992 70.0258C115.026 69.981 115.048 69.9286 115.057 69.8732C115.065 69.8178 115.06 69.7611 115.042 69.708C114.718 68.783 113.118 65.3883 112.711 64.4725C112.545 64.0933 111.99 64.3893 112.147 64.7685C114.348 69.819 114.311 70.1613 114.7 70.1613ZM131.553 66.8035C131.211 67.3863 129.639 69.523 129.213 70.0688C129.182 70.1095 129.158 70.156 129.145 70.2057C129.131 70.2553 129.127 70.3072 129.134 70.3583C129.14 70.4094 129.157 70.4588 129.182 70.5035C129.208 70.5483 129.242 70.5876 129.283 70.6191C129.323 70.6507 129.37 70.674 129.419 70.6876C129.469 70.7012 129.521 70.7049 129.572 70.6984C129.623 70.692 129.673 70.6756 129.717 70.65C129.762 70.6245 129.801 70.5905 129.833 70.5498C130.629 69.4388 131.353 68.277 131.997 67.0718C132.033 67.0129 132.044 66.9423 132.027 66.8755C132.011 66.8087 131.968 66.7512 131.91 66.7156C131.851 66.6801 131.78 66.6693 131.713 66.6858C131.647 66.7023 131.589 66.7446 131.553 66.8035ZM115.394 31.9125C115.773 31.9125 115.976 31.339 115.579 31.1633C114.737 30.784 111.194 29.6093 110.315 29.3133C109.955 29.1745 109.77 29.7295 110.13 29.8683C111.065 30.2013 115.088 31.9125 115.394 31.9125ZM118.603 33.3C120.264 34.2034 122.008 34.9438 123.811 35.5108C123.915 35.5286 124.021 35.5075 124.11 35.4516C124.199 35.3956 124.264 35.3088 124.293 35.2077C124.321 35.1067 124.312 34.9986 124.266 34.9042C124.219 34.8099 124.14 34.736 124.042 34.6968C122.272 34.2162 120.55 33.5721 118.899 32.7728C118.548 32.6155 118.252 33.152 118.603 33.3ZM74.4532 32.745C78.1532 30.2568 79.2632 30.821 79.0782 30.1643C79.0676 30.1264 79.0495 30.0911 79.0251 30.0603C79.0006 30.0295 78.9703 30.0039 78.9359 29.9849C78.9014 29.966 78.8636 29.9541 78.8245 29.9499C78.7854 29.9458 78.7459 29.9495 78.7082 29.9608C77.0382 30.4 75.4488 31.1025 74 32.042C73.5745 32.375 74 33.041 74.4532 32.745ZM66.045 35.8623C65.7582 36.0935 65.9895 36.4728 66.3132 36.4728C66.4242 36.4728 66.4427 36.4728 67.4602 35.964C68.4777 35.4553 69.6432 34.9095 70.078 34.78C70.151 34.7513 70.2106 34.6962 70.2451 34.6258C70.2797 34.5553 70.2866 34.4745 70.2646 34.3991C70.2426 34.3238 70.1932 34.2595 70.1261 34.2187C70.0591 34.1779 69.9792 34.1637 69.9022 34.1788C68.5636 34.6101 67.2715 35.1741 66.045 35.8623Z" fill="#5C3783"/>
   <path d="M62.4743 37.6105C61.9933 37.8787 59.3386 39.2755 59.0518 39.4605C58.9928 39.5016 58.9479 39.5598 58.923 39.6272C58.8981 39.6947 58.8945 39.7681 58.9126 39.8377C58.9307 39.9072 58.9698 39.9695 59.0244 40.0162C59.0791 40.0629 59.1468 40.0917 59.2183 40.0988C60.4472 39.5183 61.6396 38.8634 62.7888 38.1378C62.8408 38.0886 62.8745 38.0233 62.8843 37.9524C62.8941 37.8816 62.8795 37.8095 62.8429 37.7481C62.8063 37.6867 62.7498 37.6396 62.6828 37.6145C62.6158 37.5895 62.5422 37.5881 62.4743 37.6105ZM54.5748 22.829C55.8163 22.8374 57.0466 22.5942 58.1915 22.1142C59.3364 21.6343 60.3723 20.9274 61.2367 20.0362C62.101 19.1451 62.776 18.0881 63.2208 16.929C63.6656 15.77 63.8711 14.5329 63.8248 13.2923C63.5473 5.032 52.8451 1.0915 47.4338 8.1215C42.5498 14.2358 47.2488 22.829 54.5748 22.829ZM49.0248 7.4C54.6951 2.17375 63.0201 6.475 63.2328 13.3293C63.2158 15.0689 62.7143 16.7694 61.7846 18.2399C60.8549 19.7104 59.5338 20.8928 57.9696 21.6543C52.7988 23.9113 46.5736 20.0355 46.1296 14.578C46.0229 13.239 46.229 11.8936 46.7315 10.6479C47.2339 9.40216 48.019 8.29029 49.0248 7.4ZM75.1468 14.9943C76.7841 15.17 78.4306 15.1885 80.0678 15.2625C80.1414 15.2625 80.212 15.2333 80.264 15.1812C80.3161 15.1292 80.3453 15.0586 80.3453 14.985C80.3453 14.9114 80.3161 14.8408 80.264 14.7888C80.212 14.7367 80.1414 14.7075 80.0678 14.7075C78.3473 14.5503 77.2928 14.3375 75.1468 14.1988C74.6566 14.171 74.6473 14.9388 75.1468 14.9943ZM65.4528 14.0138C66.2021 14.097 69.2823 14.3098 70.0778 14.4115C70.4941 14.4763 70.6606 13.8473 70.2258 13.7733C68.6601 13.5275 67.0822 13.3669 65.4991 13.2923C65.4517 13.2892 65.4042 13.2955 65.3593 13.3109C65.3143 13.3262 65.2729 13.3502 65.2372 13.3816C65.2016 13.4129 65.1724 13.451 65.1515 13.4936C65.1306 13.5362 65.1182 13.5825 65.1152 13.6299C65.1122 13.6773 65.1185 13.7248 65.1338 13.7697C65.1491 13.8146 65.1732 13.8561 65.2045 13.8917C65.2359 13.9274 65.2739 13.9565 65.3165 13.9774C65.3591 13.9984 65.4055 14.0107 65.4528 14.0138ZM28.6748 82.4545C28.9431 80.7525 29.0078 79.0597 29.2113 77.367C29.2576 77.0525 28.7396 76.9785 28.6933 77.3022C28.4343 78.9672 28.0366 80.6415 27.8423 82.3342C27.8432 82.4359 27.8805 82.5339 27.9474 82.6104C28.0143 82.687 28.1064 82.737 28.207 82.7516C28.3076 82.7661 28.4101 82.7441 28.4959 82.6896C28.5817 82.6352 28.6452 82.5517 28.6748 82.4545ZM27.6758 87.0332C26.7508 92.1115 26.5381 92.7312 27.2041 92.7312C27.7036 92.7312 27.6111 92.3982 28.2401 87.1072C28.2863 86.765 27.7498 86.691 27.6758 87.0332ZM44.6866 95.4877C43.2806 96.2277 41.5323 97.088 40.9866 97.4117C40.9107 97.4566 40.8519 97.5253 40.8194 97.6072C40.7869 97.689 40.7824 97.7794 40.8067 97.864C40.8311 97.9487 40.8828 98.0229 40.9539 98.075C41.0249 98.127 41.1113 98.154 41.1993 98.1517C42.4892 97.5119 43.7429 96.8017 44.9548 96.0242C45.0114 95.9812 45.0511 95.9197 45.0672 95.8504C45.0833 95.7812 45.0747 95.7085 45.0429 95.6449C45.0111 95.5813 44.9581 95.5308 44.893 95.5021C44.828 95.4734 44.755 95.4683 44.6866 95.4877ZM39.2753 98.3367C38.2654 98.81 37.2806 99.3349 36.3246 99.9092C36.0286 100.177 36.3801 100.621 36.7316 100.455C37.0831 100.288 39.0533 99.0675 39.5066 98.8547C39.9598 98.642 39.6176 98.1887 39.2753 98.3367ZM76.5251 106.042C76.8581 106.255 77.1726 105.746 76.8488 105.524C76.1458 105.061 73.4726 103.082 72.7326 102.693C72.6368 102.647 72.5275 102.638 72.4252 102.667C72.323 102.696 72.2349 102.761 72.1776 102.851C71.7983 103.443 73.0748 103.776 76.5251 106.042ZM63.7138 97.495C64.1763 97.8187 64.6388 98.124 65.1106 98.42C68.2648 100.51 68.1168 100.575 68.3111 100.575C68.375 100.574 68.4372 100.555 68.4899 100.518C68.5426 100.482 68.5834 100.431 68.6071 100.372C68.6309 100.312 68.6365 100.247 68.6233 100.185C68.6101 100.122 68.5787 100.065 68.5331 100.02C67.1288 98.8644 65.662 97.7867 64.1393 96.792C63.6953 96.5237 63.2883 97.2082 63.7138 97.495ZM154.799 128.149C153.282 128.362 151.718 128.52 150.174 128.871C150.079 128.9 149.997 128.963 149.944 129.047C149.891 129.131 149.87 129.231 149.884 129.33C149.899 129.428 149.948 129.518 150.023 129.583C150.098 129.648 150.194 129.684 150.294 129.685C150.655 129.685 152.958 129.065 154.919 128.76C155.4 128.723 155.215 128.075 154.799 128.149ZM146.622 129.648C145.068 129.879 143.356 130.018 141.673 130.305C141.201 130.388 141.331 131.072 141.793 131.072C142.256 131.072 145.567 130.407 146.742 130.221C147.121 130.157 146.992 129.593 146.622 129.648ZM90.6498 96.4867C90.6032 96.4082 90.5273 96.3515 90.4389 96.3289C90.3504 96.3064 90.2566 96.3199 90.1781 96.3665C90.0996 96.4131 90.0428 96.489 90.0202 96.5775C89.9977 96.6659 90.0112 96.7597 90.0578 96.8382C90.5142 97.5822 91.2336 98.1273 92.0732 98.3655C92.9128 98.6036 93.8113 98.5174 94.5903 98.124C94.6424 98.0922 94.6805 98.0419 94.6968 97.9831C94.7132 97.9243 94.7066 97.8615 94.6783 97.8074C94.6501 97.7533 94.6024 97.712 94.5448 97.6917C94.4873 97.6715 94.4242 97.6739 94.3683 97.6985C93.7049 97.9656 92.9686 97.9906 92.2887 97.769C91.6087 97.5474 91.0285 97.0935 90.6498 96.4867ZM97.1248 93.0642C97.0601 93.6007 96.5791 93.3047 96.5421 93.6285C96.5421 93.8042 96.6901 93.869 96.8751 93.869C97.0393 93.8633 97.199 93.8139 97.3378 93.726C97.4766 93.6381 97.5895 93.5148 97.6649 93.3688C97.7402 93.2228 97.7754 93.0593 97.7666 92.8953C97.7578 92.7312 97.7055 92.5724 97.6151 92.4352C97.0963 91.879 96.623 91.282 96.1998 90.65C96.1839 90.5923 96.1457 90.5434 96.0936 90.5139C96.0416 90.4844 95.98 90.4768 95.9223 90.4927C95.8647 90.5087 95.8157 90.5469 95.7862 90.5989C95.7567 90.651 95.7491 90.7126 95.7651 90.7702C95.9825 91.2595 96.2556 91.7219 96.5791 92.1485C96.7905 92.4351 96.9733 92.7419 97.1248 93.0642ZM92.2131 86.2932C92.1885 86.1828 92.1212 86.0867 92.0257 86.026C91.9303 85.9653 91.8147 85.945 91.7043 85.9695C91.5939 85.994 91.4978 86.0614 91.4371 86.1568C91.3764 86.2522 91.356 86.3678 91.3806 86.4782C91.6396 88.2357 91.4823 88.985 92.1761 88.985C92.3086 88.985 92.4356 88.9324 92.5293 88.8387C92.6229 88.745 92.6756 88.618 92.6756 88.4855C92.6756 88.2542 92.2871 86.6817 92.2131 86.2932ZM99.4836 86.3765C99.464 86.2756 99.4085 86.1852 99.3274 86.122C99.2464 86.0589 99.1452 86.0272 99.0425 86.0328C98.9399 86.0384 98.8428 86.081 98.7691 86.1527C98.6955 86.2244 98.6503 86.3203 98.6418 86.4227C98.6418 86.5615 98.7713 88.2172 98.8176 88.3467C98.8311 88.4694 98.8927 88.5817 98.989 88.6589C99.0853 88.7361 99.2083 88.7719 99.331 88.7584C99.4536 88.7449 99.5659 88.6832 99.6431 88.5869C99.7203 88.4907 99.7561 88.3677 99.7426 88.245C99.7241 88.134 99.5761 87.2275 99.4836 86.3765ZM90.7608 85.8215C90.8796 85.4282 91.1259 85.0857 91.4608 84.8478C91.7958 84.61 92.2004 84.4905 92.6108 84.508C92.6828 84.5163 92.7552 84.497 92.8135 84.4541C92.8718 84.4113 92.9118 84.3479 92.9253 84.2767C93.0178 83.6107 90.5296 83.879 89.9838 85.6087C89.9556 85.7118 89.9695 85.8218 90.0224 85.9146C90.0753 86.0074 90.1629 86.0754 90.2659 86.1036C90.369 86.1318 90.479 86.118 90.5718 86.065C90.6646 86.0121 90.7326 85.9245 90.7608 85.8215ZM97.6798 84.175C98.0163 84.1555 98.3499 84.2473 98.6291 84.4362C98.9083 84.6251 99.1175 84.9006 99.2246 85.2202C99.3911 85.581 99.9738 85.3405 99.8628 84.952C99.6816 84.5159 99.355 84.156 98.9385 83.9334C98.522 83.7108 98.0413 83.6393 97.5781 83.731C97.528 83.7521 97.4869 83.7903 97.4621 83.8387C97.4374 83.8871 97.4304 83.9427 97.4426 83.9957C97.4547 84.0487 97.4852 84.0957 97.5286 84.1285C97.572 84.1613 97.6255 84.1778 97.6798 84.175ZM169.062 115.301C169.062 115.301 168.572 113.063 168.442 112.415C168.426 112.343 168.382 112.28 168.32 112.24C168.257 112.2 168.182 112.187 168.109 112.202C168.037 112.218 167.974 112.262 167.934 112.325C167.894 112.387 167.881 112.463 167.897 112.535L168.331 115.172C166.862 114.986 165.37 115.114 163.954 115.548C162.537 115.982 161.23 116.713 160.117 117.69C159.005 118.668 158.113 119.871 157.5 121.22C156.888 122.569 156.569 124.032 156.565 125.513C157.12 139.453 177.128 139.176 177.406 125.513C177.424 123.105 176.601 120.766 175.077 118.901C173.553 117.036 171.426 115.763 169.062 115.301ZM171.449 129.888C169.987 134.042 164.474 133.302 164.474 128.344V125.347C164.312 125.367 164.148 125.353 163.993 125.306C163.837 125.258 163.693 125.178 163.571 125.07C163.449 124.962 163.351 124.83 163.283 124.681C163.216 124.533 163.182 124.372 163.182 124.209C163.182 124.046 163.216 123.885 163.283 123.737C163.351 123.588 163.449 123.456 163.571 123.348C163.693 123.24 163.837 123.16 163.993 123.112C164.148 123.065 164.312 123.051 164.474 123.071C164.474 122.146 164.474 121.221 164.539 120.213C164.542 120.064 164.575 119.916 164.636 119.78C164.696 119.643 164.783 119.52 164.892 119.417C165 119.313 165.127 119.233 165.267 119.179C165.406 119.125 165.555 119.099 165.704 119.103C166.007 119.113 166.293 119.242 166.501 119.462C166.709 119.682 166.822 119.975 166.814 120.278C166.814 121.249 166.814 122.174 166.759 123.053H168.711C168.86 123.049 169.008 123.075 169.147 123.13C169.286 123.184 169.413 123.266 169.52 123.371C169.627 123.475 169.712 123.6 169.77 123.737C169.828 123.875 169.858 124.023 169.858 124.172C169.86 124.322 169.833 124.471 169.777 124.611C169.722 124.751 169.639 124.878 169.534 124.985C169.429 125.093 169.304 125.178 169.166 125.237C169.028 125.296 168.879 125.327 168.729 125.328H166.731C166.731 128.705 166.639 129.269 167.101 129.842C167.758 130.675 168.757 130.397 169.275 129.121C169.377 128.832 169.589 128.596 169.865 128.465C170.14 128.333 170.457 128.316 170.746 128.418C171.034 128.52 171.27 128.732 171.402 129.008C171.534 129.283 171.55 129.6 171.449 129.888ZM94.7291 9.657C92.8358 9.6472 90.9593 10.0127 89.2081 10.7325C87.457 11.4522 85.8658 12.5119 84.5266 13.8502C83.1874 15.1885 82.1267 16.779 81.4058 18.5298C80.685 20.2805 80.3182 22.1567 80.3268 24.05C80.7061 43.105 108.752 43.1143 109.122 24.05C109.132 22.1571 108.766 20.2811 108.046 18.5305C107.327 16.7798 106.267 15.1892 104.928 13.8507C103.59 12.5123 101.999 11.4525 100.249 10.7326C98.498 10.0128 96.6219 9.64719 94.7291 9.657ZM98.8823 16.9275C98.7407 17.1931 98.5003 17.3924 98.2131 17.4824C97.9258 17.5724 97.6147 17.5459 97.3468 17.4085C96.8697 17.1462 96.3155 17.0599 95.7812 17.1647C95.2469 17.2695 94.7665 17.5588 94.4238 17.982C93.3601 19.092 93.4063 22.866 93.4063 23.0695L96.1813 22.644C96.4806 22.5986 96.7857 22.674 97.0294 22.8535C97.2731 23.0331 97.4356 23.3021 97.4809 23.6014C97.5263 23.9007 97.451 24.2057 97.2714 24.4495C97.0919 24.6932 96.8229 24.8556 96.5236 24.901L93.4156 25.3728C93.4156 27.5743 93.5173 29.7018 93.5913 31.8478C93.5782 32.1354 93.4573 32.4075 93.2528 32.6101C93.0483 32.8128 92.775 32.9311 92.4873 32.9416C92.1996 32.9521 91.9184 32.8539 91.6997 32.6667C91.481 32.4795 91.3406 32.2169 91.3066 31.931C91.2048 28.897 91.1308 25.8168 91.0938 22.5238C91.0938 20.6738 91.0938 18.2595 92.7403 16.4373C95.3211 13.616 99.8998 15.0313 98.8823 16.9275Z" fill="#5C3783"/>
   <path d="M138.546 134.125C142.33 123.136 142.145 123.784 142.08 123.691C142.015 123.599 130.055 123.377 123.413 123.506C120.765 119.535 117.303 116.171 113.258 113.637C109.212 111.104 104.675 109.457 99.9461 108.808C99.227 108.019 98.2351 107.533 97.1711 107.448L96.0149 107.05C95.9688 106.147 95.9688 105.243 96.0149 104.34C98.6106 103.351 100.731 101.409 101.944 98.9103C103.304 95.8578 102.629 91.9543 101.833 82.029C103.739 82.621 103.785 80.66 102.629 79.1245C102.681 78.7963 102.664 78.4609 102.58 78.1395C102.496 77.818 102.346 77.5174 102.14 77.2567C101.935 76.9959 101.677 76.7807 101.383 76.6246C101.09 76.4685 100.768 76.3748 100.436 76.3495C100.614 76.0766 100.717 75.7616 100.734 75.4363C100.751 75.111 100.682 74.787 100.534 74.4969C100.385 74.2069 100.163 73.9611 99.8895 73.7846C99.6157 73.608 99.3002 73.5068 98.9749 73.4913C98.7822 73.0679 98.4618 72.7154 98.0587 72.4831C97.6557 72.2509 97.19 72.1506 96.7271 72.1963C96.6617 71.8851 96.5143 71.5971 96.3002 71.362C96.0862 71.1268 95.8132 70.9531 95.5096 70.8588C95.2059 70.7645 94.8826 70.753 94.573 70.8255C94.2634 70.898 93.9788 71.0519 93.7486 71.2713C93.5544 70.9753 93.0734 70.2445 92.8236 69.967C93.0212 69.7723 93.1572 69.5239 93.2148 69.2525C93.2723 68.9812 93.2489 68.6989 93.1474 68.4408C93.6006 68.2989 93.9967 68.016 94.2779 67.6334C94.5591 67.2507 94.7108 66.7882 94.7108 66.3133C94.7108 65.8383 94.5591 65.3758 94.2779 64.9932C93.9967 64.6105 93.6006 64.3276 93.1474 64.1858C93.8781 61.5218 91.3806 59.8845 89.1143 60.9483C88.9918 60.6426 88.7814 60.3802 88.5098 60.1942C88.2381 60.0081 87.9174 59.9068 87.5881 59.903C89.4381 57.572 86.8019 55.944 84.2951 56.7395C84.1303 56.3166 83.8534 55.9467 83.4941 55.6694C83.1348 55.3921 82.7068 55.2179 82.256 55.1656C81.8051 55.1133 81.3486 55.1848 80.9354 55.3725C80.5221 55.5601 80.1679 55.8569 79.9106 56.2308C79.3036 56.0714 78.6584 56.1565 78.1135 56.4678C77.5686 56.7792 77.1677 57.2919 76.9969 57.8958C76.6085 57.8042 76.2047 57.7999 75.8144 57.8831C75.4242 57.9662 75.0572 58.1348 74.7399 58.3768C74.5282 58.0108 74.1904 57.7345 73.7898 57.5995C73.3891 57.4646 72.9531 57.4802 72.5631 57.6434C72.1731 57.8067 71.856 58.1064 71.671 58.4865C71.4859 58.8666 71.4457 59.3011 71.5579 59.7088C71.3019 59.7802 71.0749 59.9302 70.9089 60.1377C70.7429 60.3452 70.6464 60.5996 70.6329 60.865C70.5311 60.8479 70.4269 60.8525 70.3271 60.8786C70.2273 60.9047 70.1341 60.9516 70.0537 61.0162C69.9733 61.0809 69.9075 61.1618 69.8607 61.2538C69.8138 61.3457 69.787 61.4465 69.7819 61.5495C69.541 61.4884 69.2875 61.4989 69.0525 61.5798C68.8175 61.6607 68.6112 61.8084 68.459 62.0049C68.3068 62.2013 68.2152 62.4379 68.1955 62.6856C68.1758 62.9334 68.2288 63.1815 68.3481 63.3995C68.0468 63.4672 67.7721 63.6221 67.5582 63.8449C67.3444 64.0678 67.2009 64.3486 67.1457 64.6525C67.0904 64.9563 67.1259 65.2697 67.2476 65.5535C67.3693 65.8374 67.5719 66.0791 67.8301 66.2485C66.3686 66.674 65.4251 68.0985 65.9801 69.3935C64.3151 70.4018 63.6306 72.446 64.8054 73.8705C64.594 74.4585 64.6031 75.1032 64.8311 75.685C65.059 76.2668 65.4903 76.7461 66.0449 77.034C65.803 77.3314 65.6491 77.6905 65.6008 78.0708C65.5524 78.4511 65.6115 78.8373 65.7713 79.1858C65.9311 79.5342 66.1852 79.831 66.5049 80.0425C66.8246 80.254 67.1972 80.3718 67.5804 80.3825C67.6086 80.7176 67.7229 81.0397 67.9123 81.3176C68.1016 81.5955 68.3595 81.8197 68.661 81.9686C68.9625 82.1175 69.2974 82.186 69.6331 82.1674C69.9689 82.1488 70.2941 82.0438 70.5774 81.8625C70.7281 82.1029 70.9459 82.2939 71.204 82.4119C71.462 82.5299 71.749 82.5697 72.0294 82.5264C72.3098 82.4831 72.5714 82.3586 72.7819 82.1683C72.9923 81.978 73.1424 81.7302 73.2136 81.4555C73.6663 81.6258 74.1523 81.6893 74.6336 81.6412C75.1148 81.593 75.5785 81.4345 75.9886 81.178C75.6094 83.4813 73.8611 83.6478 74.4069 86.062C74.0846 86.486 73.9062 87.0019 73.8979 87.5344C73.8896 88.0669 74.0517 88.5882 74.3606 89.022C74.2557 89.2451 74.1964 89.4868 74.1862 89.7331C74.1761 89.9794 74.2152 90.2252 74.3014 90.4562C74.3876 90.6871 74.519 90.8985 74.688 91.0779C74.8571 91.2574 75.0602 91.4012 75.2856 91.501C75.199 91.6709 75.158 91.8604 75.1667 92.0508C75.1754 92.2413 75.2334 92.4263 75.335 92.5876C75.4367 92.749 75.5785 92.8811 75.7466 92.9712C75.9146 93.0612 76.1032 93.106 76.2939 93.1013C76.4757 93.7813 76.8249 94.4051 77.3096 94.9156C77.7943 95.4262 78.3991 95.8073 79.0689 96.0243C79.1614 107.652 79.5869 106.255 78.4769 107.605C77.4545 108.142 76.6167 108.974 76.0719 109.992C59.8474 115.625 53.2984 128.492 51.1524 145.762C49.9129 145.567 49.8574 145.521 49.8111 145.678C49.3118 147.622 49.1368 149.635 49.2931 151.635C49.2931 151.756 49.2931 151.746 50.7731 152.107C51.1894 159.239 55.0466 166.972 62.7981 168.331C62.6964 169.83 62.5761 178.414 62.7981 180.357C62.808 180.402 62.8331 180.443 62.8692 180.472C62.9054 180.501 62.9505 180.517 62.997 180.517C63.0435 180.517 63.0885 180.501 63.1247 180.472C63.1609 180.443 63.186 180.402 63.1959 180.357C63.1959 179.321 63.3254 170.015 63.4086 168.47C68.1169 168.933 70.8734 166.963 74.5826 162.92C80.4101 156.445 83.7124 149.462 87.1534 142.136C87.7577 140.953 88.2442 139.714 88.6056 138.436C89.1484 138.655 89.7468 138.697 90.315 138.556C90.8832 138.415 91.3922 138.097 91.7691 137.649C93.0941 138.077 94.5015 138.185 95.8761 137.964C96.1086 137.921 96.3297 137.83 96.5256 137.698C96.7215 137.565 96.8881 137.394 97.0148 137.194C97.1415 136.995 97.2257 136.771 97.2622 136.537C97.2986 136.304 97.2865 136.065 97.2266 135.836C98.4106 135.781 99.1506 134.708 97.9666 133.811C97.5897 133.521 97.1907 133.261 96.7734 133.034C97.7539 132.969 100.344 132.682 101.186 132.109C102.027 131.535 102 130.101 100.834 129.944C100.344 129.879 93.1381 130.175 91.5009 130.407C89.8808 130.578 88.3467 131.221 87.0886 132.257C85.2386 133.783 72.1591 144.652 67.4879 148.574C64.7776 148.083 54.6211 146.344 51.9201 145.919C54.1586 127.262 61.7621 116.106 75.8221 110.852C74.9619 114.367 79.1244 117.975 80.4471 119.048C82.6209 120.833 86.1729 122.748 89.2161 121.915C91.1494 121.397 92.5924 119.908 93.5174 117.475C97.6244 121.036 99.5576 120.639 100.205 120.306C102.693 119.001 102.592 112.656 100.52 109.603C104.959 110.291 109.209 111.887 113.003 114.292C116.798 116.697 120.055 119.859 122.572 123.58C118.326 123.673 118.585 123.673 118.548 123.784C117.545 126.49 116.57 129.206 115.625 131.933C115.255 129.63 114.7 126.494 114.459 125.587C114.439 125.538 114.401 125.497 114.353 125.474C114.305 125.45 114.25 125.444 114.198 125.458C114.146 125.471 114.101 125.503 114.071 125.547C114.041 125.591 114.028 125.645 114.034 125.698C114.302 126.827 114.857 131.11 115.162 133.274C111.407 144.143 108.465 153.939 108.539 154.04C108.613 154.142 117.789 154.142 118.973 154.124C119.898 161.857 120.601 177.979 120.574 179.894C120.574 179.948 120.595 180 120.633 180.038C120.671 180.076 120.723 180.098 120.777 180.098C120.831 180.098 120.883 180.076 120.921 180.038C120.959 180 120.981 179.948 120.981 179.894C121.147 176.49 120.981 166.26 120.823 164.049C123.011 163.686 125.015 162.605 126.521 160.978C127.65 159.822 129.296 156.399 130.434 153.643C132.229 153.522 132.284 153.55 132.284 153.43C133.339 150.979 134.384 148.092 135.263 145.281C139.629 144.624 141.839 138.5 140.073 135.725C139.676 135.095 139.157 134.551 138.546 134.125ZM63.1311 153.79C63.7231 153.689 63.0664 152.866 85.3959 134.514C89.0959 131.489 89.3826 131.202 93.8689 130.897C95.5339 130.786 99.8536 130.629 100.344 130.619C100.723 130.619 101.056 130.619 101.028 130.962C101.028 131.554 100.103 131.729 99.4651 131.887C97.5505 132.35 95.589 132.592 93.6191 132.608C93.5602 132.608 93.5038 132.631 93.4621 132.673C93.4205 132.715 93.3971 132.771 93.3971 132.83C93.3971 132.889 93.4205 132.945 93.4621 132.987C93.5038 133.029 93.5602 133.052 93.6191 133.052H95.5431C96.1329 133.338 96.6963 133.675 97.2266 134.06C97.4486 134.217 97.8464 134.366 97.8741 134.578C98.0221 135.809 94.9141 134.671 93.8226 134.144C93.7846 134.124 93.7403 134.12 93.6995 134.133C93.6588 134.146 93.6249 134.175 93.6052 134.213C93.5856 134.251 93.5819 134.295 93.5949 134.336C93.6079 134.377 93.6366 134.411 93.6746 134.43C94.4609 134.921 97.1804 135.873 96.5514 136.798C95.7466 137.964 93.6376 137.464 92.2409 137.187C92.5326 136.951 92.8835 136.799 93.2553 136.749C93.6271 136.698 94.0057 136.751 94.3499 136.9C94.3969 136.912 94.4466 136.906 94.49 136.885C94.5334 136.863 94.5676 136.827 94.5866 136.782C94.6056 136.738 94.608 136.688 94.5934 136.641C94.5788 136.595 94.5482 136.556 94.5071 136.53C93.9389 136.291 93.3103 136.235 92.7087 136.369C92.107 136.503 91.562 136.821 91.1494 137.279C90.0486 138.334 88.6796 138.084 87.6159 137.011C87.5779 136.977 87.5291 136.958 87.4783 136.958C87.4276 136.957 87.3782 136.974 87.3391 137.006C87.3 137.039 87.2738 137.084 87.2652 137.134C87.2566 137.184 87.2661 137.236 87.2921 137.279C87.5048 137.606 87.7818 137.886 88.1061 138.103C86.4581 142.156 84.6057 146.123 82.5561 149.989C78.8561 156.926 75.1006 161.829 70.8826 165.399C66.3131 169.331 59.5976 167.888 55.7404 163.392C53.4279 160.719 51.9756 156.973 51.4391 152.292C53.3631 152.625 61.0499 153.726 63.1311 153.79ZM79.1706 76.627C78.3726 77.1876 77.7554 77.9687 77.3946 78.8748C77.0336 78.5561 76.7543 78.1553 76.5805 77.7062C76.4066 77.257 76.3432 76.7727 76.3956 76.294C77.2189 72.594 81.0206 69.3565 84.1749 68.4038C86.1174 67.6175 91.0569 68.4963 92.6479 70.8735C92.1288 70.8264 91.6109 70.9748 91.1956 71.2898C90.9467 70.9661 90.628 70.7028 90.2631 70.5196C89.8982 70.3364 89.4966 70.2381 89.0884 70.2318C88.6801 70.2256 88.2757 70.3117 87.9054 70.4837C87.5351 70.6556 87.2085 70.9091 86.9499 71.225C86.4438 71.3725 85.9868 71.6537 85.6271 72.039C85.2867 71.8567 84.9004 71.778 84.5158 71.8125C84.1312 71.8471 83.7651 71.9933 83.4626 72.2333C83.1404 72.3207 82.8572 72.5145 82.6591 72.7832C82.4609 73.0518 82.3595 73.3796 82.3711 73.7133C81.9651 73.6731 81.5551 73.7187 81.1678 73.847C80.7805 73.9753 80.4245 74.1836 80.1228 74.4583C79.8211 74.7329 79.5804 75.0679 79.4164 75.4415C79.2524 75.8151 79.1686 76.219 79.1706 76.627ZM96.6624 115.061C92.3426 119.538 79.3649 114.321 78.5231 110.158C78.4565 109.711 78.4963 109.254 78.6394 108.825C78.7824 108.396 79.0246 108.006 79.3464 107.689C79.4389 107.596 79.5036 107.494 79.5961 107.402C79.6069 107.375 79.6069 107.345 79.5961 107.319L79.7719 107.097C80.0031 106.662 79.7164 97.458 79.6701 96.1353C80.0182 96.1399 80.3589 96.034 80.6431 95.8329C80.9273 95.6319 81.1404 95.3458 81.2519 95.016C81.4489 95.1232 81.6732 95.1698 81.8966 95.1498C82.12 95.1299 82.3326 95.0444 82.5075 94.904C82.6825 94.7637 82.8121 94.5747 82.8799 94.361C82.9478 94.1472 82.951 93.9181 82.8891 93.7025L85.1646 91.2605C85.1615 91.5642 85.2453 91.8624 85.4062 92.12C85.5671 92.3775 85.7984 92.5837 86.0727 92.714C86.347 92.8443 86.6529 92.8934 86.9542 92.8555C87.2555 92.8176 87.5396 92.6942 87.7731 92.5C88.0122 92.3262 88.2099 92.1018 88.3523 91.8428C88.4946 91.5838 88.5779 91.2965 88.5964 91.0015C88.6 90.9697 88.5924 90.9375 88.575 90.9106C88.5576 90.8837 88.5315 90.8636 88.5009 90.8538C88.4704 90.844 88.4375 90.8451 88.4076 90.8568C88.3778 90.8686 88.353 90.8903 88.3374 90.9183C88.1836 91.1486 87.9561 91.3199 87.6923 91.4039C87.4284 91.488 87.1437 91.4798 86.8851 91.3808C86.9756 90.9972 86.9578 90.5961 86.8337 90.222C86.7095 89.848 86.484 89.5158 86.1821 89.2625C84.7946 84.8225 84.9241 83.065 87.4124 81.4C89.2624 80.0033 95.7374 76.8953 100.094 80.8635C100.394 81.2112 100.75 81.5053 101.149 81.733C102.277 97.0973 102.999 97.3008 98.7806 101.759C97.4885 103.069 95.7679 103.871 93.9336 104.016C93.6099 104.016 93.5729 104.488 93.9336 104.525C94.4032 104.59 94.8793 104.59 95.3489 104.525C95.3489 107.661 95.2101 107.42 96.1074 107.735C99.1691 109.15 98.9009 112.721 96.6624 115.061ZM123.867 162.069C122.895 162.608 121.856 163.016 120.777 163.281C120.638 161.727 120.074 156.806 119.704 154.031C123.071 153.957 126.457 153.818 129.685 153.615C128.334 156.982 126.29 160.885 123.867 162.069ZM129.981 131.544C127.946 131.489 127.946 128.973 129.981 128.917C132.016 128.862 132.016 131.535 129.981 131.59V131.544ZM121.739 126.781C121.307 127.038 120.958 127.414 120.731 127.863C120.453 128.39 112.508 150.007 112.128 151.238C112.109 151.304 112.064 151.359 112.003 151.392C111.942 151.425 111.871 151.433 111.805 151.413C111.738 151.394 111.683 151.348 111.65 151.288C111.617 151.227 111.609 151.156 111.629 151.09C112.101 149.341 118.955 129.713 119.029 129.593C120.666 125.504 121.304 125.569 124.431 125.467C125.865 125.421 136.299 125.375 137.806 125.624C138.139 125.68 138.065 126.152 137.806 126.179C136.983 126.281 122.387 126.503 121.739 126.827V126.781ZM135.54 144.355C135.892 143.172 136.215 142.015 136.465 140.915C136.877 141.081 137.305 141.205 137.742 141.285C137.789 141.296 137.84 141.287 137.881 141.261C137.923 141.235 137.953 141.194 137.964 141.146C137.975 141.098 137.966 141.048 137.94 141.006C137.914 140.964 137.873 140.935 137.825 140.924C136.817 140.529 135.879 139.973 135.05 139.277C134.486 138.639 134.227 138.167 134.883 137.705C136.141 138.695 137.779 139.555 138.38 139.99C138.418 140.008 138.462 140.014 138.503 140.004C138.545 139.994 138.582 139.971 138.608 139.937C138.634 139.903 138.648 139.861 138.647 139.819C138.646 139.776 138.63 139.735 138.602 139.703C137.927 139.092 135.642 137.557 134.449 136.364C134.43 136.175 134.469 135.985 134.562 135.819C134.655 135.654 134.796 135.521 134.967 135.439C136.04 136.375 137.212 137.19 138.463 137.871C138.504 137.896 138.553 137.904 138.599 137.894C138.646 137.883 138.686 137.855 138.713 137.816C138.852 137.64 138.713 137.575 137.788 136.808C137.094 136.234 136.123 135.429 135.411 134.726C134.402 133.801 136.336 133.968 138.102 134.726C138.718 135.078 139.219 135.598 139.547 136.226C139.875 136.854 140.016 137.563 139.952 138.269C139.814 140.942 138.167 143.717 135.54 144.448V144.355ZM59.7364 11.1463C59.3649 11.2005 58.9861 11.1253 58.6634 10.9335C58.4503 10.3917 58.0894 9.92054 57.6217 9.57384C57.1539 9.22713 56.5982 9.01877 56.0179 8.9725C54.6026 9.065 54.3251 11.063 53.2429 11.211C52.5954 11.3035 51.7999 10.6375 50.8749 9.25C50.8635 9.22655 50.8458 9.20676 50.8237 9.19292C50.8016 9.17908 50.7761 9.17173 50.75 9.17173C50.7239 9.17173 50.6984 9.17908 50.6763 9.19292C50.6542 9.20676 50.6365 9.22655 50.6251 9.25C50.5231 9.59722 50.4926 9.96153 50.5355 10.3209C50.5784 10.6802 50.6939 11.0271 50.8749 11.3405C50.725 11.3336 50.5831 11.2709 50.4771 11.1648C50.1626 10.8595 50.0054 11.988 50.7639 12.765C50.531 12.7526 50.3037 12.6895 50.0979 12.58C49.6354 12.2193 49.8296 14.1248 51.3466 14.9943C50.9175 14.9671 50.4983 14.8541 50.1138 14.6618C49.7292 14.4695 49.3873 14.202 49.1081 13.875C49.0899 13.8498 49.0638 13.8314 49.0339 13.8228C49.004 13.8142 48.972 13.8159 48.9432 13.8277C48.9144 13.8394 48.8904 13.8605 48.875 13.8875C48.8596 13.9146 48.8537 13.946 48.8584 13.9768C49.0227 15.3491 49.6571 16.6222 50.6536 17.5799C51.6501 18.5376 52.9474 19.1209 54.3251 19.2308C57.3869 19.2308 59.3201 15.9378 58.6079 13.4125C58.7885 13.3557 58.9822 13.3557 59.1629 13.4125C59.1896 13.4325 59.2226 13.4423 59.2559 13.4399C59.2893 13.4375 59.3206 13.4232 59.3442 13.3996C59.3678 13.376 59.3821 13.3447 59.3845 13.3113C59.3869 13.278 59.3771 13.245 59.3571 13.2183C59.2625 13.0674 59.1994 12.899 59.1714 12.7231C59.1435 12.5472 59.1514 12.3676 59.1945 12.1948C59.2377 12.0221 59.3154 11.8598 59.4228 11.7178C59.5302 11.5757 59.6651 11.4569 59.8196 11.3683C59.8343 11.3495 59.844 11.3273 59.8476 11.3038C59.8512 11.2802 59.8488 11.2562 59.8404 11.2339C59.832 11.2115 59.8181 11.1918 59.7998 11.1764C59.7816 11.1611 59.7598 11.1507 59.7364 11.1463ZM56.8874 11.8585C56.7042 11.8381 56.535 11.7508 56.4121 11.6134C56.2892 11.4761 56.2212 11.2982 56.2212 11.1139C56.2212 10.9296 56.2892 10.7517 56.4121 10.6143C56.535 10.477 56.7042 10.3897 56.8874 10.3693C57.0705 10.3897 57.2398 10.477 57.3627 10.6143C57.4855 10.7517 57.5535 10.9296 57.5535 11.1139C57.5535 11.2982 57.4855 11.4761 57.3627 11.6134C57.2398 11.7508 57.0705 11.8381 56.8874 11.8585ZM31.9771 104.09C28.9633 103.922 25.9401 104.074 22.9584 104.544C22.9273 104.548 22.8989 104.564 22.8785 104.587C22.8581 104.611 22.847 104.642 22.8474 104.673C22.8398 106.283 23.0577 107.887 23.4949 109.437C23.5038 109.462 23.5199 109.484 23.5412 109.501C23.5626 109.517 23.5882 109.527 23.6151 109.529C26.2917 109.742 28.9834 109.667 31.6441 109.307C32.1714 109.233 32.5506 104.127 31.9771 104.09ZM29.4889 107.115C29.4277 107.416 29.2789 107.693 29.0612 107.91C28.8436 108.128 28.5666 108.276 28.2651 108.337C27.9635 108.397 27.6508 108.368 27.366 108.251C27.0813 108.135 26.8371 107.937 26.6642 107.683C26.4912 107.429 26.3971 107.129 26.3937 106.821C26.3903 106.514 26.4777 106.212 26.6449 105.954C26.8121 105.696 27.0518 105.493 27.3339 105.37C27.616 105.248 27.928 105.211 28.2309 105.265C28.4361 105.302 28.6319 105.379 28.8069 105.492C28.9818 105.605 29.1323 105.753 29.2495 105.925C29.3668 106.097 29.4483 106.291 29.4894 106.496C29.5305 106.7 29.5303 106.911 29.4889 107.115ZM30.0254 103.027C30.1869 103.056 30.3528 103.054 30.5134 103.02C30.6741 102.985 30.8264 102.92 30.9617 102.826C31.0969 102.733 31.2125 102.614 31.3019 102.476C31.3912 102.339 31.4525 102.184 31.4822 102.023C31.512 101.861 31.5096 101.695 31.4753 101.535C31.441 101.374 31.3753 101.222 31.2822 101.087C31.189 100.951 31.07 100.836 30.9322 100.746C30.7943 100.657 30.6402 100.596 30.4786 100.566C30.1523 100.506 29.8155 100.578 29.5423 100.766C29.2691 100.954 29.0818 101.243 29.0217 101.57C28.9616 101.896 29.0336 102.233 29.2218 102.506C29.41 102.779 29.6991 102.966 30.0254 103.027Z" fill="#5C3783"/>
   <path d="M34.9093 99.974C30.2843 93.277 19.7578 95.645 18.4813 103.517C18.2229 104.835 18.2642 106.195 18.6022 107.495C18.9402 108.796 19.5662 110.003 20.4339 111.029C21.3016 112.055 22.3888 112.873 23.6151 113.421C24.8414 113.97 26.1755 114.237 27.5185 114.2C35.2145 114.2 38.8498 105.709 34.9093 99.974ZM32.9668 110.149C32.9612 110.175 32.9475 110.199 32.9276 110.218C32.9077 110.236 32.8826 110.247 32.8558 110.251C29.4191 110.712 25.9434 110.808 22.4865 110.537C22.4589 110.534 22.433 110.522 22.4117 110.504C22.3905 110.486 22.3747 110.462 22.3663 110.436C21.4475 107.032 21.2771 103.469 21.8668 99.9925C21.871 99.963 21.8852 99.9358 21.9071 99.9156C21.9291 99.8954 21.9573 99.8833 21.987 99.8815C25.7083 99.4543 29.4683 99.4947 33.1795 100.002C33.2071 100.007 33.2324 100.02 33.2522 100.04C33.272 100.06 33.2854 100.085 33.2905 100.113C33.8699 103.448 33.7597 106.867 32.9668 110.158V110.149Z" fill="#5C3783"/>
</svg>