<svg width="16" height="16" viewBox="0 0 16 16" fill="none" xmlns="http://www.w3.org/2000/svg">
  <g clip-path="url(#clip0_2899_8070)">
  <path d="M4.33398 15.3334L5.66732 14.0001L4.33398 12.6667" stroke="#E70000" stroke-linecap="round" stroke-linejoin="round"/>
  <path d="M0.666019 5.986C0.665299 6.25273 0.769982 6.50895 0.957275 6.69886C1.14457 6.88878 1.3993 6.99701 1.66602 7H7.66602C7.93268 6.99684 8.18732 6.88855 8.37457 6.69867C8.56183 6.50879 8.66657 6.25268 8.66602 5.986V2C8.66602 1.73478 8.56066 1.48043 8.37313 1.29289C8.18559 1.10536 7.93124 1 7.66602 1H1.66602C1.4008 1 1.14645 1.10536 0.958913 1.29289C0.771376 1.48043 0.666019 1.73478 0.666019 2V5.986Z" stroke="#E70000" stroke-linecap="round" stroke-linejoin="round"/>
  <path d="M0.666016 5H8.66602" stroke="#E70000" stroke-linecap="round" stroke-linejoin="round"/>
  <path d="M3 8.33325H6.33333" stroke="#E70000" stroke-linecap="round" stroke-linejoin="round"/>
  <path d="M4.66602 7V8.33333" stroke="#E70000" stroke-linecap="round" stroke-linejoin="round"/>
  <path d="M9.33398 7.66667C9.33398 7.48986 9.40422 7.32029 9.52925 7.19526C9.65427 7.07024 9.82384 7 10.0007 7H14.0007C14.1775 7 14.347 7.07024 14.4721 7.19526C14.5971 7.32029 14.6673 7.48986 14.6673 7.66667V15C14.6673 15.1768 14.5971 15.3464 14.4721 15.4714C14.347 15.5964 14.1775 15.6667 14.0007 15.6667H10.0007C9.82384 15.6667 9.65427 15.5964 9.52925 15.4714C9.40422 15.3464 9.33398 15.1768 9.33398 15V7.66667Z" stroke="#E70000" stroke-linecap="round" stroke-linejoin="round"/>
  <path d="M1.66602 10.6667C1.66602 11.5508 2.01721 12.3986 2.64233 13.0238C3.26745 13.6489 4.11529 14.0001 4.99935 14.0001H5.66602" stroke="#E70000" stroke-linecap="round" stroke-linejoin="round"/>
  <path d="M12.3333 0.666748L11 2.00008L12.3333 3.33341" stroke="#E70000" stroke-linecap="round" stroke-linejoin="round"/>
  <path d="M15 5.33333C15 4.44928 14.6488 3.60143 14.0237 2.97631C13.3986 2.35119 12.5507 2 11.6667 2H11" stroke="#E70000" stroke-linecap="round" stroke-linejoin="round"/>
  <path d="M9.33398 13H14.6673" stroke="#E70000" stroke-linecap="round" stroke-linejoin="round"/>
  <path d="M12.0007 14.1667C11.9677 14.1667 11.9355 14.1765 11.9081 14.1948C11.8806 14.2132 11.8593 14.2392 11.8467 14.2696C11.8341 14.3001 11.8308 14.3336 11.8372 14.3659C11.8436 14.3983 11.8595 14.428 11.8828 14.4513C11.9061 14.4746 11.9358 14.4904 11.9681 14.4969C12.0005 14.5033 12.034 14.5 12.0644 14.4874C12.0949 14.4748 12.1209 14.4534 12.1392 14.426C12.1575 14.3986 12.1673 14.3664 12.1673 14.3334C12.1673 14.2892 12.1498 14.2468 12.1185 14.2156C12.0872 14.1843 12.0449 14.1667 12.0007 14.1667Z" stroke="#E70000" stroke-linecap="round" stroke-linejoin="round"/>
  </g>
  <defs>
  <clipPath id="clip0_2899_8070">
  <rect width="16" height="16" fill="white"/>
  </clipPath>
  </defs>
</svg>
