<svg width="16" height="17" viewBox="0 0 16 17" fill="none" xmlns="http://www.w3.org/2000/svg">
<path d="M12 2.5C11.4696 2.5 10.9609 2.71071 10.5858 3.08579C10.2107 3.46086 10 3.96957 10 4.5V12.5C10 13.0304 10.2107 13.5391 10.5858 13.9142C10.9609 14.2893 11.4696 14.5 12 14.5C12.5304 14.5 13.0391 14.2893 13.4142 13.9142C13.7893 13.5391 14 13.0304 14 12.5C14 11.9696 13.7893 11.4609 13.4142 11.0858C13.0391 10.7107 12.5304 10.5 12 10.5H4C3.46957 10.5 2.96086 10.7107 2.58579 11.0858C2.21071 11.4609 2 11.9696 2 12.5C2 13.0304 2.21071 13.5391 2.58579 13.9142C2.96086 14.2893 3.46957 14.5 4 14.5C4.53043 14.5 5.03914 14.2893 5.41421 13.9142C5.78929 13.5391 6 13.0304 6 12.5V4.5C6 3.96957 5.78929 3.46086 5.41421 3.08579C5.03914 2.71071 4.53043 2.5 4 2.5C3.46957 2.5 2.96086 2.71071 2.58579 3.08579C2.21071 3.46086 2 3.96957 2 4.5C2 5.03043 2.21071 5.53914 2.58579 5.91421C2.96086 6.28929 3.46957 6.5 4 6.5H12C12.5304 6.5 13.0391 6.28929 13.4142 5.91421C13.7893 5.53914 14 5.03043 14 4.5C14 3.96957 13.7893 3.46086 13.4142 3.08579C13.0391 2.71071 12.5304 2.5 12 2.5Z" stroke="#333333" stroke-width="2" stroke-linecap="round" stroke-linejoin="round"/>
</svg>
