<svg width="16" height="19" viewBox="0 0 16 19" fill="none" xmlns="http://www.w3.org/2000/svg">
<path d="M15.5 4.417C15.5 6.02533 14.1917 7.33366 12.5833 7.33366C10.975 7.33366 9.66667 6.02533 9.66667 4.417C9.66667 2.80866 10.975 1.50033 12.5833 1.50033C14.1917 1.50033 15.5 2.80866 15.5 4.417ZM13.8333 8.82533C13.4167 8.93366 13 9.00033 12.5833 9.00033C11.3684 8.99813 10.2039 8.51453 9.34486 7.65547C8.4858 6.79641 8.0022 5.6319 8 4.417C8 3.192 8.48333 2.08366 9.25 1.25866C9.09877 1.07328 8.90808 0.923972 8.69184 0.821617C8.4756 0.719261 8.23924 0.666438 8 0.666997C7.08333 0.666997 6.33333 1.417 6.33333 2.33366V2.57533C3.85833 3.30866 2.16667 5.58366 2.16667 8.167V13.167L0.5 14.8337V15.667H15.5V14.8337L13.8333 13.167V8.82533ZM8 18.167C8.925 18.167 9.66667 17.4253 9.66667 16.5003H6.33333C6.33333 16.9424 6.50893 17.3663 6.82149 17.6788C7.13405 17.9914 7.55797 18.167 8 18.167Z" fill="#6B6B6B"/>
</svg>
