<svg width="16" height="17" viewBox="0 0 16 17" fill="none" xmlns="http://www.w3.org/2000/svg">
<g clip-path="url(#clip0_463_6932)">
<path d="M8 10.5C9.10457 10.5 10 9.60457 10 8.5C10 7.39543 9.10457 6.5 8 6.5C6.89543 6.5 6 7.39543 6 8.5C6 9.60457 6.89543 10.5 8 10.5Z" stroke="#333333" stroke-width="2" stroke-linecap="round" stroke-linejoin="round"/>
<path d="M12.9337 10.5001C12.8449 10.7012 12.8184 10.9242 12.8577 11.1405C12.8969 11.3567 13 11.5563 13.1537 11.7134L13.1937 11.7534C13.3176 11.8772 13.416 12.0243 13.4831 12.1862C13.5502 12.348 13.5847 12.5215 13.5847 12.6967C13.5847 12.872 13.5502 13.0455 13.4831 13.2073C13.416 13.3692 13.3176 13.5163 13.1937 13.6401C13.0698 13.764 12.9228 13.8624 12.7609 13.9295C12.599 13.9966 12.4255 14.0311 12.2503 14.0311C12.0751 14.0311 11.9016 13.9966 11.7397 13.9295C11.5779 13.8624 11.4308 13.764 11.307 13.6401L11.267 13.6001C11.1099 13.4464 10.9103 13.3433 10.6941 13.3041C10.4778 13.2649 10.2547 13.2913 10.0537 13.3801C9.85648 13.4646 9.68831 13.6049 9.56986 13.7838C9.45141 13.9626 9.38785 14.1722 9.38699 14.3867V14.5001C9.38699 14.8537 9.24652 15.1928 8.99647 15.4429C8.74642 15.6929 8.40728 15.8334 8.05366 15.8334C7.70004 15.8334 7.3609 15.6929 7.11085 15.4429C6.8608 15.1928 6.72033 14.8537 6.72033 14.5001V14.4401C6.71516 14.2194 6.64374 14.0054 6.51533 13.8259C6.38693 13.6464 6.20748 13.5096 6.00033 13.4334C5.79925 13.3447 5.5762 13.3182 5.35993 13.3574C5.14367 13.3966 4.94411 13.4997 4.78699 13.6534L4.74699 13.6934C4.62316 13.8174 4.47611 13.9157 4.31425 13.9828C4.15238 14.0499 3.97888 14.0845 3.80366 14.0845C3.62844 14.0845 3.45494 14.0499 3.29307 13.9828C3.13121 13.9157 2.98416 13.8174 2.86033 13.6934C2.73636 13.5696 2.63801 13.4225 2.57091 13.2607C2.50381 13.0988 2.46928 12.9253 2.46928 12.7501C2.46928 12.5749 2.50381 12.4014 2.57091 12.2395C2.63801 12.0776 2.73636 11.9306 2.86033 11.8067L2.90033 11.7667C3.05402 11.6096 3.15712 11.4101 3.19633 11.1938C3.23554 10.9775 3.20907 10.7545 3.12033 10.5534C3.03582 10.3562 2.8955 10.1881 2.71664 10.0696C2.53778 9.95117 2.32818 9.8876 2.11366 9.88675H2.00033C1.6467 9.88675 1.30757 9.74627 1.05752 9.49622C0.807468 9.24618 0.666992 8.90704 0.666992 8.55341C0.666992 8.19979 0.807468 7.86065 1.05752 7.61061C1.30757 7.36056 1.6467 7.22008 2.00033 7.22008H2.06033C2.28099 7.21492 2.495 7.14349 2.67453 7.01509C2.85405 6.88668 2.9908 6.70724 3.06699 6.50008C3.15574 6.299 3.18221 6.07595 3.143 5.85969C3.10378 5.64343 3.00068 5.44387 2.84699 5.28675L2.80699 5.24675C2.68302 5.12292 2.58468 4.97587 2.51758 4.814C2.45048 4.65214 2.41594 4.47864 2.41594 4.30341C2.41594 4.12819 2.45048 3.95469 2.51758 3.79283C2.58468 3.63096 2.68302 3.48391 2.80699 3.36008C2.93082 3.23611 3.07787 3.13777 3.23974 3.07067C3.4016 3.00357 3.5751 2.96903 3.75033 2.96903C3.92555 2.96903 4.09905 3.00357 4.26091 3.07067C4.42278 3.13777 4.56983 3.23611 4.69366 3.36008L4.73366 3.40008C4.89078 3.55377 5.09034 3.65687 5.3066 3.69608C5.52286 3.7353 5.74592 3.70882 5.94699 3.62008H6.00033C6.19751 3.53557 6.36567 3.39525 6.48412 3.21639C6.60257 3.03753 6.66614 2.82794 6.66699 2.61341V2.50008C6.66699 2.14646 6.80747 1.80732 7.05752 1.55727C7.30757 1.30722 7.6467 1.16675 8.00033 1.16675C8.35395 1.16675 8.69309 1.30722 8.94313 1.55727C9.19318 1.80732 9.33366 2.14646 9.33366 2.50008V2.56008C9.33451 2.77461 9.39808 2.9842 9.51653 3.16306C9.63498 3.34192 9.80315 3.48224 10.0003 3.56675C10.2014 3.65549 10.4245 3.68196 10.6407 3.64275C10.857 3.60354 11.0565 3.50044 11.2137 3.34675L11.2537 3.30675C11.3775 3.18278 11.5245 3.08443 11.6864 3.01734C11.8483 2.95024 12.0218 2.9157 12.197 2.9157C12.3722 2.9157 12.5457 2.95024 12.7076 3.01734C12.8694 3.08443 13.0165 3.18278 13.1403 3.30675C13.2643 3.43058 13.3626 3.57763 13.4297 3.73949C13.4968 3.90136 13.5314 4.07486 13.5314 4.25008C13.5314 4.4253 13.4968 4.5988 13.4297 4.76067C13.3626 4.92253 13.2643 5.06958 13.1403 5.19341L13.1003 5.23341C12.9466 5.39053 12.8435 5.59009 12.8043 5.80636C12.7651 6.02262 12.7916 6.24567 12.8803 6.44675V6.50008C12.9648 6.69726 13.1052 6.86543 13.284 6.98388C13.4629 7.10233 13.6725 7.16589 13.887 7.16675H14.0003C14.3539 7.16675 14.6931 7.30722 14.9431 7.55727C15.1932 7.80732 15.3337 8.14646 15.3337 8.50008C15.3337 8.8537 15.1932 9.19284 14.9431 9.44289C14.6931 9.69294 14.3539 9.83341 14.0003 9.83341H13.9403C13.7258 9.83427 13.5162 9.89784 13.3373 10.0163C13.1585 10.1347 13.0182 10.3029 12.9337 10.5001Z" stroke="#333333" stroke-width="2" stroke-linecap="round" stroke-linejoin="round"/>
</g>
<defs>
<clipPath id="clip0_463_6932">
<rect width="16" height="16" fill="white" transform="translate(0 0.5)"/>
</clipPath>
</defs>
</svg>
