<svg width="20" height="20" viewBox="0 0 20 20" fill="none" xmlns="http://www.w3.org/2000/svg">
<path d="M12.7778 2.22266H3.88894C3.59426 2.22266 3.31164 2.33972 3.10327 2.54809C2.8949 2.75647 2.77783 3.03908 2.77783 3.33377V16.6671C2.77783 16.9618 2.8949 17.2444 3.10327 17.4528C3.31164 17.6611 3.59426 17.7782 3.88894 17.7782H12.7778C13.0725 17.7782 13.3551 17.6611 13.5635 17.4528C13.7719 17.2444 13.889 16.9618 13.889 16.6671V13.3338H8.68339C8.53605 13.3338 8.39474 13.2752 8.29055 13.171C8.18637 13.0669 8.12784 12.9256 8.12784 12.7782C8.12784 12.6309 8.18637 12.4896 8.29055 12.3854C8.39474 12.2812 8.53605 12.2227 8.68339 12.2227H13.889V3.33377C13.889 3.03908 13.7719 2.75647 13.5635 2.54809C13.3551 2.33972 13.0725 2.22266 12.7778 2.22266Z" fill="#6B6B6B"/>
<path d="M15.6445 9.60038C15.5382 9.50937 15.4015 9.46181 15.2617 9.46721C15.1218 9.47261 14.9892 9.53057 14.8903 9.62952C14.7913 9.72846 14.7334 9.86109 14.728 10.0009C14.7226 10.1407 14.7701 10.2774 14.8611 10.3837L16.7389 12.2226H13.8889V13.3337H16.7389L14.8611 15.2559C14.803 15.3057 14.7557 15.367 14.7224 15.436C14.6891 15.5049 14.6703 15.58 14.6674 15.6565C14.6644 15.733 14.6773 15.8093 14.7052 15.8806C14.7332 15.9519 14.7755 16.0166 14.8297 16.0707C14.8838 16.1249 14.9486 16.1673 15.0198 16.1952C15.0911 16.2231 15.1674 16.236 15.2439 16.2331C15.3205 16.2301 15.3955 16.2114 15.4645 16.178C15.5334 16.1447 15.5947 16.0974 15.6445 16.0393L18.8889 12.8171L15.6445 9.60038Z" fill="#6B6B6B"/>
</svg>
