<svg width="18" height="16" viewBox="0 0 18 16" fill="none" xmlns="http://www.w3.org/2000/svg">
<path d="M16.4751 11.4003C16.2751 13.6253 14.6667 15.0837 12.3334 15.0837H4.83342C2.53341 15.0837 0.666748 13.217 0.666748 10.917V5.08366C0.666748 2.81699 2.03341 1.23366 4.15842 0.966992C4.37508 0.933659 4.60008 0.916992 4.83342 0.916992H12.3334C12.5501 0.916992 12.7584 0.925325 12.9584 0.958659C14.9501 1.19199 16.3001 2.58366 16.4751 4.60033C16.4798 4.65739 16.4724 4.71481 16.4535 4.76885C16.4345 4.82288 16.4044 4.87233 16.3651 4.91398C16.3258 4.95563 16.2782 4.98855 16.2254 5.01061C16.1726 5.03266 16.1157 5.04335 16.0584 5.04199H14.7667C13.9667 5.04199 13.2251 5.35033 12.6917 5.90033C12.0584 6.51699 11.7417 7.38366 11.8167 8.25033C11.9501 9.76699 13.2834 10.9587 14.8668 10.9587H16.0584C16.3001 10.9587 16.5001 11.1587 16.4751 11.4003Z" fill="#6B6B6B"/>
<path d="M17.3334 7.14199V8.85866C17.3334 9.31699 16.9667 9.69199 16.5 9.70866H14.8667C13.9667 9.70866 13.1417 9.05033 13.0667 8.15033C13.0167 7.62533 13.2167 7.13366 13.5667 6.79199C13.875 6.47533 14.3 6.29199 14.7667 6.29199H16.5C16.9667 6.30866 17.3334 6.68366 17.3334 7.14199Z" fill="#6B6B6B"/>
</svg>
