<svg width="83" height="40" viewBox="0 0 83 40" fill="none" xmlns="http://www.w3.org/2000/svg">
<path d="M20.606 27H34.413V23.68H26.0076V23.5746L34.2813 11.5594V9.24064H21.3965V12.5606H29.0641V12.666L20.606 24.8394V27ZM47.5125 16.2232H40.9779V12.5343H47.9077V9.24064H36.9464V27H48.2766V23.7063H40.9779V19.4905H47.5125V16.2232ZM54.5757 27H58.6071V12.6133H63.4554V9.24064H49.8065V12.6133H54.5757V27ZM65.5858 9.24064V27H69.6172V19.5695H76.2309V27H80.2359V9.24064H76.2309V16.0651H69.6172V9.24064H65.5858Z" fill="#E70000"/>
<path d="M8.19261 8.56347C9.26848 8.56347 10.3338 8.79349 11.3278 9.2404C12.3218 9.6873 13.2249 10.3423 13.9857 11.1681C14.7464 11.9939 15.3499 12.9742 15.7616 14.0532C16.1733 15.1321 16.3852 16.2885 16.3852 17.4563C16.3852 18.6242 16.1733 19.7805 15.7616 20.8595C15.3499 21.9384 14.7464 22.9187 13.9857 23.7445C13.2249 24.5703 12.3218 25.2253 11.3278 25.6723C10.3338 26.1192 9.26848 26.3492 8.19261 26.3492L8.19261 17.4563L8.19261 8.56347Z" fill="#242424"/>
</svg>
