<svg width="21" height="21" viewBox="0 0 21 21" fill="none" xmlns="http://www.w3.org/2000/svg">
<circle cx="10.3704" cy="10.3704" r="10.3704" fill="#D9D9D9"/>
<path d="M16.2962 17.037V15.5555C16.2962 14.7697 15.984 14.016 15.4284 13.4604C14.8727 12.9047 14.1191 12.5925 13.3332 12.5925H7.4073C6.62147 12.5925 5.86783 12.9047 5.31217 13.4604C4.7565 14.016 4.44434 14.7697 4.44434 15.5555V17.037" stroke="#333333" stroke-width="1.48148" stroke-linecap="round" stroke-linejoin="round"/>
<path d="M10.3702 9.62954C12.0066 9.62954 13.3332 8.30298 13.3332 6.66658C13.3332 5.03018 12.0066 3.70361 10.3702 3.70361C8.73379 3.70361 7.40723 5.03018 7.40723 6.66658C7.40723 8.30298 8.73379 9.62954 10.3702 9.62954Z" stroke="#333333" stroke-width="1.48148" stroke-linecap="round" stroke-linejoin="round"/>
</svg>
