<svg width="17" height="17" viewBox="0 0 16 17" fill="none" xmlns="http://www.w3.org/2000/svg">
<g clip-path="url(#clip0_293_8054)">
<path d="M7.60466 0.582129L0.604659 3.58213C0.167159 3.76963 -0.076591 4.23838 0.020284 4.70088C0.117159 5.16338 0.523409 5.50088 0.998409 5.50088V5.75088C0.998409 6.1665 1.33278 6.50088 1.74841 6.50088H14.2484C14.664 6.50088 14.9984 6.1665 14.9984 5.75088V5.50088C15.4734 5.50088 15.8828 5.1665 15.9765 4.70088C16.0703 4.23525 15.8265 3.7665 15.3922 3.58213L8.39216 0.582129C8.14216 0.475879 7.85466 0.475879 7.60466 0.582129ZM3.99841 7.50088H1.99841V13.6353C1.97966 13.6446 1.96091 13.6571 1.94216 13.6696L0.442159 14.6696C0.076534 14.9134 -0.089091 15.3696 0.039034 15.7915C0.167159 16.2134 0.557784 16.5009 0.998409 16.5009H14.9984C15.439 16.5009 15.8265 16.2134 15.9547 15.7915C16.0828 15.3696 15.9203 14.9134 15.5515 14.6696L14.0515 13.6696C14.0328 13.6571 14.014 13.6478 13.9953 13.6353V7.50088H11.9984V13.5009H10.7484V7.50088H8.74841V13.5009H7.24841V7.50088H5.24841V13.5009H3.99841V7.50088ZM7.99841 2.50088C8.26363 2.50088 8.51798 2.60624 8.70551 2.79377C8.89305 2.98131 8.99841 3.23566 8.99841 3.50088C8.99841 3.76609 8.89305 4.02045 8.70551 4.20799C8.51798 4.39552 8.26363 4.50088 7.99841 4.50088C7.73319 4.50088 7.47884 4.39552 7.2913 4.20799C7.10377 4.02045 6.99841 3.76609 6.99841 3.50088C6.99841 3.23566 7.10377 2.98131 7.2913 2.79377C7.47884 2.60624 7.73319 2.50088 7.99841 2.50088Z" fill="#E70000"/>
</g>
<defs>
<clipPath id="clip0_293_8054">
<rect width="16" height="16" fill="white" transform="translate(0 0.5)"/>
</clipPath>
</defs>
</svg>
